<svg xmlns="http://www.w3.org/2000/svg" width="17" height="17" viewBox="0 0 17 17">
  <defs>
    <style>
      .cls-1 {
        fill: #281c16;
        fill-rule: evenodd;
      }
    </style>
  </defs>
  <path id="Vorm_9" data-name="Vorm 9" class="cls-1" d="M2844.08,870.85a0.5,0.5,0,0,0,.14.691,0.506,0.506,0,0,0,.28.084,0.513,0.513,0,0,0,.42-0.222l0.38-.569a5.2,5.2,0,0,1-.88-0.484Zm12.5-.5a5.2,5.2,0,0,1-.88.484l0.38,0.569a0.513,0.513,0,0,0,.42.222,0.506,0.506,0,0,0,.28-0.084,0.5,0.5,0,0,0,.14-0.691ZM2843,864.259v1.555a4.5,4.5,0,0,0,4.5,4.483h6a4.5,4.5,0,0,0,4.5-4.483v-0.29h-8.26A18.414,18.414,0,0,1,2843,864.259Zm1.67-3.764v-4.044a0.829,0.829,0,0,1,.83-0.83h0.67a0.829,0.829,0,0,1,.83.83v0.236a1.858,1.858,0,0,0-1.33,1.784v0.138a0.5,0.5,0,0,0,.5.5h2.66a0.5,0.5,0,0,0,.5-0.5v-0.166a1.825,1.825,0,0,0-1.33-1.756v-0.236a1.829,1.829,0,0,0-1.83-1.826h-0.67a1.829,1.829,0,0,0-1.83,1.826V860.1c0.07,0.024.15,0.052,0.23,0.086C2844.15,860.293,2844.41,860.4,2844.67,860.5Zm13.27,1.917h-8.2a15.359,15.359,0,0,1-6.25-1.32,1.064,1.064,0,0,0-1.4.537,1.053,1.053,0,0,0,.54,1.4,17.433,17.433,0,0,0,7.11,1.5h8.2A1.058,1.058,0,1,0,2857.94,862.412Z" transform="translate(-2842 -854.625)"/>
</svg>
