<svg xmlns="http://www.w3.org/2000/svg" width="20" height="20" viewBox="0 0 20 20">
  <defs>
    <style>
      .cls-1 {
        fill: #fff;
        fill-rule: evenodd;
      }
    </style>
  </defs>
  <path id="Vorm_3" data-name="Vorm 3" class="cls-1" d="M3059,156h11a2,2,0,0,0,2,2h2a2,2,0,0,0,2-2h1a1,1,0,0,0,0-2h-1a2,2,0,0,0-2-2h-2a2,2,0,0,0-2,2h-11A1,1,0,0,0,3059,156Zm13-2h2v2h-2v-2Zm5,7h-9a2,2,0,0,0-2-2h-2a2,2,0,0,0-2,2h-3a1,1,0,0,0,0,2h3a2,2,0,0,0,2,2h2a2,2,0,0,0,2-2h9A1,1,0,0,0,3077,161Zm-13,2v-2h2v2h-2Zm13,5h-3a2,2,0,0,0-2-2h-2a2,2,0,0,0-2,2h-9a1,1,0,0,0,0,2h9a2,2,0,0,0,2,2h2a2,2,0,0,0,2-2h3A1,1,0,0,0,3077,168Zm-7,2v-2h2v2h-2Z" transform="translate(-3058 -152)"/>
</svg>
