<svg xmlns="http://www.w3.org/2000/svg" width="12.187" height="12.156" viewBox="0 0 12.187 12.156">
  <defs>
    <style>
      .cls-1 {
        fill: #ffd400;
        fill-rule: evenodd;
      }
    </style>
  </defs>
  <path id="star_kopiëren_8" data-name="star kopiëren 8" class="cls-1" d="M505.725,752.849a0.931,0.931,0,0,0,.221-0.934,0.876,0.876,0,0,0-.7-0.62l-2.949-.447a0.385,0.385,0,0,1-.289-0.22l-1.317-2.787a0.858,0.858,0,0,0-1.567,0l-1.318,2.787a0.388,0.388,0,0,1-.29.221l-2.947.446a0.877,0.877,0,0,0-.7.62,0.933,0.933,0,0,0,.22.934l2.133,2.169a0.41,0.41,0,0,1,.111.357l-0.5,3.063a0.925,0.925,0,0,0,.191.739,0.857,0.857,0,0,0,1.076.221l2.636-1.447a0.386,0.386,0,0,1,.359,0l2.636,1.447a0.84,0.84,0,0,0,.406.106,0.863,0.863,0,0,0,.669-0.327,0.914,0.914,0,0,0,.191-0.739l-0.5-3.063a0.417,0.417,0,0,1,.112-0.357Z" transform="translate(-493.813 -747.344)"/>
</svg>
