<svg preserveAspectRatio="none" xmlns="http://www.w3.org/2000/svg" width="1920" height="119" viewBox="0 0 1920 119"><defs><style>.cls-1{fill:#a8bf3e;fill-rule:evenodd}</style></defs><path id="Vorm_17_kopiëren" data-name="Vorm 17 kopiëren" class="cls-1" d="M1009.51 89.345c-4.64.471-6.04-.627-9-.964-.04-.821.74-1.249 2-1.441-4.836-1.724-10.816-2.52-10.007-5.779 4.391-.617 6.507-2.325 8.007-4.333 4 .318 7.23 1.011 11 1.446v2.4c-1.79-.059-2.11.591-4 .483 3.23 1.592 1.44 4.331-2 5.295C1007.28 87.211 1010.84 87.1 1009.51 89.345zm-478.233-.481c1.187-.328 7.313-1.987 7 0C536.055 89.98 534.379 88.7 531.277 88.864zm374.184-6.739a36.268 36.268.0 0 0 8-3.85c3.167-.081 3.343 1.277 7 .959.284.841-3.2 2.588 1 2.41-2.5.935-1.8 1.5-1 3.367-3.695-.334-4.418.763-4 2.408-3.125.649-9.2.847-11-.479 3.438-1.823 5-2.805-1-3.854l1.5-.242zm212.109 2.886c-6.17 2.837-9.55.953-16.01-.479 1.25-1.167 4.1-1.559 7-1.926 2.5.561 3.85 1.677 8.01 1.443l-.5.723zm-52.03-.962c1.78-2.737-2.25-2.781.0-5.3 6.65-1.2 13.21-.111 16.01 1.926-2.67 1.128-2.84 3.45-5.01 4.815a40.255 40.255.0 0 1-11-.483l.5-.479zm-7.51-.239.51.722h-7l.49-.483-.49-.479c.86-2.122 7.28-1.352 8 .479zm110.56-2.166c5.38-1.855 15.64.709 13.01 3.85-3.72-1.419-12.08-.608-14.01-2.888l1.51-.242zm-212.1 3.85c-4.623.3-4.19-1.836-6-2.888 2.663.0 5.716-.184 7 .481A2 2 0 0 1 956.485 85.494zm-156.079-.483c-.728-1.311 1.992-.967 2.006-1.924 2.825-.4 2.592.677 5 .483A33.445 33.445.0 0 1 800.406 85.011zm550.274-3.85c1-3.154 8.42-1.287 10 .483C1359.49 83.5 1352.42 82 1350.68 81.161zm46.03-.483c1.04-1.577-.65-2.122 2-3.367a12.449 12.449.0 0 0 5 .479c-.49 1.519 1.8 1.7 1 3.371C1402.02 81.689 1399.58 81.252 1396.71 80.678zm-80.05.965c.13-.866-1.22-1.018-.99-1.928 3.46.39 4.22-.9 5.99.0C1320.87 80.775 1319.66 81.638 1316.66 81.644zm-225.11-.965c.29.767-5.4.676-3-.48C1088.17 80.383 1091.56 80.713 1091.55 80.678zm-145.07.0c-.173-1.955 6.811-1.673 7.006.0C951.81 81.528 950.132 80.253 946.48 80.678zm518.26-.48c-3.41.034-2.96-1.785-3-3.37 2.41-1.6 10.5-1.142 12 .483C1474.53 80.093 1466.05 78.424 1464.74 80.2zm-340.17-.483c-4.64-2.886-11.13-2.793-17.01-4.336 10.28-1.224 20.35-2.652 32.02-2.4 1.7.175 1.89-.377 2-.968 3.01.16 1.17 2.65 4 2.892-.48 2.749-3.76 1.5-3 4.331-2.4 1.121-9.84 1.514-12.01.0C1127.51 78.886 1127.63 80.065 1124.57 79.716zm-250.125-.482c1.5-.56 2.446-1.389 5-1.443a1.759 1.759.0 0 1 1.006 1.443A9.4 9.4.0 0 1 874.445 79.234zm617.3-.959c1.61-.884 5.9-1.39 6.01.478C1495.65 79.809 1493.31 78.852 1491.75 78.275zM1307.66 75.38c4.71-1.224 9.18-2.461 14-2.4 3.7 1.721-5.66 2.318 1.01 2.4-2.86 2.072-4.56 2.145-7 3.854-3.63-.662-6.06-1.9-9.01-2.888l1.5-.241zm175.09 2.895c-.13 1.06-4.25.2-6.01.478C1476.87 77.69 1480.99 78.545 1482.75 78.275zm-288.14-.484c.17-1.48 5.38-1.011 5 .484C1197.52 79.318 1196.37 78.214 1194.61 77.79zm241.11-.479c-.18-.412.4-.456 1-.483.02-1.281-.37-2.749 1-3.371 2.42.2 2.18-.881 5.01-.479 3.6 2.5 3.95 5.995-6.01 5.3l.5-.725zm-52.03.0c-2.37-.3-4.65-.648-5-1.931C1381.72 74.379 1385.81 76.039 1383.69 77.311zm-30.01-.483c.62-.427 1.21-.862.0-.962.79-1.108 6.2-.467 5 .962A12.545 12.545.0 0 1 1353.68 76.828zm-276.14.0c-4.83.6-8.01-1.2-6-2.407C1075.33 74.367 1076.92 75.362 1077.54 76.828zm-165.076.0c-3.159-.083-5.968-.338-6-1.926 2.135-1.631 5.446 1.045 6 0C915.462 75.219 911.506 75.93 912.464 76.828zM974.5 75.38c-4.335-.2 1.053-2.791.0.0h0zM963.489 74.9h-4c-.457-1.5 2.135-1.537 5-1.445A1.756 1.756.0 0 0 963.489 74.9zm-14.008-.962q-3.268.128-3-1.445C947.411 73.009 950.171 72.646 949.481 73.94zm671.339-.962c3.02-3.135-3.6-.837-2.01-4.334 3.75-.718 3.03-.791 8.01-.481-.22 1.551 1.77 2.036 1 3.846C1624.34 71.845 1624.02 74.461 1620.82 72.978zm-220.11-1.927c3.17-.716 5.63-1.784 10-1.926 4.56 3.281-5.59 5.878-10 3.371l.49-.725zm284.14.959c-3.79 1.48-9.64-.154-12.01-.959a8.929 8.929.0 0 1 4-1.926C1680.35 69.688 1682.05 71.11 1684.85 72.01zm-372.19.486c-3.08-.929-8.3-.816-8-3.371a50.433 50.433.0 0 1 15-.481C1318.63 70.551 1314.33 70.89 1312.66 72.5zm348.18-.486c-1.79-.351-.15-.869.0-1.438C1662.62 70.922 1660.98 71.446 1660.84 72.01zm40.01-3.846c1.03-1.074 4.61.628 8.01.0 1.21 2.584-7.77 2.317-9.01.961l1.51-.24zm-245.12-1.447c-4.01-.471-10.22.107-11-1.927 6.6-.351 10.75-1.887 18.01-1.923.2 2.47 3.38 3.508 4 5.778C1463.36 69.762 1455.49 69.847 1455.73 66.716zM345.185 69.608c.127-.864-1.229-1.017-1-1.928 1.926-.933 4.023.5 7 .483C350.338 69.2 348.723 69.863 345.185 69.608zM1333.67 67.2c9.69-.569 17.57-4.907 26.02-1.924-.17 1.362-1.84 2-2.01 3.369a181.651 181.651.0 0 1-23.01.0l.51-.884zm-334.161.0V65.275c1.621-.728 7.381-.728 9 0C1010.33 68.139 1002.31 68.077 999.509 67.2zm384.181-2.886c4.79-3.694 20.39-5.493 28.02-2.41-1.92 1.6-7.59.642-14.01.963.01 2.507-4.54 5.351-10 3.85C1386.15 66.291 1387.33 63.825 1383.69 64.313zm38.03-4.816c6.08-.285 10.55-1.343 13-3.371 1.79 1.636 8.75-.3 12.01 1.444 3.17 6.894-11.77 10.658-27.01 8.666l.5-.883-1.5-.566c3.89-.925 3.13-3.269 1-4.81l1.5.238zm-5.51-1.2-.5.718c-8.08.523-11.21-1.341-17-1.923 7.58-4.695 28.01-3.209 39.01-6.26 3.19.738 4.41.169 8.01.0l-.5.884 1.5.561c1.02 2.1-2.07 2.214-3 3.37-12.51-.247-19.52-1.7-26.02 2.888zM154.087 66.237c-3.654-.327-1.809-3.313.0-3.852 3.737-.515 2.849 1.2 6.006.962.413 1.159-1.827 1.046-1 2.407C157.638 66.019 153.919 65.194 154.087 66.237zM121.075 63.83c5.852.088 9.2-1.026 13.007-1.927.727 1.092 3 1.441 5 1.927C138.471 67.165 122.556 66.757 121.075 63.83zm27.017 1.445c-2.1.2-2.658-.33-4.009-.486.246-.847 1.727-1.094 4.009-.959v1.445zm873.428-.486h-2c-.28-.772.94-.827 1-1.441h2C1022.8 64.125 1021.58 64.175 1021.52 64.789zm-19.01-.959c-3.937-1.553 4.75-3.675 6-1.445C1007.61 63.394 1002.87 62.557 1002.51 63.83zm666.33-5.3c-.42-1 .68-1.274 1-1.922l1.5-.242-.5-.724c5.27.61 5.93-1 10.01-.965a2.8 2.8.0 0 0 2 .965c.84 2.172-2.34 2.4-3 3.854-3.71-.593-5.86-1.345-9.01.0l-.5-.725zm43.02 1.931c-1.49.993-8.66.661-8.01-.965 4.08-.4 3.45-.075 8.01.0C1711.24 59.925 1710.65 60.356 1711.86 60.463zm-23.01-.484c.43-.593 1.28-.992 3-.967C1691.42 59.608 1690.57 60 1688.85 59.979zm21.01-1.447c-4.86-1.353-14.57-.367-14.01-4.332a37.1 37.1.0 0 0 8-.961C1704.79 55.518 1709.9 55.787 1709.86 58.532zM0 119H1920l-.04-74.429s-7.37.444-10 2.407a1.844 1.844.0 0 1 1 1.928c-8.17-3.244-16.18 1.247-22.01 3.369-5.24.439-3.77-2.358-9.01-1.926-5.28 1.148-6.83 4.092-10 6.262-12.01-1.071-15.64 5.044-25.01 6.738 1.07 2.444-1.85 2.964-4.01 3.851-2.77-.11-2.83-1.528-5-1.924-6.84 2.968-27.79 2.959-37.02.479-4.02-.334-2.45 2.029-6 1.926-5.32-3.838-12.11 2.373-19.01 2.407-4.14-2.118-8.04-1.619-16.01-1.443-3.33-2.249-9.13-3.31-12-5.778 1.16-1.566 1.88-5.238.0-6.739l-.5-.724-.5-.724a9.224 9.224.0 0 0 5-4.331c-3.23-3.1-12.67-3.208-11.01-8.667-.84-1.519-5.16-1.37-6-2.885-2.08 1.707-6.98 2.131-10.01 3.85-1.47.837-.58 2.532-1.99 3.369-3.73 2.212-17.43 4.261-26.02 2.4l.5-.72-1.5-.242c1.87-1.345 4.31-2.417 6-3.85-3.62-1.553-5.71 1.722-9 1.924-4.07.032-4.83-1.526-9-1.445-5.63.021-5.56 2.785-7.01 4.818-6.64 1.138-10.59 3.568-13.01 6.739-3.05-.347-3.64.493-6 .483a8.128 8.128.0 0 1-2-2.888c-9.23.253-16.98-2.182-23.01-1.927-1.72 1.421-2.12 3.474-2 5.777-6.5-2.321-16.25-4.339-26.02-2.41-3.08 1.4-4.68 3.525-12 2.892l.5-.723-1.5-.238c-.42-2.974-11.72-.867-2-.483l-.5.721.5.723a23.95 23.95.0 0 0-7 1.441c.91.846 1.85 1.673 5 1.451.88 1.54-3.3.657-3 1.922-.54 1.734 4.9 3.066-1 3.369.62 1.3 4.17 1.2 4 2.89l-1.5-.242.5.723c-4.98-.149-6.5 1.367-6.01 3.853-7.15.846-13.4 1.613-20.01 2.4-4.31-.566-12.84-2.722-18.01-3.37-.57-.068-2.41.617-4 .486-.99-.083-3.78-1.391-5-1.445-2.9-.124-9.71-.662-14.01-2.407-3.93-1.6-2.33-.713-8-.964-1.25-.056-3.38-.508-8.01-.964-4.59-.453-11.27-.884-16-2.4-.86-.28-1.43-1.762-3-2.41-3.46-1.421-6.8-1.572-9.01-4.332-4.63-.181-5.67-2.084-10-2.41.16-.555-.22-.855-1-.962V51.312c-1.2-1.977-10.49-1.845-11.01-1.443-2.85-2.735-4.59-5.3-8-8.669-7.52 1.106-11.14-2.791-18.01.481-.88.994 3.3 1.827 3 .965-.49.686-.98 5.494 5 5.774-3.41 1.839-6.94.691-10 2.409-4.05-.458-6.83-1.528-12.01-1.444.46 5.454-22.07 3.747-29.01 7.224 2 1.131 2.63 3.221.99 4.81-8.61-.012-10.5-1.15-19-.478-2.6-.84-2.03-3.2-2-5.3 10.13-2.823 21.06-5.272 26.01-10.594-4-1.481-4.34-1.545-9.01-.48-2.57.118 1.38.83.0 1.928-4.19 2.307-18.81 1.094-23.01 1.922.2 2.294-3.27 3.709-7 5.3 2.6 2.063-1.16 4.611-1 5.779-2.83.081-6.86-.416-7 .965.19.386 1 .476 1 .957l-1.51.242.51.723c-8.16.234-15.15-.095-18.01-2.407a7.254 7.254.0 0 0-5 4.81c-7.83-.617-8.57-1.408-16.01-.476 3.84-1.845 3.34-5.777 8-7.224.31-1.109-2.89-.537-3-1.445l.5-.721-1.5-.244c6.64-1.294 8.54-4.875 9.01-9.146-6.39-2.718-14.25.811-18.01 2.409-1.56 1.711 3.39.29 2.99 1.445-2.71 1.938-8.47 4.087-4 6.741-2.66.0-2.55 1.34-4 1.922-1.06 1.8 3.76.766 3 2.414-5.6-.454-4.61 2.269-9 2.4 1.22 1.339 6.14.895 10 .964l-.49.722 1.5.238c-.39 1.585-2.93 2.125-4.01 3.374-8.16-.542-15.19 3.218-19.01.481l1.5-.242-.5-.722c-2.08-3.016-16.43-3.045-22.01-1.443-4.5-1.349-9.77-.713-15 0 1.74 3.408-4.68 2.882-7.01 4.334-.52 2.017 3.37 1.907 6.01 2.406l-.51.718.51.725a42.953 42.953.0 0 1-11.01.958c-.86 1.543 1.57 1.492 2 2.41l-1.5.563.5.881c-11.46-.739-15.69-4.968-26.02-6.256l.51-.723-.51-.722c5.6-1.149 15.96 1.935 20.02-1.446-.95-1.631-4.88-1.824-5-3.85-6.09-.148-12.43-.669-20.02.0v4.334c1.17-.079 1.79.105 2.01.479l-1.5.561.49.884c-2.86.07-1.82 2.008-1.99 3.37-9.65.629-10.81-2.825-18.01-3.37l-1.17-.725-1.83.239V71.533c-2.58.2-4.73.963-8.01 1.924-13.39.325-11.05-6.8-28.02-5.777-.17-5.035-10.33-3.193-15-1.926-6.06-1.587-20.62-5.488-20.01 1.445a84.77 84.77.0 0 0-9.01 2.409c-2.49.39-3.53-1.249-6-1.445-2.58-.21-7.6 1.311-13 1.445-5.51.13-9.51-1.365-13.01.479-2.08.124-.28 2.114-2 2.408-4.91.115-6.34-1.445-9-2.408-10.32 2.86-16.13-1.724-28.02-.963l.5-.882-1.5-.562c5.05-.83 9.11-2.871 15.01-1.926 2.35-.152 2.24-1.49 4-1.924-2.11-2.7-10.96-2.652-18.01-1.445-.02-.958-2.73-.615-2-1.922h-1l.5-.884-1.5-.567c1.78-1.224 4.29-2.1 5-3.85 6.88 1.484 17.72 6.736 24.01 1.449.47-1.03-1.43-.92-3-.966 2.65-.648 6.42-.761 8.01-1.926-1.43-2.454-5.89-3.226-9.01-3.37-8.31-.381-15.75 4.685-24.01 3.37.52-.711 1.48-1.212 2-1.928-3.11-.907-6.92-1.483-7.01-3.85-11.02-1.947-17.484.271-21 4.333-5.013.0-6.816 1.536-9.006 2.888.967 3.577 3.057 4.309 3 7.7l-1.5-.24.5.722a10.49 10.49.0 0 1-2 .482c.84 2.325 3 4.013 7 4.814 3.164 1.213-5.792 1.99 1 2.407A49.6 49.6.0 0 1 984.5 72.5c-3.7-1.429-5.345-3.852-12.007-3.852-7.685 3.072-13.136 2.168-21.01 1.443-1.75-1.1-2.222-3.293-4-4.333-.985-.576-2.695-.027-4-.479-2.789-.975-1.926-2.524-7-2.89-6.66-.481-12.878 2.478-21.008 1.928-.082 1.8 3.921 1.639 7 1.924l-.5.723 1.5.239c-.353.634-1.761.761-2 1.445.843 3 7.8 1.427 13.006 1.443-.809 1.135 2.322 3.1-1 4.815-8.429-1.36-21.957-.571-27.017-2.407-2.532-1.249 2.193-3.095 3-4.332-1.264-1.314-4.013-1.921-5.995-2.888-11.5 2.758-22.805 2.2-33.019 3.85.1 1.234 3.728.773 5 1.447-.608 1.472-2.124 2.5-3 3.85-6.653-.5-14.714-2.778-20.009.0l-1.5-.239-.5.72c-.888-.213-1.784-.423-2-.962-4.211 2.465-14.842 1.841-20.01 3.85-11.722-2.107-21.727 1.647-29.015.484-1.746-2.532-4.041-4.8-11-4.817.481-2.535-3.209-1.971-8-3.37-1.638-.478-2.915-1.689-4-1.924-2.047-.449-5.533-.055-8.006-.483-3.309-.571-6.273-2.036-11-1.443-2.691.335-2.211 1.585-6 2.887-4.41 1.513-11.067 1.543-14.012 4.816-6.574.276-7.15-2.337-14.007-1.931-6.156 1.622-15.115 1.319-23.008.968.85 2.8 10.2 1.506 15.007 2.4 1.112 1.516.467 1.275-1 2.41 1.935 1.155 5.613 1.47 6 3.371-1.624.823-3.029 1.752-3 3.371-12.663 1.142-8.717 7.484-9 11.553 2.3 1.943 5.178 3.61 6 6.259-4.668.662-13.624-.4-19.012-.963-17.6 2.726-31.351 1.58-48.024-.48-5.447-2.673-14.719-3.508-25.011-3.852a16 16 0 0 1-4-2.407c-11.424-.4-23.709.769-31.011-2.407.4-2.375 8.331-1.125 13-1.445-4.821-2.173-7.8-5.233-13-7.22-4.894.054-7.77 1.075-11.009 1.924-.281 1.1.24 1.811 2 1.926-.413 1.086-5.481-.071-5 1.445-.694 1.938 4.21 1.183 4 2.888-7.946 1.182-19.381-.553-23.013-1.443-5.038-.046-9.259 1.3-11-.964a42.343 42.343.0 0 1 11-3.852c-.3-3.308 5.314-3.824 3-6.26-3.729-3.927-16.681-.635-23.012 1.445-.516 4.512-4.733 4.419-6 8.186-1.42-.041-2.834-.081-3 .481q-4.5-.722-6-2.89a59.272 59.272.0 0 0-9 2.89c-9-.308-14.024.108-21.013-1.443-4.177.595-15.019-.172-20.01-1.446-.858-.217-1.505-1.328-2-1.445-.948-.224-2.641.318-4 0-1.4-.322-1.86-1.238-3.006-1.441-5.285-.946-13.418-1.266-20.009-2.409-5.54-.959-13.272-2.713-22.01-2.886-5.637-3.711-22.179-2.17-29.015-5.3-4.758 1.188-9.066-.34-15 0-.552-1.07 1.909-.687 2-1.445-5.3-2.688-18.574 1.4-19.011-3.37 2.279.135 3.762-.115 4-.964-5.767-1.343-14.531-1.548-23.012-1.445-1.214-.147-3.451 1.393-1 1.445-4.59 1.133-11.3-2.532-9.006-4.814-6.291.185-7.78 2.674-12.01 3.852a86.134 86.134.0 0 0-12 .479c-.528 1.526-4.066 1.252-6 1.928-4.02 1.4-5.76 3.553-10.008 4.334-3.227.592-7.633-.35-9 1.924-6.328-.964-17.8.395-27.008-.962-3.651-.539-8.159-2.947-14.009-3.369-9.406-.687-17.028 1.235-26.016 2.886-2.047-1.585-3.042-3.67-6-4.813C192.478 68.468 187.7 64.02 174.1 63.83c-8.125-2.669-18.259-4.369-24.007-8.186-1.793-.059-2.121.591-4 .483-12.706-5.792-14.494-14.751-23.013-23.111-3.6-.129-4.824.887-8.008.964 4.264 5.169-4.406 8.1-8 11.07 1.3 2.871 6.845 3.591 4 7.224-12.492 4-21.994-2.693-32.01-4.333.806-1.668-1.489-1.848-1-3.371-1.7.171-5.381-1.235-9 .48-.767.361.418 1.916.0 2.408-1.81 2.115-14.21 6.763-4 9.151 6.044-.461 12.674-.643 14-3.371 6.415-.278 5.4 3.064 6 4.332l-1.5.24.5.721c-4.6 2.81-15.886 1.428-25.014 2.888-.025-.466-1.222-.373-2-.478-.841-1.045-2.595-1.645-2-3.371a9.43 9.43.0 0 1-6-4.332c-4.871-1.7-11.569-4.451-10.007-7.706-5.371-2.659-13.037-2.276-20.011-3.369-1.676 1.279-6.05 1.261-4.994 3.852 5.566 1.65 14.071 1.892 20 3.37-.577 1.56.689 2.238 1.008 3.371l-1.368.582L34.028 54.2c-4.577-.687-7.08-2.37-10-3.852a12.371 12.371.0 0 0-6 1.926c1.72 2.541 10.342 1.765 10.005 5.3-2.2 1.276-4.3.771-8.012.478C12.492 53.654.0 47 0 47v72zM899.459 57.571c-2.788-1.81-8.289-.486-12.006.0.6-1.785 1.649-2.791-1.006-3.853-10.353.8-10.689 4.3-7 8.667C888.826 63.641 897.707 62.292 899.459 57.571zm350.171-.482c3.7-.443 8.51.884 10.01-.962 2.76-4.272-4.02-7.544-11.01-8.669-4.25 3.252-12.35 4.648-15.01 8.669.78.105 1.17.4 1 .962C1240.62 59.891 1245 57.642 1249.63 57.089zm-63.03-6.741c-4.95-1.314-12.87-1.721-14.01 1.443 2.74.451 4.27 1.479 7.01 1.928 3.28-.684 1.66-1.487 3-2.406 4.48-1.3 15.95 1.214 22.01-.964-5-2.89-3.5-3.449-3.5-3.449l-.5-.884c10.3 3.1 20.71 5.335 26.01 3.37-1.83-1.679-.19-2.041 1-3.37-1.53-1.186-7.05-.459-6-2.89a14.324 14.324.0 0 1-8.01-1.926c-1.74 1.753-9.88-.325-15 0-1.03 1.977-.46 1.928-1.01 4.333 3.01.483 1.51 1.045 1.51 1.045l.5.881S1190.54 48.529 1186.6 50.348zm534.27-18.293c-2.72-1.057-2.5-.535-6.01-.965-.43.921-2.16 1.211-2 2.407C1715.82 34.9 1719.57 34.532 1720.87 32.056zM111.061 27.719c1.845-2.027.242-5.96 1.006-7.22-2.57-1.33-6.075-2.21-8-3.85.738-3.7-6.467-6.128-9-9.148C92.667 4.652 93.5.808 86.059-.2a8.484 8.484.0 0 0-7.008 3.855c5.657 4.434 16.705 9.986 12.008 16.365 3.21 2.307 11.541 2.144 15.011 4.333-.554 1.782-.932 1.732-1.006 4.336 3.971.817 5.7 2.715 9.005 3.85C116.04 30.325 113.683 29.7 111.061 27.719zm-91.043.965C17.215 22.141 22 13.545 1 14c-3.633 4.229 3.862 8.79 2.014 15.166C7.973 30.684 13.992 29.246 20.018 28.685zM851.647 76.518l1.787-.173c.281.779-.946.827-1 1.445-2.487.074-3.1-.757-5-.962.434-.593 1.276-.989 3-.962zM90.555 59.256l-.5-.724c2.813-1.4 3.658-.78 5.01-2.888 8.81-1.92 16.116 2.438 16 7.7-6.163 2.819-20.987.71-22-4.336zM42.734 57.231l1.3-.621c2.767.273 5.6.506 5 2.4-2.977.633-6.686.025-8.009-1.44zm1203.4 17.431-.5-.722c9.56 1 19.37-.516 28.01-2.407 5.17.881 7.31 3.222 14.01 3.369-5.84 3.244-12.63 2.717-22.01 1.443-2.67.806-3.26 2.6-7 2.888-5.44-.752-10.74-1.573-13.01-3.854zm-70.37-1.445 1.84-.239c2.36 2.593 5.18 6.531-7.01 5.775.22-2.621 1.83-4.574 4.01-6.257zM1005.01 59.579l.5.884a51.36 51.36.0 0 1-10.006-.484c.085-1.745 8.546-1.957 11.006-.967zM854.436 79.234c.455-2.038 3.895-1.118 6-.481 1.083 1.233-3.04 2.295.0 2.891-.226.693-2.986.164-3 .962-2.342-.158-.968-2.1-3-2.407l.5-.483zm434.214-2.888c-2.96-.415 2.32-.718 1-1.924 4.03-.5 4.45.749 6 1.444C1294.9 77.4 1288.26 75.362 1288.65 76.346zM901.456 82.093a.191.191.0 0 1 .055.005c.208.0.441.0.7.0a28.343 28.343.0 0 1 4.078.261c.557.081.865.37.689.637a1.473 1.473.0 0 1-1.331.328 24.74 24.74.0 0 0-3.474-.2c-.276.0-.532.0-.757-.01a.88.88.0 0 1-1.011-.534A1 1 0 0 1 901.456 82.093zm219.294 1.634c1.23.0 2.46.071 3.66.14 1.26.065 2.46.13 3.65.13a1 1 0 0 1 1.13.528 1 1 0 0 1-1.11.543c-1.35.0-2.66-.069-3.93-.137a25.208 25.208.0 0 0-7.57.317 1.828 1.828.0 0 1-1.5-.229c-.29-.264-.07-.586.48-.727A21.342 21.342.0 0 1 1120.75 83.727zm-62.72-.236a1.125 1.125.0 0 1 .45.085 9.289 9.289.0 0 0 3.88.411 15.631 15.631.0 0 1 3.98.264c.32.079.45.265.28.42a1.032 1.032.0 0 1-.88.137 13.65 13.65.0 0 0-3.32-.191 11.548 11.548.0 0 1-4.83-.579c-.27-.118-.28-.32-.03-.445A1.073 1.073.0 0 1 1058.03 83.492zm-29.51-.35a1.8 1.8.0 0 1 .25.02 66.4 66.4.0 0 0 11.68.256 73.142 73.142.0 0 1 11.81.224c.47.059.75.289.63.517a1.154 1.154.0 0 1-1.08.3 69.526 69.526.0 0 0-11.23-.193 70.345 70.345.0 0 1-12.3-.288c-.47-.066-.74-.3-.6-.527A1.02 1.02.0 0 1 1028.52 83.141zm136.57-2.2a1.723 1.723.0 0 1 .65.121 10.464 10.464.0 0 0 3.5.849c.53.039.89.278.8.532a1.125 1.125.0 0 1-1.11.381 13.685 13.685.0 0 1-4.49-1.073c-.39-.175-.42-.468-.06-.658A1.563 1.563.0 0 1 1165.09 80.937zm139.94-5.562a19.326 19.326.0 0 1 3.47.288c.51.092.77.363.58.61a1.458 1.458.0 0 1-1.26.276 21.886 21.886.0 0 0-6.43.014 1.267 1.267.0 0 1-1.19-.344c-.12-.252.19-.507.72-.569A34.463 34.463.0 0 1 1305.03 75.375zm132.19 1.666a1.437 1.437.0 0 1 .98.3c.23.261-.01.561-.55.674a19.9 19.9.0 0 1-4.33.279c-.52.0-1.04-.008-1.54.005a1.038 1.038.0 0 1-1.12-.486.869.869.0 0 1 1-.533c.56-.015 1.12-.01 1.69-.005a16.915 16.915.0 0 0 3.45-.195A1.942 1.942.0 0 1 1437.22 77.041zm-370.18-5.9a2.657 2.657.0 0 1 .34.023l.43.058c5.91.754 12.01 1.539 17.85.674a1.83 1.83.0 0 1 1.64.41c.21.337-.17.69-.86.789-6.56.976-13.04.144-19.3-.659l-.43-.054c-.7-.09-1.12-.435-.94-.771A1.528 1.528.0 0 1 1067.04 71.141zm588.29-.312a1.029 1.029.0 0 1 .95.385c.09.252-.27.491-.79.534l-.51.042a3.8 3.8.0 0 0-.48.4c-.11.1-.22.2-.34.3a1.615 1.615.0 0 1-1.31.173c-.45-.125-.61-.408-.35-.632.11-.091.21-.185.31-.271a3.583 3.583.0 0 1 1.04-.737l.2-.088 1.12-.091C1655.23 70.834 1655.28 70.829 1655.33 70.829zm-254.12.254a1.429 1.429.0 0 1 1.43.627c.07.383-.51.718-1.3.752a14.311 14.311.0 0 0-1.68.209 2.041 2.041.0 0 1-1.81-.435c-.26-.364.14-.754.9-.877a19.655 19.655.0 0 1 2.33-.275h.13zm296.64-3.4a1.816 1.816.0 0 1 .6.1 12.305 12.305.0 0 0 3.12.64c.54.052.88.31.76.567a1.264 1.264.0 0 1-1.19.369 15.289 15.289.0 0 1-3.89-.8c-.44-.161-.53-.46-.2-.674A1.546 1.546.0 0 1 1697.85 67.68zm-362.67-.554a1.673 1.673.0 0 1 1.22.4c.28.327-.05.7-.73.827-.97.186-1.77.315-2.66.428a1.77 1.77.0 0 1-1.62-.459c-.18-.339.24-.689.95-.778.55-.069 1.26-.167 2.34-.374A2.458 2.458.0 0 1 1335.18 67.126zm83.04-2.73a2.391 2.391.0 0 1 .64.082 5.531 5.531.0 0 0 1.23.244 1.362 1.362.0 0 1 1.44.574c.07.349-.47.663-1.19.691a8.713 8.713.0 0 1-2.77-.4c-.64-.168-.87-.556-.51-.864A1.881 1.881.0 0 1 1418.22 64.4zm30.01-13.719a1.408 1.408.0 0 1 1.31.537c.11.347-.38.672-1.1.727-.61.047-1.25.144-1.93.251-.3.047-.61.093-.91.133a1.8 1.8.0 0 1-1.64-.432c-.21-.34.2-.694.9-.793.28-.038.57-.081.84-.125.75-.112 1.52-.229 2.32-.293C1448.09 50.677 1448.16 50.677 1448.23 50.677zm-32.02 7.19a1.09 1.09.0 0 1 .82.273c.19.225.33.393.47.55.34.073.77.121 1.22.169 1.21.136 2.87.322 3.35 1.258.12.226-.17.454-.64.512a1.155 1.155.0 0 1-1.07-.31c-.2-.389-.74-.488-2.04-.635a11.762 11.762.0 0 1-1.96-.331l-.25-.071-.11-.124c-.18-.2-.36-.408-.61-.712-.17-.22.05-.464.51-.55A1.612 1.612.0 0 1 1416.21 57.867zm303.15 2.417a1.912 1.912.0 0 1 .24.013 23.925 23.925.0 0 0 2.81.227.716.716.0 0 1 .82.437.869.869.0 0 1-.91.4 26.948 26.948.0 0 1-3.19-.256c-.46-.061-.73-.288-.6-.51A.987.987.0 0 1 1719.36 60.284zm-50.35-4.758a2.133 2.133.0 0 1 .33.026c.26.041.53.072.82.113.43.051.91.114 1.52.205.56.095.87.388.69.657a1.546 1.546.0 0 1-1.37.334c-.55-.087-1-.144-1.38-.192-.35-.042-.65-.082-.95-.128-.57-.088-.88-.385-.69-.655A1.309 1.309.0 0 1 1669.01 55.526zm1.33 2.7a2.424 2.424.0 0 1 .38.032c.59.1.9.415.7.7a2.4 2.4.0 0 0-.38 1.006l-.07.322a1.264 1.264.0 0 1-1.27.481c-.62-.037-1.07-.31-1-.61l.07-.3a3.073 3.073.0 0 1 .49-1.26A1.425 1.425.0 0 1 1670.34 58.224zM932.974 65.89a1.714 1.714.0 0 1 1.068.309c.322.284.1.642-.489.793a21.416 21.416.0 0 1-6.19.335 20.274 20.274.0 0 0-4.894.164 1.928 1.928.0 0 1-1.609-.292c-.273-.295.0-.639.609-.774a23.947 23.947.0 0 1 6.1-.267 17.616 17.616.0 0 0 4.824-.2A2.306 2.306.0 0 1 932.974 65.89zm-82.038 7.8a1.552 1.552.0 0 1 .836.21 2.424 2.424.0 0 1 .894 2.649 1.019 1.019.0 0 1-1.087.454c-.562-.015-.984-.251-.946-.519a1.9 1.9.0 0 0-.537-2.025c-.318-.224-.205-.53.261-.685A1.888 1.888.0 0 1 850.936 73.691zM83.55 57.4a1.658 1.658.0 0 1 .2.014 32.044 32.044.0 0 1 7.327 1.519c.371.139.437.395.151.575a1.569 1.569.0 0 1-1.2.074 29.5 29.5.0 0 0-6.672-1.369c-.46-.056-.745-.276-.64-.5A.968.968.0 0 1 83.55 57.4zM33.667 52.616a3.235 3.235.0 0 1 .513.039A21.835 21.835.0 0 1 41.5 55.511c.779.43 1.51.84 2.289 1.206.6.281.6.74.024 1.025a2.782 2.782.0 0 1-2.128.01c-.868-.409-1.676-.854-2.463-1.291a18.668 18.668.0 0 0-6.055-2.443c-.78-.127-1.192-.545-.913-.923A1.87 1.87.0 0 1 33.667 52.616zm1709.7 2.041h2.01c.85.0 1.55.336 1.55.746s-.7.748-1.55.748h-2.01c-.85.0-1.55-.335-1.55-.748S1742.52 54.657 1743.37 54.657zm-48.02-7.473a1.041 1.041.0 0 1 1.08.484.881.881.0 0 1-1.01.549 28.182 28.182.0 0 0-3.3.346 30.276 30.276.0 0 1-3.71.376 1.06 1.06.0 0 1-1.13-.488c-.04-.282.41-.53 1.01-.543a27.485 27.485.0 0 0 3.22-.339 32.046 32.046.0 0 1 3.78-.383C1695.31 47.184 1695.33 47.184 1695.35 47.184zm-104.05 9.1a1.539 1.539.0 0 1 1.1.352c.24.293-.04.626-.65.745a13.962 13.962.0 0 1-4.74.021c-.64-.079-1.02-.386-.86-.694a1.555 1.555.0 0 1 1.44-.41 9.469 9.469.0 0 0 3.26.027A2.248 2.248.0 0 1 1591.3 56.28zm-7 11.812a1.024 1.024.0 0 1 .4.072 8.514 8.514.0 0 0 1.8.423c.34.058.52.231.41.4a.937.937.0 0 1-.82.2 10.23 10.23.0 0 1-2.2-.535c-.28-.108-.32-.307-.09-.44A1.053 1.053.0 0 1 1584.3 68.092zm-239.12-6.879a1.169 1.169.0 0 1 .89.3c.17.236-.1.489-.59.569a13.109 13.109.0 0 1-4.6.0c-.49-.076-.75-.332-.59-.569a1.337 1.337.0 0 1 1.19-.285 9.616 9.616.0 0 0 3.4.0A1.685 1.685.0 0 1 1345.18 61.213zm-37.02-6.773a1.3 1.3.0 0 1 .93.3c.2.248-.04.527-.56.625-.61.119-1.2.194-1.72.266a9.653 9.653.0 0 0-1.12.178 1.726 1.726.0 0 1-1.38-.156c-.29-.224-.15-.518.32-.661a10.956 10.956.0 0 1 1.65-.291c.5-.065 1-.131 1.51-.231A1.922 1.922.0 0 1 1308.16 54.44zm-10 9.168a1.378 1.378.0 0 1 .78.2c.31.21.2.5-.25.64a13.468 13.468.0 0 1-1.31.331c-.25.056-.52.117-.8.181a1.567 1.567.0 0 1-1.28-.2c-.24-.225-.05-.5.42-.62.29-.071.59-.134.86-.2.41-.09.8-.176 1.03-.256A1.95 1.95.0 0 1 1298.16 63.609zM1275.02 67.8a10.812 10.812.0 0 1 1.41.09c.6.076.95.371.79.657a1.48 1.48.0 0 1-1.36.376 11.78 11.78.0 0 0-4.38.542c-2.18.545-4.89 1.219-8.01.092-.5-.178-.59-.512-.22-.752a2.013 2.013.0 0 1 1.56-.1c1.9.691 3.31.394 5.65-.187A18.373 18.373.0 0 1 1275.02 67.8zm-37.9 5.3c.09.0.17.0.26.01 1.16.117 2.23.283 3.27.446a30.362 30.362.0 0 0 5.43.508 1.191 1.191.0 0 1 1.3.577c.03.334-.51.613-1.2.629a34.81 34.81.0 0 1-6.3-.564c-1.02-.157-1.99-.308-3.01-.41-.68-.07-1.11-.386-.97-.712A1.357 1.357.0 0 1 1237.12 73.1zm-10 4.622a2.7 2.7.0 0 1 .29.012c.32.037.63.074.95.11a16.507 16.507.0 0 0 5.22.1 2.086 2.086.0 0 1 1.75.315c.3.32.01.7-.66.843a20.9 20.9.0 0 1-6.94-.015q-.45-.056-.9-.1c-.71-.075-1.16-.417-1-.761A1.481 1.481.0 0 1 1227.12 77.718zM1197.11 70.9a3.194 3.194.0 0 1 .36.02c.51.063 1.05.117 1.6.171a29.1 29.1.0 0 1 3.72.527c.73.184 1.02.615.64.964a2.417 2.417.0 0 1-2 .315 25.033 25.033.0 0 0-2.97-.4c-.59-.058-1.18-.118-1.73-.186-.79-.1-1.28-.489-1.06-.871A1.676 1.676.0 0 1 1197.11 70.9zm-20.68.129a2.873 2.873.0 0 1 .32.015c.85.088 1.38.484 1.2.889l-.15.349c-.17.374-.33.754-.53 1.125a2.079 2.079.0 0 1-1.9.54c-.83-.1-1.33-.513-1.11-.916.19-.352.34-.7.49-1.054l.16-.359A1.728 1.728.0 0 1 1176.43 71.026zm-152.41-3.533a1.814 1.814.0 0 1 1.51.562c.21.4-.29.809-1.12.911-.86.108-1.74.193-2.57.271l-.37.035a1.931 1.931.0 0 1-1.84-.583c-.16-.408.38-.8 1.23-.884l.38-.035c.76-.072 1.59-.151 2.39-.251A3.152 3.152.0 0 1 1024.02 67.492zm-3-8.665a1.593 1.593.0 0 1 1.54.65c.11.412-.49.786-1.34.842a156.468 156.468.0 0 1-16.35.0c-.85-.037-1.49-.4-1.41-.812a1.625 1.625.0 0 1 1.69-.679 147.837 147.837.0 0 0 15.66.007A1.548 1.548.0 0 1 1021.02 58.827zM987 62.331a1.2 1.2.0 0 1 .322.043 10.2 10.2.0 0 0 3.607.441.67.67.0 0 1 .685.257c.034.164-.2.309-.538.331a12.744 12.744.0 0 1-4.4-.527c-.287-.084-.381-.269-.2-.406A.891.891.0 0 1 987 62.331zM1199.11 45.815a3.217 3.217.0 0 1 .5.041l1.99.319c.83.134 1.29.567 1.01.966a2.256 2.256.0 0 1-2 .481l-2-.322c-.83-.13-1.28-.564-1.01-.963A1.968 1.968.0 0 1 1199.11 45.815zM851.936 79.044a2.2 2.2.0 0 1 .235.017 23.7 23.7.0 0 0 2.813.227c.493.012.87.213.843.454a.866.866.0 0 1-.941.406 27.994 27.994.0 0 1-3.192-.258c-.476-.064-.755-.3-.621-.528A1.035 1.035.0 0 1 851.936 79.044z"/></svg>