<svg preserveAspectRatio="none" xmlns="http://www.w3.org/2000/svg" width="1920" height="86" viewBox="0 0 1920 86"><defs><style>.cls-1{fill:#f6f6ed;fill-rule:evenodd}</style></defs><path id="Vorm_17_kopiëren_4" data-name="Vorm 17 kopiëren 4" class="cls-1" d="M1918.99 49.076c1.17-.079.84-.879 1-1.445h-3.01C1916.43 48.7 1918.89 48.317 1918.99 49.076zm-615.31-.966c1.01-1.445-2.23-.85-4-.962C1299.92 48 1301.4 48.246 1303.68 48.11zm-137.07-1.445c1.29-.659 4.35-.474 7-.479-1.12-.9-3.87-1.025-4.99-1.924-2 0-1.28 1.313-4.01.964C1165.26 45.71 1166.91 45.722 1166.61 46.665zM974.521 44.741c4.352-.682.413-3.866-3-2.405C971.044 43.845 974.208 43.607 974.521 44.741zM134.1 41.37V43.3c4.268.53 7.818 1.782 9-.962l-1.5-.239.5-.727c-.259-1-4.4-.131-5-.96l-1.5.479zm12.5.244-.5.722h1l-.5-.722.5-.725h-1zm2 0-.5.722c3.73-.51 3.229 1.011 5 1.445 2.561.017 1.222-.361 1-.966V42.336l-1.5-.565.5-.882c-.823-1.359 1.411-1.25 1-2.408-4.08-.2-6.312.5-6 2.408zM136.6 38.24l.5.725c1.175-.72 4.159-.568 4-1.926-1.969-.955-5.714-.308-8 0-.046.825.743 1.245 2 1.443zm-9 3.13.5-.481c-2.993-.811-6.744-1.4-7 .965 2.967-.122 4.936 1.9 6 0zm1179.084.0c-2.48-.075-3.09.759-5 .966 1.68 2.315 6.51 2.353 9 .479l-1.49-.239.5-.722a2.9 2.9.0 0 0-2.01-.965V41.37h-1zM1170.62 43.3c1.75-.119 2.28-.829 2-1.928C1169.22 42.414 1164.44 42.424 1170.62 43.3zM203.136 40.889h3c.281-.777-.946-.83-1-1.442h-2v1.442zm715.353.0a8.486 8.486.0 0 1 3-.479c-.848-1.037-2.468-1.7-6-1.445C915.782 39.947 918.194 39.906 918.489 40.889zM1041.55 25.482c-1.64-1.37-5.43.23-7 .483.8 1.017 4.12 1.877 6 .964l-.5-.886zm1.5 1.206-1.5.24c-1.13.9-3.88 1.022-5 1.926 3.69 3.642 2.59 8.426 15 8.665l-.49-.722 1.49-.24a1.851 1.851.0 0 0 1.01-1.926c-1.78-.428-2.55-1.343-6.01-.962-.22-.855 1.01-2.414-2-1.928.68-1.119 3.33-1.291 4-2.409-1.44-1.549-1.81-3.62-7-3.368zM1150.6 39.926c1.95.194 1.47-2.19-1-1.445v.966C1150.45 39.356 1150.55 39.635 1150.6 39.926zm-966.474-.962c.125 1.064 4.243.2 6 .483-.353-.636-1.764-.759-2-1.449C185.4 37.65 186.116 38.959 184.126 38.965zm-68.033.0h3V38h-3v.966zm7-.483c.146.133 2.15.891 3 .483C126.79 38.631 122.152 37.64 123.1 38.481zm836.414.483c1.613.135 1.721-.46 3-.483C962.909 37.545 957.955 37.779 959.511 38.965zM279.174 38c1.078.951 8.3.825 7-.96C282.031 36.483 282.28 38.05 279.174 38zm637.314.0c-.355-.63-1.76-.755-2-1.441-2.727-.351-2.011.957-4 .962C911.063 39.108 914.262 38.21 916.488 38zm198.1-2.4c6.61.112 13.29 2.812 19.01.479-3.46-1.719 2.27-1.74 2-3.372-7.58.45-12.19-.705-9.01-4.335-5.86-.29-13.01-4.1-17-.959 2.22.891.81 1.967 1.99 3.371 1.63 1.923 5.37 2.184 2.01 3.85l1.5.239zm-836.42.479c.3-1.267-1.385-1.58-4-1.445A4.7 4.7.0 0 0 278.17 36.076zM170.119 35.11c-.4.934 4.557.7 3-.479h-2C171.3 35.041 170.732 35.083 170.119 35.11zm67.033.0h4V34.148h-4V35.11zm20.01.0c.033-1.46-3.51-1.2-6-1.441C251.126 35.126 254.671 34.868 257.162 35.11zM1371.71 33.669c-.32.845 5.61.855 4.01-.485C1373.63 32.981 1373.07 33.513 1371.71 33.669zm-1088.535.0c-2.2-1.472-6.408.552.0.0h0zm936.465.0c5.3.3 6.15-1.535 9.01-2.409-2.84-3.915-16.22-5.169-23.02-4.332-.84 2.17 2.34 2.4 3 3.853 4.41.508 7.74-.957 10.01.0C1221.24 31.186 1216.71 32.888 1219.64 33.669zm67.03-.485c4.35.166 7.25-.361 8.01-1.924-.97-.015-.78-.59-1.01-.962C1288.65 29.967 1287.41 31.456 1286.67 33.184zm-402.2-.481c.929-.51 3.691-.15 3-1.443Q884.2 31.128 884.475 32.7zm479.235-.48c-.24-.849-1.72-1.1-4-.964C1358.7 32.71 1361.94 32.111 1363.71 32.224zm15.01-.964c-1.65-.619-5.43-1.247-7.01-.479C1373.42 32.224 1375.36 31.311 1378.72 31.26zm-296.15-1.445c-2.22-.694-2.25-2.443-7.01-1.926C1070.69 30.7 1081.05 32.695 1082.57 29.815zm346.17-.961h-8C1421.12 30.642 1428.21 30.747 1428.74 28.854zm-53.02.0c2.69.859 1.93-2.122 3-.486C1382.1 26.112 1371.72 26.387 1375.72 28.854zM196.132 27.889c-.176.783 6.544.971 5-.479C198.305 27.008 198.542 28.085 196.132 27.889zm15.007-.479c.43 1.074 4.932.192 7 .479C217.713 26.813 213.211 27.694 211.139 27.41zM1905.98 25.965c-1.95-2.439-11.1-5.181-13-.966C1894.03 28.133 1902.46 27.466 1905.98 25.965zm-275.13-7.7c.19.389 1 .479.99.963-.14 1.052-2.52 1.032-5 .964 1.15 2.008 2.5 3.928 3 6.256 3.65-.713 6.86.5 10.01-.962-1.47-.764-2.07-3.821 2-3.371-1.53-1.53-.35-2.117.0-3.85-2.15-.7-6.16-2.094-9-.964l-.51.722zm-.51-1.684 1.5.237c1.07-1.8-2.48-1.37-2-2.885-2.13.575-5.45.583-6 1.922l1.5.243-.5.72c-.17 1.044 3.55.22 5 .483zm-10-.483 1.5-.243c1.77-1.71-3.03-2.124-3-4.333-1.57 1.815-6.02 2.237-6.01 4.815 3.88-.415 7.22-1.06 6.01 1.928 2.13.223 1.9-.689 2-1.447zM1370.71 25c5.92-.153 8.79-2.6 5.01-4.811-4.77.11-11.28-.614-12.01 1.441C1363.87 23.8 1371.03 22.605 1370.71 25zm-403.193-1.44c-.173 1.037 3.544.213 5 .479C972.685 22.992 968.971 23.818 967.517 23.559zm461.223-4.335c.31.651 2.51.4 4 .48a3.263 3.263.0 0 1 3.01-2.407c.16-1.045-3.55-.218-5.01-.483C1430.19 17.671 1430.23 18.813 1428.74 19.224zm98.05-.484c.47-1.5-2.51-1.72-4-.961C1523.03 18.623 1524.51 18.875 1526.79 18.74zm-1204.6-.961c2.05 1.465 9.149-.307 6.007-1.447C324.656 16.071 325.739 18.037 322.191 17.779zM1502.78 16.333v-2.89c-2.35.154-2.24 1.491-4 1.926C1499.43 16.019 1500.92 16.265 1502.78 16.333zM1654.85 14.4h2.01V13.442h-2.01V14.4zm-61.02-1.44a4.621 4.621.0 0 0 2.99.477C1598.8 12.617 1592.41 11.149 1593.83 12.965zm-28.02.0c-.44-.595-1.28-.989-3-.968C1562.34 13.029 1564.24 12.914 1565.81 12.965zM301.185 6.7c5.369-.14 12.775.69 13.007-1.926-5.43.369-7.753-.763-13.007-.481V6.7zM0 86V17a6.752 6.752.0 0 1 5.04.779c6.918-1.662 14.352-.831 21.008-1.928.873 1.771 4.564 3.389 5 4.337.227.488-1.365 2.029-1 2.405s2.492.188 3 .48c.905.516.511 2.139 1 2.409 1.464.8 6.334 1.066 4 3.373 5.154.246 3.92 3.567 11.007 2.887 1.583 3.73 9.328 4.5 17.01 5.3l-.5.481L65.07 38c-3.922 3.471 8.066 3.078 10 5.3h5c1.214 1.985 5.452 2.51 9 3.367a12.531 12.531.0 0 1 5.005-.479c1.671 1.716 2.04 3.316 10.005 2.89-.316-.653-1.425-.918-1-1.928 5.836-.561 5.726 1.738 9 2.409 15.544-1.54 27.736 2.7 34.015 7.221 1.189-1.032 4.334-1.123 6-1.922-2.429-4.168-13-2.062-18.007-4.337-.581-8.348 15.55-1.958 22.01-3.854.565 1.175.858 2.48 4 2.411.241-.689 1.649-.812 2-1.445a8.123 8.123.0 0 0-4-1.924c5.386-.606 8.778.844 14.008-.966l.5.723 1.5-.239v1.44c.914.847 1.86 1.674 5 1.445 3.294-.176 2.018-2.558 6-2.4 5.482.891 7.791 3.31 14.008 3.851-.728-1.313 1.986-.967 2-1.926 3.15-.23 2.265 1.477 6 .966 1.146 1.511-1.569 1.167-2 1.922 2.787.574 6.088.551 8.006-.482-1.7-.466-2.571-1.327-2-2.889 2.741-1.731 12.071-.286 16.006-1.441l.5.721 1.5-.242h2V45.225h-2l-1 .239-1 .242V45.225c-1.808.81-5.053-.4-8-.484 1.458-2.2-.1-1.948-4-2.405.693-2.478 4.956-3.281 10-2.409 1.036-1.589 3.833-2.329 9-1.928.227.913-1.126 1.064-1 1.928 3.736.608 8.715.624 11 1.928-1.865 1.711-4.993 3.959 2 5.294-1.484.571-4.47.418-4 1.928.579 1.164 3.78 1.069 6 1.443 3.292-.179 2.018-2.558 6-2.409-.413 3.01 3.921.912 8.007 1.927 2.347-.793 2.165-2.807 2-4.812 4.75-.454 4.9-.925 9-.964 1.395.615.438 2.358 3 2.4 5.344-1.216 5.579-2.993 6.006-5.776a41.065 41.065.0 0 0 14.006-4.813l1.5.239-.5-.718c5.509-1.045 8.658-3.222 11.007-5.782-.609-.026-1.184-.073-1-.483l1.5-.24-.5-.724c2.932-.405-1.3-1.208.0-2.4 3.353.332 3.658-.808 4-1.926-2.361-2.263-8-4.523-17.008-3.371.281 1.257.339 2.407-3 1.926l-.5-.723-1.5.24c-3.332-1.24-1.16-2.261-4-3.371 7.3-.039 2.034-5.011-4-4.335l.5-.878-1.5-.562c4.175-1.685 10.48-2.341 14.006-4.335 6.505-.217 7.082 2.668 13.008 1.444l-.5.72 1.5.241a2.009 2.009.0 0 0-1 2.409c3.063 1.257 5.051 3.026 11.008 2.89-2.463 1.942-1.021.813 2 1.928-2.97.176-4.935.833-6 1.928 7.119 2.6 13.629-1.216 21.007-1.448 2.377-2.333 2.494-2.9 7-4.335 1.587-3.033-5.885-3.414-1-5.292-4.291-.779-3.476-1.147-4-3.371l1.835.239 1.164-.722h3c1.24-4.429 9.976-.543 15.007-1.927 2.412 2.049 5.242 3.9 13 3.37C369.946.593 384.335-1.4 393.228.924c-1.234 3.813 4.332 7.853 14.009 6.264.889-.861 2.793-1.226 2-2.893 8.854-.075 12.288-2.755 19.01-3.852 9.816 2.66 13.152 8.436 20.007 12.522.469 1.7-1.635 4.638 3 4.331 3.95-1.556 7.886-4.855 5-8.184 5.526-4.35 37.138-11.206 34.015 1.445 2.318.651 3.32 1.933 8 1.44 1.507-2.8 6.5-3.933 8.008-6.739 5.038-.3 10.176-.559 15.006-.963 3.251 5.861 19.933 5.493 27.01 1.447 4.969.71 7.7.083 12.007.481 2.81 2.98 8.823 4.418 19.016 3.851 1.063-1.64 6.616-2.985 13-1.928 3.411 5.892 11.955 2.98 21.013 3.373 4.013-4.1 12.3-1.633 19.013-1.926 1.957 3.712 11.61 3.72 19.006 4.813 6.892-2.833 15.624-1.8 27.011-2.408 4.167.888 3.832 3.937 9.007 4.335a56.205 56.205.0 0 1 20.007-.964c9.64 5.91 29.066 5.072 43.024 5.3 6.559.107 14.095 2.941 23.012 3.851A163.644 163.644.0 0 0 796.426 25c11.842 2.531 27.786.993 37.018 5.3.831 1.358-1.408 1.245-1 2.406a25.6 25.6.0 0 0 12.006.965c1.312-7.025 19.652-2.163 25.014.0.19 2.016-4.914 1.489-4.006 3.851 4.89 1.043 8.37-.2 14.01.479 1.127.9 1.181 2.321 5 1.928-.733-5.051 8.013-6.518 20.008-4.816.223.38.839.563 2 .487 1.73 2.117 8.473 7.489 16.006 6.739.1 2.722 10.43 2.256 12 .479-.77-3.225-9.179-4.575-7-7.7C922.8 33.037 915 32.459 905.484 32.7c.095-2.455-3.159-3.3-6-4.335h1v-.48c10.373.8 15.123-4.777 25.011-4.33 3.423 1.076 2.952 4.032 9 3.851-.536 1.7.852 2.48 3.006 2.888l-.5.721.5.722a1.854 1.854.0 0 1-1 1.928c10.639-.948 13.123 2.031 15.009 5.3-.763.755-3.177.72-3 1.924 2.657 1.054.514 2.593 2 3.373 3.939.129 6.95-.186 8-1.447-1.151-.569-1.131-1.7-1-2.888 4.315-.47 2.91 1.811 6 1.928 8.084-1.262 8.46 3.12 9.008 6.256 9.136 4.125 31.124 4.863 30.014-4.33-8.6-1.387-7.809-3.105-6-6.261 1.824-3.192.071-5.536 5-7.222-2.43-.759-4.27-1.8-9.006-1.444a2.58 2.58.0 0 0 0 3.849c-2.94 1.075-3.782.948-8 .481-2.79-3.751-7.729-6.62-6-9.625 7.437 1.2 11.466 1.155 18.01 2.885-.806-1.992 1.533-2.47 5-2.406 5.2 4.079 14.66 6.105 23.01 8.665.48 5.065 7.1 7.176 15.01 8.666-2.38 2.172-2.72 2.564-2 5.778 3.94.673 5.7 2.39 11 2.409-1.73-1.631-.29-2.092 2-2.892l.5-.479-.5-.479c.78-.112 1.98-.015 2-.481l1.51-.242-.51-.721h7.01c1.3 1.193-2.24 2.336.0 2.4 4.18.42 6.48.791 9-.959 1-1.921-2.99-1.452-1.99-3.371 3.33-2.568 13.06-2.056 14-5.778-2.43-.269-5.15-.415-5.01-1.926 5.86-.075 8.62-1.63 13.01-2.407 6.62.23 5.39 1.931 7.01 2.886 1.67.99 6.87.368 4 2.409-5.46.256-10.41.764-10.01 3.85-4.57.051-10.34-.481-11.01 1.445-.16 1.689.27 3.085 2.01 3.851 5.34.276 8.76-1.118 13.01.0 2.02 1.545-3.96 1.508-1 1.931 2.39.554 7.11-1.194 8-2.89.47-1.514-2.69-1.274-3-2.409 5.02-.493 4.29-2.2 5-3.851 3.41-1.03 5.25.181 9-.483-.62 2.9-1.66 8.317 11.01 8.183 2.47.571-2.05 1.823 1 2.409a26.255 26.255.0 0 0 9.01-1.447c-1.12-1.512-.09-1.089.0-2.885 2.96-.34 4.74-1.246 5-2.89 8.93-.393 14.48 2.124 20.01 1.926 3.04.845-2.73 1.491.0 1.924 4.14-.066 8.77 1.618 14 3.371 4.15-.341 14.76-.2 15.01-3.851-.69-.948-5.58.115-6-.966 1.91-.048-.8-1.8-1-2.405l1.5-.239-.5-.727c3.71-.141 8.57.274 8.01-1.923-3.91-.112-5.19 1.035-8.01 1.442V40.41h-1c-4.14.576-11.37-.336-13.01 1.445-3.33-.164-4.44-1.4-9-.965 2.34-2.631-4.53-2.1-2-3.369 4.01-.636 12.89.527 18 .962 2.2-1.308 1.12-1.2 2.01-2.884a50.794 50.794.0 0 0-10.01-.487c3.08-2.407-4.35-1.869-8-2.407.66-1.606 2.57-2.614 7-2.406 2.83.4 2.76 2.2 6.01 2.406 5.39-.455 6.46-2.989 12-3.371 2.16 1.848 7.98 1.938 12 2.892.56 2.136 2.64 3.544 4.01 5.3-2.22.855-3.54 2.146-4.01 3.85a63.2 63.2.0 0 0 19.02.0c.93-1.889-3.49-1.216-2.01-3.371 7.8-.024 8.32 3.675 14.01 3.371l-.5.484.5.481c-3.15 1-9.37 1.609-11 1.926-1.24 2.043-.37 2.592.0 4.814 16.11 3.718 22.96-3.485 36.02-5.3l1.49.239-.49-.721c1.88-.766 4.29 1.135 8 .964 4.28 5.622 18.32 8.961 31.01 7.7l1.5.243-.49-.722c2.83-.073 4.26-.781 8-1.448-.18 1.053.82 1.531 3 1.448 3.77-.315 10.57-1.058 14.01.0 2.11-.432 1.73-2.054 5-1.927 1.14 2.3 9.72 2.5 12.01.48-3.97-2.694-14.54.71-16.01-2.889.61-.831 4.75.037 5-.962-.81-1.7-4.03-2.233-4-4.332 3.36-.308 5.2-1.35 5-3.373 1.53-.869 6.86.094 6-1.924-6.88 1.589-17.12 1.076-15-4.333a72.227 72.227.0 0 0 10-2.892c-.67-3.348 4.92-4.113 4.01-6.259 4.17-.092 8.4-2.67 12-1.444-3.64 1.323 3.66 1.415 5 1.93.12 2.511 3.11 3.636 3 6.256-2.79 1.34-5.64-1.791-8 .483-.15 1.2.52 2 2 2.406 9.88.489 20.45 3.492 35.02 2.407 1.18-2.8 9.5-2.163 14-3.369l-.5.241.5-.241c7.86 2.89 13.83-2.727 21.01-4.331-1.12-.907-3.87-1.023-5-1.928l1.5-.242-.5-.721c8.93-.517 7.96-5.8 16.01-6.739.55 2.624 3.13 4.267 9.01 4.331v2.408c-4.28 1.519-5.46.008-11.01.0-2.28.667-3.88 1.666-6 2.41a35.458 35.458.0 0 0 8 6.256c-2.06 2.536-9.11 2.677-12.01 4.814 4.31-.308 3.25 1.972 8.01 1.449-.92 4.286-10.87 2.407-14.01.479-.01-1.276.56-2.835-2-2.888-14.04.559-24.8.152-31.01 4.816 8.89 4.191 23.98 2.519 35.01 5.777 4.71-1.262 12.04-1.27 16.01-2.89V42.815a69.868 69.868.0 0 0 7-.96c5.07 2.68 6.97 4.794 17.01 4.332-3.34-1.738-8.27-6.287-4-8.666l1.83.241 1.17-.722c3.2-.643 10.37.428 13.01-2.407l1.17.719 1.83-.239c-.23.911 1.13 1.062 1 1.928 6.14.737 13.31.974 14.01 4.332-4.33-.16-6.63.664-8 1.928-.21 1.667-1.43 2.273.99 3.367 2.85.793 11.45-.815 9.01-2.4h-1l.5-.722-1.5-.242c1.5-1.042 1.11-3 4-3.372.24 1.652 6.49.41 6 2.409 1.07 1.794-3.75.762-3 2.405 6.78-1.111 14.7 1.379 19.01-1.443.52-.337-1.99-.673-2-.962.01.517 3.29-1 3-1.926-11.48 1.58-17.84-1.5-28.01-1.928-2.16-1.814 1.56-2.037 2-3.85-4.38-1.367-.86-5.422-9-5.777 1.79.061 2.34-.479 1.99-1.445l1.36-.587 1.65-.379c4.75-.234 9.29.181 10-2.885-2.48-.252-3.56-1.179-5-1.93 4.07-2.975-2.76-2.7-1-5.3 1.62-.986 7.38.021 9-.964l.5.725 1.5.239c.54 2.306 3.85 3.283 6.01 4.814 3.48.318 7.87-.44 8 2.412-3.94-.3-4.43 1.072-5 2.406 1.07 2.27 3.22 3.535 8 4.816 1.02.269 2.91-.2 4 0 3.55.655 1.63 1.309 4 1.443a22.11 22.11.0 0 0 13.01-2.892c-5.47-1.151 3.96-2.463-1-3.368 2.26-1.643 6.23-2.458 9.01-3.854-1.94-1.152-5.13-1.709-6.01-3.371.28-.993 4.43-.117 4.01-1.444-2.09-2.628 12.98-7.313 17-3.854l-1.49-.236.49.722c-.78 2.56 1.04 7.767 6 9.145 4.48-.255 7-1.445 13.02-.963-3.12-2.7 7.68-1.365 5.99-4.814-1.42-.117-1.68-.794-3-.964l.5-.482.51-.482c.05-.293.15-.569 1-.479a15.611 15.611.0 0 1-1-3.371c.77-.106 1.97-.012 1.99-.484 5.44.41 2.33 4.34 8.01 1.931 1.38 2.06 4.58 3.249 8 4.331 2.64-.141 2.12-2.841 5-1.445 2.63 1.406-2.89 1.813-2 3.853-5.26-.672-7.3 1.909-11 .485-.73 2.368-6.23 2.8-8.01 5.777 2.21 1.863 2.79 2.051 7.01 1.445.09-1.8 1.12-1.376.0-2.892 3.66.355 5.56-1.184 8 0 .67-2.568 6.41-2.7 9.01-4.33 6.1.11 5.53 3.432 9 4.811-5.66.463-11.97-1.032-15 2.411 2.32 2.17 3.55 1.882 9 2.405.4-.83-1.48-1.235.0-1.447 3.05 2.387 1.32.139 4 .964 1.65-1.616 4.85-2.477 6-4.333 5.81.322 5.64.261 10.01-.481-.16 1.524-.04 2.907 2 3.371 4.71.2 9.77 2.948 19.01 2.409 2.43-1.084 5.32-1.931 7.01-3.37-.62-.669-3.86-.073-4.01-.964 4.23-.212 4.16-2.5 7.01-3.371l.5-.244.49-.239c.87 1.423 1.5-1.116 4.01-.481-.45 1.981 3.74 1.731 6 2.409 2.56-.537 2.9-2.134 5-2.892 9.01.862 16.05.188 22.01 1.926-1.78.737.54 3.562 4 3.371 3.87.1 3.91-1.648 7.01-1.926l1.5-.239-.5-.72c7.73 1.84 14.04.861 23.01 1.44 12.25.793 23.31 3.285 33.02 1.445 1.11.745 3.25 1 3 2.41a38.594 38.594.0 0 0-14.01 1.927c.4 3.879-1.09 6.429-.99 9.145 10.47 1.223 27.23-1.556 27-9.628-4.75.035-9.54.1-9.01-2.409 3.5-.886 4.25-.095 7.01.48 9.47-.1 15.76-1.725 21.02-3.85 6.05 1.341 19.17.017 27.01 1.926 6.17-3.945 19.95-2.807 30.01-1.445 6.1-3.726 23.7-3.371 31.02-1.44l1-.242 1-.244c4.55 2.084-1.51 3.92 1 6.742 3.45.742 7.69 1.118 11.01 1.926l-.51.886 1.5.558c-1.27 1.9 2.74 1.252 4.01 1.926v5.779c5.49-.719.19 3.762 6 2.891-1.46 3.309-9.9 3.26-9.01 7.7h1l-.5.479-.5.483c-4.07 2.639-10.17.02-17 0 .26 1.8 2.16 2.807 6.99 2.409-2.93 4.328 3 5.876 3 8.661h4.01c-1.31-3.041 2.8-3.464 4-5.29-2.37-1.658-2.37-3.642.0-5.3l1.51-.241-.5-.722c6.79.215 9.82-3.926 14.01-3.367-2.77 1.5 3.15-.158 3.99.961-1.46.418-3.16.723-3 1.927 3.98 2.661-.81 2.965.0 4.33-.54-.917 4.29-.351 2 .964-.6.508-5.13-.518-5 1.449a74.417 74.417.0 0 1 7 4.146v7.405s1.14-2.074-2-2.405c-5.84.7-5.67 2.895-6.01 5.3a60.643 60.643.0 0 0 8.02 5.294L1920 86H0zM1740.9 71.225c5.6-.676 5.8-3.949 12-4.332 1.32 1.2-3.96 1.506-1 1.923 5.3 2.265 12.64 3.551 15 7.227C1758.2 79.627 1740.53 77.169 1740.9 71.225zM191.13 57.74c-.828-1.358 1.411-1.247 1-2.405 6.027-.037 8.806-.808 11 1.443C198.531 57.954 195.737 58.4 191.13 57.74zm-30.015-3.369c.9-1.811 5.2-1.989 10-1.924-.185 1.816-1.8 2.192-2 2.888C168.258 54.142 162.155 55.477 161.115 54.371zm944.465-5.3c-1-.005-1.19.391-2 .481C1100.85 48.782 1105.05 47.939 1105.58 49.076zm224.12-2.411c1.77-4.2 9.59-2.531 14-5.3 1.6.84 4.5 1.044 8.01.966-2.56-1.381 7.7-1.921 10-.966.79 1.667-1.11 2.033-2 2.892-7.62-.158-17.7-1.718-19.01 2.886C1335.95 47.506 1333.82 46.608 1329.7 46.665zM1555.8 32.7c1.92 2.063 5.78.184 7.01 2.407-2.54.7-6.38.786-6.01 2.888a30.913 30.913.0 0 1 9.01.966c-.13 1.187-.15 2.319 1 2.89-2.93-.125-3.07 1.088-6 .96 1-1.606-1.39-1.579-4.01-1.445-1.45 3.557-7.39 3.156-12 3.371a1.759 1.759.0 0 1 1-1.443c-2.41 1.638-8.18.843-11 0 .54-.7-1.18-2.49 1-2.409C1538.79 40 1548.15 34.487 1555.8 32.7zM1010.54 40.41c.29.3 2.49 1.852.0 1.926.15-.641-4.07-1.45-1.01-1.926l-.5-.888 1.51-.557c-.67-1.611-3.12-2.356-4.01-3.854 1.23-.208 2.06-.614 2-1.441 4.32-.317 5.61.831 8.01 1.441-6 3.854-5.51 4.576-5.51 4.576zm876.43-5.779c.21 1.987 6.23 1.174 7.01 2.889C1890.67 41.119 1880.62 36.879 1886.97 34.631zM414.239 32.7h6c1.6 1.15 2.46 2.3.0 3.372C418.19 36.139 413.185 35.507 414.239 32.7zm1149.571-6.26c-1.37.948-.96 2.749-2.01 3.854-7.63-.964-14.17-.358-19-1.93-.71-1.782 1.71-2.062 1-3.85a115.275 115.275.0 0 0 20.01.964l1-.242 1-.24c2.97-.336 4.93-.579 6 0-2.09.278-2.85 1.2-6 .966l-.5.723zM433.25 21.629c-4.42 2.338-10.845 8.778-17.008 3.37 3-.8 7.488-.888 9-2.406-3.091-3.429 3.2-5.6 7-7.225.221.38.839.56 2 .482C434.243 18.756 431.318 18.7 433.25 21.629zm1450.22.72.5.724c3.55.75.61-1.633 3-1.444-.64-1.177-4.68-.073-5 .481zm-233.11-.479 1.49-.241q-1.26-1.075-5-.962c-.78 1.657.55 2.3 4.01 1.926zm-81.05-6.421 1.5-.56c-1.54-1.325-6-.048-7 .479.81 1.021 4.12 1.878 6.01.964zm-99.05 9.311.51-.722c-.17-.562.21-.859.99-.965-1.25-.88-5.85.679-7 1.445.62 1.467 2.22 2.463 6.01 2.41l-.51-.886 1.5-.561V24.518zM1404.23 25l.5-.481c-1.76-.437-1.83-1.686-3-2.408-5.2-.02-7.89-.492-10.01-2.887-2.66.317-3.66 1.444-5 2.406-.89 1.557 3.27.674 4 1.444-1.18.716-.87 2.15-4 1.926 3.87 1.649 14.14 3.823 17.01.483zm-12.01 5.782.5.479a10.459 10.459.0 0 1 4-.479c-1.88-1.615-4.03-.307-8-.483a9.8 9.8.0 0 0 3 .962zM1290.67 50.519h1.01c1.65-.8 2.62-1.95 6-1.922-.56-2.253-4.39-4.013-2-6.261-3.74.3-5.73.757-7.01-.966 2.39-1.1 9.51.078 9.01-2.405-11.37.1-21.78-1.824-21.01-7.7.35-2.734 6.93-4.625 5-7.222-6.49.835-11.23-.34-16.01.961.13 2.155-2.2 3.113-4 4.333 4 2.768.57 5.079-6 5.3.42 1.081 5.31.012 6 .966-.02 2.075-4.99 1.772-5 3.85a26.5 26.5.0 0 1 10 3.851c2.71-1.355 2.49-.381 6 0 .11-1.877 4.35-1.76 8.01-1.928.28 1.1-.24 1.809-2 1.928l.5.884-1.5.559c1.32.844 6.01 2.537 6 0 1.32.171 1.57.85 3 .966-1.38 1.74-8.74.6-12 1.441 2.23 1.552 5.57 2.121 10 1.449 1.34 2.112 2.24 1.46 6 2.406V50.519zM893.475 27.41h1c-1.473-1.835 4.472-.1 3-1.928-4.776-.428-7.249-1.968-10-3.371-8.357-.384-12.282 2.977-7 5.3a22.382 22.382.0 0 1 13 .479V27.41zm-610.8-2.65.5-.722c-1.374-1.245-6.131-.108-8.006.0-3.135-.335-1.3-1.287-1-2.409-4.511-.408-5 1.13-8 1.444.987 2.064 2.372 3.2 1 5.3l1.5-.239-.5.725a13.125 13.125.0 0 0 6 2.887c.321-2.094 4-2.575 8.007-2.887l-.5-.725 1.5.239c.092-1.8 1.122-1.371.0-2.887.852.085.943-.188 1-.483zM172.621 44.5l.5.722a36.027 36.027.0 0 1 7-2.89l-1.5-.239.5-.727c-2.977-.651-3.771-2.355-6-3.371-5.173.656-1.94 2.513-8 2.89-.728 1.472 1.723 1.416 1 2.891 3.732-.82 1.583.283 5 .481zm60.528-16.615c.748 1.086 5.614.187 8 .48-1.083-1.23 3.042-2.294.0-2.887-2.677 1.723-3.15.2-7-.964-1.772 1.414-1.362 1.629-2 2.892h1v.479zM1294.68 24.518c4.57.625 7.72-2.019.0.0h0zM146.606 41.067a2.606 2.606.0 0 0-.394.032 20.936 20.936.0 0 1-2.465.249c-.8.049-1.618.1-2.469.222-.6.092-.938.389-.758.681a1.568 1.568.0 0 0 1.409.364c.677-.095 1.373-.142 2.106-.186A25.6 25.6.0 0 0 147 42.12c.586-.1.884-.417.667-.7A1.418 1.418.0 0 0 146.606 41.067zm2-.192h-2c-.844.0-1.525.332-1.525.739s.681.735 1.525.735h2c.845.0 1.529-.332 1.529-.735S149.453 40.875 148.608 40.875zm7.861-.146c-.086.0-.169.0-.257.011-.416.037-.846.061-1.286.088-.864.057-1.756.111-2.678.219-.831.1-1.349.5-1.146.895a1.989 1.989.0 0 0 1.87.556c.764-.09 1.576-.139 2.362-.194.475-.027.944-.059 1.392-.095.847-.068 1.416-.454 1.27-.86A1.644 1.644.0 0 0 156.469 40.729zM136.6 37.782a1.348 1.348.0 0 0-.844.244 3.014 3.014.0 0 0-1.106 2.906 1.019 1.019.0 0 0 1.035.417c.523-.024.907-.249.863-.5a2.479 2.479.0 0 1 .892-2.392c.245-.224.069-.505-.4-.62A1.75 1.75.0 0 0 136.6 37.782zm-1.521 2.643a37.781 37.781.0 0 0-3.856.254 33.8 33.8.0 0 1-3.611.234.929.929.0 0 0-.97.452.829.829.0 0 0 .93.462 35.353 35.353.0 0 0 4.043-.249 28.914 28.914.0 0 1 3.926-.231.932.932.0 0 0 1.007-.432c.032-.256-.364-.468-.89-.485C135.467 40.426 135.274 40.425 135.083 40.425zm1177.1 1.189a1.826 1.826.0 0 0-.51.07 13.806 13.806.0 0 1-2.05.342l-.69.084c-.54.07-.85.334-.71.586a1.294 1.294.0 0 0 1.22.343l.67-.084a16.465 16.465.0 0 0 2.59-.448c.48-.139.63-.435.34-.661A1.457 1.457.0 0 0 1312.18 41.614zm-1-4.032a2.4 2.4.0 0 0-.88.156 8.8 8.8.0 0 1-1.89.389 10.32 10.32.0 0 0-3.21.8l-.48.249.15.335a5.678 5.678.0 0 0 .82 1.135 4.142 4.142.0 0 1 .65.867 1.761 1.761.0 0 0 1.63.5c.74-.082 1.21-.424 1.05-.779a4.989 4.989.0 0 0-.8-1.086c-.15-.183-.3-.36-.43-.523.39-.1.86-.165 1.38-.237a12 12 0 0 0 2.9-.649c.58-.234.65-.649.15-.923A2.168 2.168.0 0 0 1311.18 37.582zM94.083 39.537a.8.8.0 0 0-.8.35c-.051.215.272.4.721.429.191.008.44.037.732.063a26 26 0 0 0 2.844.174h.008A.742.742.0 0 0 98.4 40.17a.724.724.0 0 0-.807-.391 24.677 24.677.0 0 1-2.519-.163c-.362-.037-.665-.066-.906-.076A.761.761.0 0 0 94.083 39.537zM1040.05 25.363a1.845 1.845.0 0 0-1.31.424c-.3.344.05.74.77.886.93.183 1.58.327 2.23.471l.73.161a2.231 2.231.0 0 0 1.87-.338c.32-.343.01-.746-.71-.9l-.7-.157c-.69-.148-1.37-.3-2.35-.491A2.618 2.618.0 0 0 1040.05 25.363zm11.01 10.9a1.376 1.376.0 0 0-1.05.356c-.2.277.11.578.69.676a16 16 0 0 1 3.74 1.216 14.643 14.643.0 0 0 7.82 1.45c.6-.047 1-.326.89-.611a1.33 1.33.0 0 0-1.29-.431 11.027 11.027.0 0 1-5.97-1.206 18.656 18.656.0 0 0-4.47-1.423A2.606 2.606.0 0 0 1051.06 36.267zm-69.8 1.84a7.423 7.423.0 0 0-2.37.44 4.174 4.174.0 0 1-1.72.3.939.939.0 0 0-.9.286c-.082.2.187.389.6.432a6.736 6.736.0 0 0 2.864-.4 4.573 4.573.0 0 1 1.7-.313.856.856.0 0 0 .857-.323c.051-.2-.251-.382-.665-.41C981.493 38.109 981.375 38.107 981.26 38.107zm-877.791-.623c-.8.0-1.607.02-2.424.1-.572.051-.948.32-.833.6a1.307 1.307.0 0 0 1.244.4 27.168 27.168.0 0 1 2.934-.069c.583.0 1.162.01 1.739-.005a.887.887.0 0 0 1.018-.532 1.014 1.014.0 0 0-1.1-.486c-.538.012-1.078.0-1.62.0C104.11 37.489 103.79 37.484 103.469 37.484zm78.248-3.435h-.1a.621.621.0 0 0-.7.347.646.646.0 0 0 .718.334 10.313 10.313.0 0 1 2.952.444l.24.061a.686.686.0 0 1-.189.646 2.3 2.3.0 0 0-.209.374c-.071.186.185.364.566.395a.847.847.0 0 0 .826-.273 2.731 2.731.0 0 1 .167-.3.844.844.0 0 0 .017-1.245l-.1-.093-.631-.163A12.38 12.38.0 0 0 181.717 34.049zm933.373.461a1.161 1.161.0 0 0-.58.132 2.167 2.167.0 0 0-1.02 1.267 3.262 3.262.0 0 1-.13.322c-.1.2.15.389.55.437a.984.984.0 0 0 .91-.269c.05-.11.1-.236.15-.354a1.643 1.643.0 0 1 .69-.94c.27-.151.23-.379-.09-.508A1.247 1.247.0 0 0 1115.09 34.509zm125.06.542h-3a.568.568.0 0 0-.63.3.566.566.0 0 0 .63.3h3a.559.559.0 0 0 .62-.3A.561.561.0 0 0 1240.15 35.051zm-170.79-9.279a67.438 67.438.0 0 0-8.5.537c-.43.054-.69.267-.58.47a1.045 1.045.0 0 0 .98.286 65.129 65.129.0 0 1 10.76-.474.806.806.0 0 0 .85-.361c.03-.214-.3-.4-.75-.417C1071.16 25.787 1070.25 25.771 1069.36 25.771zm550.98-10.2a1.349 1.349.0 0 0-1.01.344c-.2.269.1.566.65.657a18.119 18.119.0 0 0 5.68.009c.56-.084.88-.371.7-.642a1.488 1.488.0 0 0-1.34-.342 13.737 13.737.0 0 1-4.33.007A2.021 2.021.0 0 0 1620.34 15.575zm10 .418a2.326 2.326.0 0 0-.68.1c-.54.178-.68.541-.31.8l.5.34c.48.339.98.681 1.46 1.071a2.035 2.035.0 0 0 1.65.2c.56-.164.75-.516.41-.793-.52-.415-1.04-.777-1.56-1.134l-.48-.337A1.775 1.775.0 0 0 1630.34 15.994zM230.652 21.1h-.085c-.335.022-.57.168-.526.331l.066.273a1.784 1.784.0 0 0 .5 1.032 1.032 1.032.0 0 0 .832.122c.3-.078.406-.258.249-.4a1.52 1.52.0 0 1-.364-.82l-.07-.287A.631.631.0 0 0 230.652 21.1zM1606.33 16.388a2.543 2.543.0 0 0-.83.132l-.22.08a7.209 7.209.0 0 1-2.16.518c-.76.054-1.28.4-1.16.759a1.59 1.59.0 0 0 1.58.559 11.372 11.372.0 0 0 3.42-.776l.2-.073c.61-.222.74-.638.28-.931A2.129 2.129.0 0 0 1606.33 16.388zm38.02-2.492h-2a.953.953.0 0 0-1.06.508.949.949.0 0 0 1.06.513h2a.957.957.0 0 0 1.06-.513A.962.962.0 0 0 1644.35 13.9zm254.13 37.587a1.463 1.463.0 0 0-.86.229c-.29.226-.13.523.33.666a13.561 13.561.0 0 1 1.84.657 1.8 1.8.0 0 0 1.41-.017c.38-.191.36-.5-.03-.676a16.918 16.918.0 0 0-2.17-.789A1.985 1.985.0 0 0 1898.48 51.483zm-.01-20.656a2.59 2.59.0 0 0-.77.113c-.82.262-1.58.564-2.26.83-.28.115-.56.224-.82.324-.61.227-.72.654-.25.944a2.55 2.55.0 0 0 1.97.117c.27-.105.57-.22.87-.346.66-.256 1.34-.522 2.03-.745.65-.21.82-.627.39-.933A2.04 2.04.0 0 0 1898.47 30.827zm-15-9.047a1.7 1.7.0 0 0-1.02.276 2.091 2.091.0 0 0-.66 1.179c-.1.313.36.6 1.01.645a1.371 1.371.0 0 0 1.35-.486 1.823 1.823.0 0 1 .34-.75c.33-.266.15-.62-.41-.786A2.249 2.249.0 0 0 1883.47 21.78zm-182.09 1.245a1.193 1.193.0 0 0-1.08.434c-.11.284.28.561.88.615a7.735 7.735.0 0 1 2.52.616 1.97 1.97.0 0 0 1.53-.082c.39-.229.3-.561-.17-.742a11.217 11.217.0 0 0-3.48-.83C1701.51 23.031 1701.45 23.025 1701.38 23.025zm-50.51-1.5c-.22.0-.42.005-.62.02-.37.029-.63.193-.58.378a.808.808.0 0 0 .78.275 11.59 11.59.0 0 1 3.56.444 1.179 1.179.0 0 0 .94-.122c.19-.159.08-.363-.26-.452A15.048 15.048.0 0 0 1650.87 21.523zm-81.56-6.728a1.5 1.5.0 0 0-1.32.511c-.18.349.28.7 1.02.782l.81.1c1.08.122 2.2.248 3.32.317a1.487 1.487.0 0 0 1.52-.567c.1-.361-.43-.691-1.18-.737-.98-.056-1.97-.173-3.03-.292l-.83-.1C1569.51 14.8 1569.41 14.795 1569.31 14.795zm-19-1.9a1.014 1.014.0 0 0-.53.129c-.21.134-.15.324.13.432a23.347 23.347.0 0 0 2.63.758 1.008 1.008.0 0 0 .85-.156c.15-.158.0-.341-.32-.412a20.2 20.2.0 0 1-2.38-.689A1.149 1.149.0 0 0 1550.31 12.892zm-56.04.9a2.311 2.311.0 0 0-.26.016c-1.99.2-4.58.837-5.86 2-.33.3-.1.665.52.832a2.122 2.122.0 0 0 1.73-.258 8.113 8.113.0 0 1 4.14-1.374c.69-.071 1.13-.4.98-.728A1.4 1.4.0 0 0 1494.27 13.793zm-22.34 10.22a4.306 4.306.0 0 0-2.17.537c-.24.141-.2.34.07.452a1.21 1.21.0 0 0 .94-.041c.9-.5 1.74-.319 3.16.046.27.073.54.145.82.2a2.814 2.814.0 0 1-1.12 1.394c-.25.13-.23.334.04.452a1.225 1.225.0 0 0 .94-.022 3.5 3.5.0 0 0 1.5-1.819l.18-.4-.56-.1c-.36-.06-.75-.163-1.17-.268A10.467 10.467.0 0 0 1471.93 24.013zm8.34 19.132a1.447 1.447.0 0 0-.53.093 2.361 2.361.0 0 0-1.26 1.157c-.12.21.13.424.57.481a1.108 1.108.0 0 0 1.01-.272 1.523 1.523.0 0 1 .73-.764c.35-.135.4-.386.11-.554A1.323 1.323.0 0 0 1480.27 43.145zm-18.01-9.476a1.436 1.436.0 0 0-1.5.678 2.95 2.95.0 0 1-.3.847c-.18.39.33.776 1.14.862a1.887 1.887.0 0 0 1.79-.549 3.8 3.8.0 0 0 .37-1.076c.04-.4-.58-.742-1.41-.762h-.09zM1445.25 35.6a3.186 3.186.0 0 0-.48.033c-.79.129-1.21.539-.94.919a8.192 8.192.0 0 0 .81.907 6.369 6.369.0 0 1 .55.574 2.305 2.305.0 0 0 1.95.4c.77-.149 1.15-.569.84-.94-.19-.225-.41-.449-.63-.667a6.213 6.213.0 0 1-.68-.742A1.83 1.83.0 0 0 1445.25 35.6zm-39.79-11.119q-.645.0-1.26.008a.919.919.0 0 0-1.04.527 1.01 1.01.0 0 0 1.1.5 27.059 27.059.0 0 1 4.63.212 1.532 1.532.0 0 0 1.35-.321c.19-.271-.11-.561-.67-.655A25.646 25.646.0 0 0 1405.46 24.478zm-13.24 6.054a.542.542.0 0 0-.51.214 2.535 2.535.0 0 1-.93 1.112c-.15.12-.06.268.19.339a.9.9.0 0 0 .7-.086 2.928 2.928.0 0 0 1.07-1.3c.03-.135-.17-.261-.45-.278h-.07zM1278.46 43.488a10.39 10.39.0 0 0-1.76.13c-.74.126-1.13.511-.87.869a2.065 2.065.0 0 0 1.8.416 7.59 7.59.0 0 1 1.45-.043 1.415 1.415.0 0 0 1.5-.638c.05-.378-.55-.7-1.33-.724C1278.99 43.492 1278.72 43.488 1278.46 43.488zm12.21 6.726a1.256 1.256.0 0 0-.2.019c-.33.053-.51.222-.4.381l.15.233a4.7 4.7.0 0 0 1.44 1.535 1.124 1.124.0 0 0 .88.07c.29-.1.36-.288.15-.424a4.034 4.034.0 0 1-1.25-1.36l-.16-.242A.788.788.0 0 0 1290.67 50.214zm-34.18-9.967a2.037 2.037.0 0 0-.32.022c-.42.056-.87.105-1.32.157-2.13.249-4.55.53-6.06 1.5l-.39.256.24.289a7.183 7.183.0 0 0 1.82 1.4c.23.146.48.3.75.481a2.122 2.122.0 0 0 1.64.12c.52-.186.63-.537.25-.79-.28-.186-.54-.344-.78-.495a10.059 10.059.0 0 1-1.2-.83 16.831 16.831.0 0 1 4.28-.839c.48-.054.95-.108 1.41-.168.62-.09.98-.4.81-.694A1.368 1.368.0 0 0 1256.49 40.247zm-26.7 1.03c-1.33.0-2.68.1-3.91.193l-.84.063c-.37.025-.62.186-.57.364a.766.766.0 0 0 .77.274l.85-.061c2.61-.2 5.55-.415 7.49.359a4.061 4.061.0 0 1-2 1.625 15.952 15.952.0 0 0-4.11.937l-.16.1.01.125a1.778 1.778.0 0 0 1.49 1.213 1.168 1.168.0 0 0 .93-.127c.18-.158.06-.354-.27-.442a1.128 1.128.0 0 1-.77-.54 19.766 19.766.0 0 1 3.38-.664l.18-.02.13-.059c1.5-.707 2.36-1.454 2.59-2.221l.05-.161-.25-.117A12 12 0 0 0 1229.79 41.277zM1048.05 44a1.607 1.607.0 0 0-.83.205c-.33.219-.23.532.23.691a9.381 9.381.0 0 0 3.1.344 6.616 6.616.0 0 1 1.94.151 1.814 1.814.0 0 0 1.42-.137c.31-.227.18-.537-.28-.689a10.193 10.193.0 0 0-3.1-.315 6.03 6.03.0 0 1-1.87-.151A1.877 1.877.0 0 0 1048.05 44zm2 1.767h-.04a25.935 25.935.0 0 0-3.19.257c-.46.059-.73.288-.6.512a1.17 1.17.0 0 0 1.06.288 24.115 24.115.0 0 1 2.82-.227c.48-.008.85-.207.82-.437A.828.828.0 0 0 1050.05 45.771zM942.892 30.132c-1.139.0-2.234.069-3.3.14-1.216.085-2.363.158-3.513.125a1.283 1.283.0 0 0-1.366.583c-.042.342.5.637 1.205.656a39.993 39.993.0 0 0 4.031-.132 32.835 32.835.0 0 1 3.912-.108 1.392 1.392.0 0 0 1.425-.548c.081-.344-.427-.647-1.14-.689C943.72 30.142 943.3 30.132 942.892 30.132zM893.48 27.112a.835.835.0 0 0-.564.169c-.142.154-.01.33.3.4a17.093 17.093.0 0 0 2.639.293 7.4 7.4.0 0 1 3.15.591 1.139 1.139.0 0 0 .877.032c.257-.108.289-.3.066-.42a9.378 9.378.0 0 0-3.951-.8 13.705 13.705.0 0 1-2.265-.244A1.3 1.3.0 0 0 893.48 27.112zM328.7 4.169a1.926 1.926.0 0 0-1.284.393c-.339.339-.041.746.666.911a19.286 19.286.0 0 0 5.365.175c2.674-.166 3.661-.162 4.265.583a2.142 2.142.0 0 0 1.848.385c.732-.139 1.09-.534.8-.884-1.472-1.8-4.831-1.6-7.278-1.445a14.947 14.947.0 0 1-3.77-.046A2.654 2.654.0 0 0 328.7 4.169zM311.754 9.491a21.563 21.563.0 0 0-5.42.879c-.465.117-.692.4-.443.626a1.455 1.455.0 0 0 1.237.2c2.466-.623 4.342-1.1 6.644-.559a1.521 1.521.0 0 0 1.273-.208c.228-.227.035-.5-.437-.606A12.045 12.045.0 0 0 311.754 9.491zm-30.078 3.383a2.492 2.492.0 0 0-.371.026 61.545 61.545.0 0 0-10.522 2.7c-5.049 1.623-9.826 3.156-14.594 2.563a1.147 1.147.0 0 1 .332-.966c.132-.017.264-.034.4-.054a12.374 12.374.0 0 1 1.725-.162h.023a1.223 1.223.0 0 0 1.35-.649c0-.36-.6-.651-1.346-.652a17.6 17.6.0 0 0-2.515.217c-.234.03-.471.067-.718.1l-.278.035-.227.085a1.964 1.964.0 0 0-1.274 2.691l.162.351.7.117c6.3 1.1 12.128-.776 17.768-2.587a58.6 58.6.0 0 1 9.758-2.534c.719-.1 1.137-.459.933-.808A1.6 1.6.0 0 0 281.676 12.873zm9 8.484a1.282 1.282.0 0 0-1.019.359 8.7 8.7.0 0 1-2.544 2.108c-.112.075-.22.149-.329.22-.122.0-.247.0-.372.0a22.874 22.874.0 0 0-4.105.239c-.555.1-.843.39-.638.652a1.572 1.572.0 0 0 1.368.313 18.9 18.9.0 0 1 3.346-.174c.339.0.672.0.975.0l.53-.008.948-.629a9.659 9.659.0 0 0 2.859-2.409c.174-.276-.137-.563-.7-.646A2.078 2.078.0 0 0 290.679 21.357zm-34.14 5.007-.629.153c-.484.108-.931.254-1.359.391a6.957 6.957.0 0 1-2.331.473 1.026 1.026.0 0 0-1.114.481c-.034.278.41.517.994.534a10.124 10.124.0 0 0 3.624-.642l.538-.172a26.318 26.318.0 0 0 12.827 1.013c.535-.11.78-.412.545-.668a1.641 1.641.0 0 0-1.39-.261 22.122 22.122.0 0 1-11.18-1.075zm25.137 1.394a1.036 1.036.0 0 0-.7.219c-.175.183.0.4.381.491a46.269 46.269.0 0 0 10.206.546c1.08-.02 2.128-.039 3.11-.034a.722.722.0 0 0 .775-.363.672.672.0 0 0-.755-.372c-1.009-.01-2.082.012-3.191.036a43.327 43.327.0 0 1-9.507-.486A1.694 1.694.0 0 0 281.676 27.759zm24.7.737a14.431 14.431.0 0 0-1.488.093 5.749 5.749.0 0 1-.994.051 1.217 1.217.0 0 0-1.152.351c-.117.247.206.5.729.556a8.517 8.517.0 0 0 1.81-.049 6.1 6.1.0 0 1 2.007.02 1.532 1.532.0 0 0 1.275-.232c.217-.237.0-.508-.484-.613A7.775 7.775.0 0 0 306.38 28.5zm-17.7 6.995a1.029 1.029.0 0 0-.616.164c-.208.166-.1.377.242.477a14.34 14.34.0 0 0 4.713.331 11.269 11.269.0 0 1 3.315.157 1.216 1.216.0 0 0 .98-.137c.2-.168.071-.378-.281-.471a13.554 13.554.0 0 0-4.147-.239 11.8 11.8.0 0 1-3.828-.236A1.5 1.5.0 0 0 288.678 35.49zm-61.533 9.454a1.067 1.067.0 0 0-1.075.472 2.358 2.358.0 0 1-.449.842c-.191.278.117.57.681.664a1.567 1.567.0 0 0 1.371-.33 2.964 2.964.0 0 0 .552-1.084c.052-.283-.388-.539-.982-.56A.91.91.0 0 0 227.145 44.944zm-40.018-4.613a1.866 1.866.0 0 0-.85.184 12.16 12.16.0 0 1-4.762.788c-1.064.05-2.168.1-3.227.261-.611.084-.955.394-.769.691a1.6 1.6.0 0 0 1.443.369c.841-.123 1.784-.164 2.779-.211 2.092-.1 4.458-.214 6.237-1.149.432-.225.4-.578-.071-.783A1.985 1.985.0 0 0 187.127 40.331zm-14.506 3.557a1.759 1.759.0 0 0-1.141.338l-1 .962c-.318.3-.064.674.569.826a2.071 2.071.0 0 0 1.709-.278l1-.96c.316-.308.059-.673-.569-.823A2.57 2.57.0 0 0 172.621 43.889zM64.568 37.057a1.034 1.034.0 0 0-.947.378c-.1.252.249.495.77.54a120.668 120.668.0 0 0 14.161.163 128.37 128.37.0 0 1 12.883.079 1.107 1.107.0 0 0 1.095-.388c.08-.254-.281-.488-.806-.528a131.414 131.414.0 0 0-13.282-.085 116.032 116.032.0 0 1-13.7-.151A1.254 1.254.0 0 0 64.568 37.057zm943.462 1.724a1.784 1.784.0 0 0-1.48.549c-.23.4.26.8 1.08.912.75.1 1.46.142 2.24.183a1.667 1.667.0 0 0 1.7-.657c.09-.407-.52-.776-1.37-.818-.67-.038-1.22-.071-1.76-.138A2.966 2.966.0 0 0 1008.03 38.781zm172.59 1.274a.893.893.0 0 0-.71.251c-.32.509-.54 1.2.61 1.989a1.275 1.275.0 0 0 1.02.092c.33-.11.42-.334.18-.495-.81-.564-.63-1.006-.4-1.38.13-.192-.1-.389-.49-.444A1.509 1.509.0 0 0 1180.62 40.055zm383.19-15.329a1 1 0 0 0-1.07.5 2.865 2.865.0 0 0 .54 1.6 1.4 1.4.0 0 0 1.31.364c.57-.072.91-.361.76-.635a2.447 2.447.0 0 1-.46-1.292.934.934.0 0 0-1.05-.53h-.03zm-93.55.578a2.009 2.009.0 0 0-1.41.451c-.33.374.03.809.81.969.4.08.81.176 1.21.274a20.713 20.713.0 0 0 2.98.551 1.824 1.824.0 0 0 1.78-.593c.15-.4-.4-.788-1.23-.862a16.42 16.42.0 0 1-2.17-.422c-.46-.11-.91-.215-1.37-.308A2.935 2.935.0 0 0 1470.26 25.3zM266.668 43.233h-2a.567.567.0 0 0-.633.307.572.572.0 0 0 .633.3h2a.571.571.0 0 0 .632-.3A.567.567.0 0 0 266.668 43.233zM233.149 27.107a1.154 1.154.0 0 0-.244.023 31.434 31.434.0 0 1-10.564.471.9.9.0 0 0-.792.193c-.109.159.071.329.4.383a33.229 33.229.0 0 0 11.447-.491c.322-.063.468-.239.332-.4A.819.819.0 0 0 233.149 27.107zm1419-11.794-.9.043c-.57.021-.98.266-.93.544a1.111 1.111.0 0 0 1.13.444h.18a.018.018.0 0 1 .01.018.38.38.0 0 1-.17.442c-.29.236-.15.544.35.684a1.777 1.777.0 0 0 1.43-.176.952.952.0 0 0 .38-1.23 1.883 1.883.0 0 0-1.21-.7zM286.676 6.333a2.721 2.721.0 0 0-.576.061c-.267.069-.536.125-.787.183-.5.11-.968.213-1.356.339-.58.195-.733.574-.335.855a2.264 2.264.0 0 0 1.772.161c.212-.071.591-.151.987-.242.278-.063.572-.127.872-.2.626-.153.877-.522.56-.825A1.766 1.766.0 0 0 286.676 6.333z"/></svg>