<svg preserveAspectRatio="none" xmlns="http://www.w3.org/2000/svg" width="1920" height="110.969" viewBox="0 0 1920 110.969"><defs><style>.cls-1{fill:#f6f6ed;fill-rule:evenodd}</style></defs><path id="Vorm_17" data-name="Vorm 17" class="cls-1" d="M909.489 13.654c4.643-.471 6.037.627 9 .964.041.821-.745 1.249-2 1.441 4.834 1.724 10.815 2.521 10.006 5.779-4.391.617-6.507 2.326-8 4.333-4.009-.319-7.238-1.011-11.008-1.447v-2.4c1.794.059 2.111-.591 4-.482-3.229-1.592-1.445-4.331 2-5.3C911.716 15.789 908.158 15.9 909.489 13.654zm478.231.481c-1.18.329-7.31 1.987-7 0C1382.94 13.02 1384.62 14.3 1387.72 14.135zm-374.18 6.74a36 36 0 0 0-8 3.85c-3.17.081-3.35-1.277-7.007-.958-.284-.841 3.2-2.588-1-2.41 2.509-.935 1.8-1.5 1-3.368 3.7.334 4.417-.764 4.007-2.408 3.12-.649 9.2-.847 11 .479-3.44 1.823-5 2.805 1 3.854l-1.5.242zM801.433 17.989c6.162-2.837 9.548-.954 16.009.479-1.249 1.167-4.1 1.559-7 1.926-2.5-.561-3.85-1.677-8-1.443l.5-.723zm52.025.962c-1.775 2.737 2.253 2.781.0 5.3-6.643 1.2-13.208.11-16.008-1.926 2.67-1.128 2.836-3.45 5.008-4.815a40.261 40.261.0 0 1 11 .483l-.5.479zm7.507.239-.5-.721h7l-.5.483.5.479c-.866 2.123-7.285 1.352-8-.479zM750.409 21.356c-5.383 1.854-15.64-.71-13.01-3.85 3.721 1.419 12.079.608 14.01 2.888l-1.5.242zm212.106-3.85c4.622-.3 4.189 1.836 6 2.888-2.663.0-5.716.184-7-.481A2 2 0 0 1 962.515 17.506zm156.075.483c.73 1.311-1.99.967-2 1.924-2.83.4-2.59-.677-5-.483A33.375 33.375.0 0 1 1118.59 17.989zm-550.271 3.85c-1 3.153-8.419 1.287-10-.483C559.507 19.494 566.584 21 568.319 21.839zm-46.025.482c-1.048 1.577.645 2.122-2 3.367a12.452 12.452.0 0 0-5-.479c.491-1.519-1.8-1.7-1-3.37C516.984 21.31 519.421 21.747 522.294 22.321zm80.043-.965c-.131.865 1.225 1.018 1 1.927-3.46-.389-4.222.9-6 0C598.132 22.225 599.337 21.362 602.337 21.356zm225.11.965c-.286-.767 5.4-.675 3 .48C830.832 22.616 827.435 22.286 827.447 22.321zm145.073.0c.173 1.955-6.811 1.674-7.006.0C967.19 21.471 968.867 22.747 972.52 22.321zm-518.259.48c3.41-.034 2.962 1.785 3 3.371-2.414 1.6-10.5 1.141-12-.483C444.474 22.906 452.945 24.576 454.261 22.8zM794.43 23.284c4.64 2.886 11.126 2.793 17.01 4.336-10.285 1.224-20.348 2.653-32.016 2.4-1.7-.175-1.892.377-2 .968-3.01-.161-1.178-2.651-4-2.893.477-2.749 3.756-1.5 3-4.331 2.4-1.121 9.841-1.515 12 0C791.485 24.113 791.368 22.935 794.43 23.284zm250.12.483c-1.5.559-2.44 1.389-5 1.443a1.761 1.761.0 0 1-1-1.443A9.379 9.379.0 0 1 1044.55 23.766zm-617.3.958c-1.605.884-5.9 1.391-6-.477C423.35 23.191 425.692 24.147 427.248 24.725zM611.342 27.62c-4.708 1.224-9.18 2.461-14 2.4-3.7-1.721 5.66-2.317-1.007-2.4 2.862-2.071 4.555-2.145 7-3.853 3.622.662 6.059 1.9 9 2.888l-1.5.24zM436.254 24.725c.124-1.06 4.242-.2 6-.477C442.131 25.31 438.011 24.454 436.254 24.725zm288.14.485c-.179 1.48-5.387 1.011-5-.485C721.476 23.682 722.626 24.786 724.394 25.209zm-241.119.479c.181.412-.391.456-1 .483-.012 1.28.378 2.749-1 3.371-2.412-.2-2.174.88-5 .479-3.6-2.5-3.951-5.995 6-5.3l-.5.725zm52.03.0c2.374.3 4.657.649 5 1.931C537.276 28.621 533.191 26.961 535.3 25.689zm30.015.483c-.618.427-1.211.862.0.962-.787 1.108-6.2.467-5-.962A12.554 12.554.0 0 1 565.32 26.172zm276.136.0c4.837-.6 8.013 1.2 6 2.406C843.671 28.633 842.078 27.638 841.456 26.172zm165.084.0c3.15.083 5.96.338 6 1.926-2.14 1.631-5.45-1.046-6 0C1003.54 27.781 1007.49 27.069 1006.54 26.172zM944.5 27.62c4.335.2-1.053 2.792.0.0h0zM955.511 28.1h4c.457 1.5-2.134 1.538-5 1.445A1.755 1.755.0 0 0 955.511 28.1zm14.008.962c2.178-.084 3.182.4 3 1.445C971.589 29.991 968.829 30.354 969.519 29.059zm-671.335.963c-3.02 3.135 3.6.837 2 4.334-3.748.718-3.024.791-8 .481.223-1.551-1.769-2.036-1-3.846C294.656 31.154 294.978 28.539 298.184 30.022zm220.11 1.927c-3.179.717-5.637 1.784-10 1.926-4.555-3.281 5.594-5.877 10-3.371l-.5.725zM234.152 30.99c3.787-1.48 9.638.155 12.01.959a8.918 8.918.0 0 1-4 1.926C238.654 33.312 236.947 31.89 234.152 30.99zM606.336 30.5c3.079.928 8.306.816 8 3.371a50.424 50.424.0 0 1-15 .481C600.368 32.449 604.674 32.11 606.336 30.5zm-348.172.486c1.782.351.146.869.0 1.438C256.383 32.077 258.021 31.554 258.164 30.99zm-40.018 3.846c-1.024 1.074-4.6-.628-8 0-1.209-2.584 7.767-2.317 9-.962l-1.5.241zm245.12 1.447c4.015.471 10.227-.107 11.006 1.928-6.6.351-10.749 1.887-18.01 1.923-.2-2.47-3.386-3.508-4-5.778C455.642 33.238 463.51 33.153 463.266 36.283zM1573.81 33.392c-.12.864 1.23 1.017 1 1.928-1.92.933-4.02-.505-7-.483C1568.66 33.8 1570.28 33.136 1573.81 33.392zM585.327 35.8c-9.684.569-17.57 4.906-26.013 1.924.164-1.362 1.833-2 2-3.369a181.714 181.714.0 0 1 23.008.0l-.5.884zm334.163.0v1.924c-1.622.728-7.378.728-9 0C908.668 34.86 916.689 34.923 919.49 35.8zM535.3 38.686c-4.786 3.694-20.386 5.493-28.017 2.41 1.92-1.6 7.592-.642 14.007-.963-.006-2.507 4.542-5.351 10.007-3.85C532.848 36.708 531.668 39.174 535.3 38.686zM497.281 43.5c-6.081.285-10.551 1.343-13 3.371-1.783-1.636-8.751.3-12-1.445-3.173-6.894 11.771-10.657 27.012-8.665l-.5.883 1.5.565c-3.891.925-3.136 3.269-1 4.81l-1.5-.238zm5.5 1.2.5-.718c8.084-.523 11.216 1.342 17.005 1.923-7.58 4.695-28.014 3.21-39.016 6.26-3.183-.738-4.4-.169-8 0l.5-.884-1.5-.561c-1.02-2.1 2.07-2.214 3-3.371 12.5.247 19.521 1.7 26.014-2.887zM1764.91 36.763c3.66.327 1.81 3.313.0 3.852-3.73.515-2.85-1.2-6-.962-.42-1.159 1.82-1.047.99-2.407C1761.36 36.981 1765.08 37.806 1764.91 36.763zm33.01 2.407c-5.85-.088-9.2 1.026-13 1.927-.73-1.092-3.01-1.441-5-1.927C1780.53 35.834 1796.44 36.242 1797.92 39.17zm-27.01-1.445c2.1-.2 2.66.33 4.01.486-.25.847-1.73 1.094-4.01.959V37.725zm-873.433.486h2c.279.772-.945.827-1 1.442h-2C896.2 38.875 897.423 38.825 897.477 38.211zm19.014.959c3.936 1.553-4.753 3.675-6 1.445C911.393 39.606 916.134 40.443 916.491 39.17zm-666.33 5.3c.422 1-.683 1.273-1 1.922l-1.5.242.5.723c-5.266-.61-5.933 1-10.007.966a2.812 2.812.0 0 0-2-.966c-.841-2.172 2.341-2.4 3-3.853 3.71.593 5.86 1.345 9 0l.5.725zm-43.022-1.931c1.493-.993 8.656-.661 8.006.965-4.079.4-3.446.075-8.006.0C207.755 43.075 208.349 42.643 207.139 42.537zm23.01.484c-.433.593-1.278.992-3 .967C227.583 43.392 228.431 43 230.149 43.021zM209.14 44.468c4.857 1.353 14.574.367 14.008 4.332a37.194 37.194.0 0 0-8 .961C214.211 47.482 209.1 47.213 209.14 44.468zM1920 111l-.01-7.8s-7.96-1.788-8.01-4.336c1.32-2.083 8.01-1.922 8.01-1.922v-41.4s-13.48-6.2-21.01-10.591c-3.71-.293-5.81-.8-8.01.477-.34 3.533 8.29 2.757 10.01 5.3a12.4 12.4.0 0 1-6.01 1.926c-2.92-1.482-5.42-3.164-10-3.852l.36.861-1.37.583c.32 1.133 1.59 1.81 1.01 3.371 5.93 1.478 14.44 1.721 20 3.37 1.06 2.592-3.31 2.573-4.99 3.852-6.97-1.093-14.64-.71-20.01-3.369 1.56-3.255-5.14-6.012-10.01-7.707a9.423 9.423.0 0 0-6-4.333c.59-1.726-1.16-2.326-2-3.371-.78-.1-1.98-.012-2-.478-9.13 1.46-20.41.078-25.02 2.889l.51.721-1.5.239c.6 1.269-.42 4.61 6 4.333 1.33-2.727 7.96-2.91 14-3.371 10.21 2.388-2.19 7.036-4 9.152-.42.492.76 2.047.0 2.408-3.62 1.714-7.3.308-9 .479.49-1.523-1.81-1.7-1-3.371-10.02-1.639-19.52-8.335-32.01-4.333-2.85 3.633 2.69 4.353 3.99 7.224-3.59 2.971-12.26 5.9-8 11.07-3.18.076-4.4 1.093-8 .964-8.52-8.36-10.31-17.318-23.02-23.111-1.88-.109-2.21.542-4 .483-5.75-3.816-15.88-5.516-24.01-8.186-13.6-.19-18.38-4.638-32.01-4.814-2.96-1.143-3.96-3.228-6.01-4.813-8.98 1.651-16.61 3.573-26.01 2.886-5.85-.421-10.36-2.83-14.01-3.369-9.21-1.356-20.68.0-27.01-.962-1.37 2.275-5.78 1.333-9 1.924-4.25.78-5.99 2.932-10.01 4.334-1.94.676-5.47.4-6 1.927a86.132 86.132.0 0 1-12.01.48c-4.23 1.177-5.72 3.666-12.01 3.852 2.3-2.282-4.41-5.947-9-4.814 2.45.052.21 1.592-1 1.445-8.48.1-17.24-.1-23.01-1.445.24-.849 1.72-1.1 4-.964-.44-4.771-13.71-.682-19.01-3.37.09-.757 2.55-.374 2-1.445-5.94.34-10.25-1.188-15 0-6.84-3.127-23.38-1.586-29.02-5.3-8.74-.172-16.47-1.928-22.01-2.886-6.59-1.143-14.72-1.464-20.01-2.409-1.14-.2-1.6-1.119-3.01-1.441-1.35-.318-3.05.224-3.99.0-.5-.117-1.15-1.228-2-1.445-5-1.273-15.84-2.041-20.01-1.446-6.99-1.552-12.01-1.135-21.02-1.443a58.812 58.812.0 0 1-9 2.889q-1.5-2.172-6-2.889c-.17.563-1.58.522-3 .481-1.27 3.767-5.49 3.674-6.01 8.186-6.33 2.08-19.28 5.371-23.01 1.445-2.31-2.436 3.3-2.952 3-6.26a42.477 42.477.0 0 0 11.01-3.852c-1.75-2.26-5.97-.918-11.01-.964-3.63-.891-15.06-2.626-23.01-1.443-.21 1.705 4.7.95 4 2.888.49 1.516-4.58.359-5 1.445 1.76.115 2.28.83 2 1.926-3.24.849-6.11 1.87-11.01 1.924-5.2-1.987-8.18-5.047-13-7.22 4.67-.32 12.6.93 13-1.445-7.3-3.176-19.58-2-31.01-2.407a16.035 16.035.0 0 0-4-2.407c-10.29-.344-19.57-1.179-25.01-3.852-16.68-2.059-30.43-3.206-48.03-.48-5.38-.563-14.34-1.625-19.01-.962.83 2.649 3.7 4.316 6.01 6.258-.29 4.069 3.65 10.412-9.01 11.553.03 1.619-1.38 2.548-3 3.371.39 1.9 4.07 2.215 6 3.37-1.46 1.135-2.11.895-1 2.41 4.81.9 14.16-.4 15.01 2.4-7.89-.351-16.85-.654-23.01.968-6.86.407-7.43-2.207-14.01-1.931-2.94 3.273-9.6 3.3-14.01 4.816-3.79 1.3-3.31 2.552-6 2.888-4.73.593-7.69-.873-11-1.443-2.47-.428-5.96-.034-8.01-.483-1.08-.235-2.36-1.446-4-1.924-4.79-1.4-8.48-.835-8-3.37-6.97-.021-9.26-2.285-11.01-4.818-7.29-1.162-17.29 2.591-29.01.485-5.17 2.009-15.8 1.386-20.01 3.85-.22-.539-1.11-.748-2-.962l-.51.72-1.49-.239c-5.3 2.778-13.36.5-20.01.0-.88 1.347-2.4 2.378-3.01 3.85 1.28.674 4.9.213 5 1.447-10.21 1.646-21.51 1.092-33.01 3.85-1.99-.968-4.74-1.575-6-2.889.8-1.238 5.53-3.084 3-4.332-5.06-1.836-18.591-1.047-27.02-2.407-3.318 1.718-.186 3.68-1 4.815 5.2.017 12.163-1.561 13.006 1.443-.24.684-1.649.811-2 1.445l1.5.239-.5.723c3.08.284 7.079.125 7 1.924-8.129-.55-14.346 2.409-21.006 1.928-5.078-.366-4.215-1.915-7-2.889-1.306-.453-3.016.1-4-.48-1.779-1.04-2.251-3.229-4-4.333-7.874-.724-13.324-1.629-21.009 1.443-6.662.0-8.307-2.422-12.008-3.852a49.6 49.6.0 0 0-9.006 1.445c6.8.417-2.16 1.194 1 2.407 4 .8 6.164 2.49 7 4.814a10.47 10.47.0 0 0-2 .483l.5.721-1.5-.24c-.052 3.4 2.038 4.127 3 7.7-2.19 1.352-3.993 2.89-9.007 2.888-3.52 4.062-9.983 6.28-21.006 4.333-.093-2.366-3.9-2.942-7.006-3.85.522-.715 1.478-1.216 2-1.928-8.26-1.315-15.7 3.751-24.009 3.37-3.121-.144-7.583-.917-9.007-3.37 1.588-1.165 5.354-1.277 8.008-1.926-1.576-.046-3.473.064-3-.966 6.289-5.288 17.127-.036 24.011 1.448.706-1.748 3.221-2.626 5-3.85l-1.5-.567.5-.884h-1c.732-1.308-1.982-.964-2-1.922-7.055 1.208-15.9 1.253-18.01-1.445 1.763-.434 1.654-1.772 4-1.924 5.893.945 9.959-1.1 15.01-1.926l-1.5-.562.5-.883c-11.889.762-17.7-3.823-28.017-.962-2.667-.964-4.089-2.524-9-2.408-1.723.295.082 2.285-2 2.408-3.5 1.845-7.5.349-13.008.479-5.4.134-10.422 1.655-13.007 1.445-2.462-.2-3.5-1.834-6-1.445a84.662 84.662.0 0 1-9 2.409c.611 6.933-13.949 3.032-20.011 1.445-4.673 1.267-14.831 3.11-15-1.926-16.969 1.026-14.625-6.1-28.012-5.777-3.285.962-5.431 1.727-8.01 1.924V30.99l-1.829.239L741.4 30.5c-7.2-.546-8.363-4-18.01-3.371-.171 1.362.863 3.3-2 3.371l.5.884-1.5.56c.216.374.836.559 2 .479v4.335c-7.59.669-13.924.148-20.014.0-.125-2.026-4.057-2.219-5-3.85 4.052-3.381 14.414-.3 20.012-1.446l-.5-.722.5-.723c-10.328-1.288-14.553-5.517-26.014-6.255l.5.88-1.5.563c.425.918 2.856.867 2 2.41a42.931 42.931.0 0 0-11.009.958l.5.725-.5.719c2.634.5 6.532.389 6.006 2.406-2.328 1.452-8.745.927-7.008 4.335-5.227.713-10.5 1.348-15 0-5.581 1.6-19.931 1.573-22.011-1.443l-.5-.722 1.5-.242c-3.815-2.737-10.846 1.023-19.006.481-1.082 1.249-3.618 1.789-4 3.374l1.5.237-.5.722c3.86.069 8.784-.375 10.008.964-4.391.134-3.406 2.857-9 2.4-.756 1.648 4.062.614 3 2.414-1.45.582-1.339 1.92-4 1.922 4.479 2.654-1.281 4.8-4 6.741-.4 1.155 4.555-.266 3 1.445-3.768 1.6-11.629 5.127-18.01 2.409.468-4.272 2.362-7.852 9-9.146l-1.5-.244.5-.721c-.112-.908-3.308-.336-3-1.445 4.66-1.447 4.159-5.38 8-7.224-7.447.932-8.184.141-16.009-.476a7.281 7.281.0 0 1-5 4.81c-2.862-2.312-9.851-2.64-18.011-2.406l.5.723-1.5.242c0 .482.809.571 1 .958-.141 1.382-4.17.884-7 .965.155 1.169-3.6 3.716-1 5.779-3.734 1.589-7.2 3-7.006 5.3-4.194.829-18.817-.384-23.01 1.923-1.376 1.1 2.578 1.809.0 1.928-4.663 1.065-5 1-9-.479 4.955-5.322 15.876-7.771 26.011-10.594.027-2.1.6-4.458-2-5.3-8.5.672-10.395-.466-19.006-.478-1.64 1.589-1.008 3.679 1 4.81-6.94 3.477-29.468 1.77-29.013 7.224-5.179.084-7.955-.986-12-1.444-3.069 1.718-6.59.57-10.009 2.409 5.984.28 5.5 5.088 5 5.774-.293-.862 3.887-.028 3 .966-6.867 3.273-10.486-.625-18.006.481-3.407-3.366-5.151-5.934-8-8.669-.521.4-9.805.534-11-1.444V48.8c-.779-.106-1.162-.407-1-.962-4.333-.325-5.371-2.229-10.005-2.41-2.211-2.76-5.545-2.91-9-4.331-1.579-.649-2.139-2.131-3-2.41-4.731-1.519-11.417-1.949-16.007-2.4-4.626-.455-6.754-.908-8.007-.963-5.67-.251-4.072.637-8-.964-4.291-1.745-11.106-2.283-14.007-2.407-1.222-.054-4.006-1.361-5-1.445-1.59-.131-3.429.554-4 .486-5.161-.649-13.7-2.8-18.009-3.37-6.606.789-12.855 1.557-20.01 2.4.491 2.486-1.024 4-6 3.853l.5.723-1.5-.242c-.176 1.694 3.378 1.586 4 2.89-5.9.3-.463 1.635-1 3.369.3 1.265-3.879.383-3 1.922 3.143-.222 4.086.6 5 1.451a24.024 24.024.0 0 1-7 1.44l.5.723-.5.721c9.716.384-1.579 2.491-2-.483l-1.5-.238.5-.723c-7.314-.632-8.917 1.489-12 2.893-9.763 1.929-19.513-.09-26.016-2.41.12 2.3-.282 4.356-2 5.777-6.025.254-13.779-2.18-23.011-1.927a8.161 8.161.0 0 0-2-2.888c-2.356-.01-2.945.829-6 .483-2.416 3.171-6.37 5.6-13.01 6.739-1.447 2.033-1.376 4.8-7 4.818-4.169.081-4.937-1.477-9-1.445-3.292.2-5.381 3.477-9 1.924 1.689-1.433 4.128-2.505 6-3.849l-1.5-.242.5-.72c-8.589-1.856-22.289.194-26.016 2.405-1.412.837-.528 2.532-2 3.369-3.025 1.719-7.925 2.143-10 3.85-.845-1.514-5.158-1.365-6-2.885 1.667-5.459-7.778-5.569-11.006-8.667a9.224 9.224.0 0 1 5-4.331l-.5-.724-.5-.725c-1.876-1.5-1.158-5.172.0-6.739-2.873-2.468-8.672-3.528-12-5.778-7.971.176-11.869.674-16.009-1.443-6.9.034-13.691 6.245-19.009 2.407-3.548-.1-1.979 2.259-6 1.926-9.224-2.48-30.174-2.488-37.021.48-2.17-.4-2.224-1.814-5-1.924-2.155.887-5.08 1.407-4 3.852-9.377 1.694-13 7.808-25.013 6.737-3.167 2.17-4.719 5.114-10 6.262-5.24.432-3.766-2.365-9-1.926-5.838 2.122-13.847 6.613-22.013 3.369a1.844 1.844.0 0 0 1 1.928c-2.632 1.963-9 2.407-9 2.407L0 111H1920zM1019.54 45.428c2.79 1.81 8.29.486 12.01.0-.6 1.785-1.65 2.791 1 3.853 10.36-.8 10.69-4.3 7-8.667C1030.17 39.359 1021.29 40.707 1019.54 45.428zm-350.171.483c-3.7.443-8.51-.884-10.007.962-2.762 4.272 4.018 7.544 11 8.669 4.256-3.252 12.357-4.648 15.014-8.669-.785-.1-1.168-.4-1-.962C678.378 43.109 674 45.358 669.369 45.911zm63.03 6.741c4.951 1.314 12.868 1.721 14.008-1.443-2.736-.45-4.266-1.479-7.007-1.928-3.284.684-1.659 1.487-3 2.406-4.484 1.3-15.95-1.214-22.011.964 5 2.89 3.5 3.448 3.5 3.448l.5.884c-10.307-3.1-20.71-5.335-26.013-3.37 1.834 1.678.193 2.041-1 3.37 1.532 1.186 7.048.459 6 2.89a14.3 14.3.0 0 1 8 1.926c1.742-1.753 9.882.325 15.008.0 1.021-1.977.452-1.928 1-4.333-3-.483-1.5-1.045-1.5-1.045l-.5-.88S728.457 54.471 732.4 52.652zM198.134 70.944c2.712 1.057 2.491.535 6 .965.43-.921 2.158-1.211 2-2.406C203.183 68.1 199.431 68.468 198.134 70.944zM1807.94 75.28c-1.85 2.028-.24 5.96-1.01 7.221 2.57 1.329 6.08 2.21 8 3.85-.73 3.7 6.47 6.128 9.01 9.148 2.39 2.849 1.56 6.694 9 7.7a8.491 8.491.0 0 0 7.01-3.855c-5.66-4.434-16.71-9.987-12.01-16.365-3.21-2.307-11.54-2.144-15.01-4.332.55-1.782.93-1.733 1.01-4.336-3.98-.817-5.7-2.715-9.01-3.85C1802.96 72.675 1805.32 73.3 1807.94 75.28zm89.04-.966c2.8 6.544.0 14.9 21 14.445 3.64-4.23-5.84-8.55-3.99-14.926C1909.03 72.316 1903.01 73.754 1896.98 74.315zM1067.35 26.481l-1.78.173c-.29-.779.94-.827 1-1.445 2.48-.074 3.09.757 4.99.962-.43.593-1.27.989-2.99.962zm761.1 17.263.5.724c-2.82 1.4-3.66.78-5.01 2.887-8.81 1.92-16.12-2.437-16-7.7 6.16-2.819 20.99-.71 22 4.336zm47.82 2.024-1.31.622c-2.76-.273-5.6-.506-5-2.4 2.98-.633 6.69-.025 8.01 1.44zm-1203.4-17.43.5.721c-9.563-1-19.371.516-28.014 2.407-5.162-.881-7.305-3.222-14.008-3.369 5.84-3.244 12.631-2.717 22.015-1.443 2.664-.806 3.258-2.6 7-2.888 5.437.752 10.732 1.573 13 3.853zm70.366 1.445-1.833.239c-2.36-2.593-5.185-6.532 7-5.774-.217 2.62-1.83 4.573-4 6.257zM913.989 43.42l-.5-.884a51.313 51.313.0 0 1 10.006.484c-.085 1.745-8.55 1.957-11.008.967zM1064.56 23.766c-.45 2.037-3.89 1.118-6 .481-1.08-1.233 3.04-2.295.0-2.891.23-.693 2.99-.165 3-.962 2.35.157.97 2.1 3 2.407l-.5.483zM630.348 26.654c2.961.415-2.317.718-1 1.924-4.029.5-4.445-.749-6-1.445C624.1 25.6 630.743 27.638 630.348 26.654zm387.192-5.747a.155.155.0 0 1-.05-.005c-.21.0-.44.0-.7.0a28.13 28.13.0 0 1-4.07-.261c-.56-.082-.87-.37-.69-.637a1.466 1.466.0 0 1 1.33-.329 24.7 24.7.0 0 0 3.47.2c.28.0.53.0.76.01a.876.876.0 0 1 1.01.533A1 1 0 0 1 1017.54 20.907zM798.252 19.273c-1.237.0-2.461-.071-3.661-.14-1.258-.065-2.458-.13-3.651-.13a.988.988.0 0 1-1.126-.527.991.991.0 0 1 1.1-.543c1.347.0 2.659.069 3.93.137a25.253 25.253.0 0 0 7.576-.316 1.832 1.832.0 0 1 1.5.229c.285.264.069.586-.48.726A21.406 21.406.0 0 1 798.252 19.273zm62.713.235a1.178 1.178.0 0 1-.45-.084 9.272 9.272.0 0 0-3.88-.412 15.564 15.564.0 0 1-3.976-.264c-.321-.078-.447-.264-.284-.42a1.043 1.043.0 0 1 .882-.137 13.668 13.668.0 0 0 3.326.192 11.527 11.527.0 0 1 4.825.579c.27.119.28.32.034.445A1.09 1.09.0 0 1 860.965 19.508zm29.512.351a1.75 1.75.0 0 1-.247-.02 66.435 66.435.0 0 0-11.676-.256 73.136 73.136.0 0 1-11.814-.223c-.47-.059-.748-.289-.627-.517a1.149 1.149.0 0 1 1.076-.3 69.492 69.492.0 0 0 11.229.193 70.313 70.313.0 0 1 12.306.288c.469.066.736.3.6.527A1.052 1.052.0 0 1 890.477 19.859zm-136.566 2.2a1.688 1.688.0 0 1-.65-.122 10.5 10.5.0 0 0-3.5-.849c-.53-.039-.887-.277-.8-.532a1.139 1.139.0 0 1 1.11-.381 13.637 13.637.0 0 1 4.494 1.074c.395.174.424.468.065.657A1.589 1.589.0 0 1 753.911 22.063zM613.968 27.624a19.394 19.394.0 0 1-3.471-.288c-.511-.091-.767-.363-.576-.61a1.462 1.462.0 0 1 1.263-.276 21.844 21.844.0 0 0 6.424-.014 1.269 1.269.0 0 1 1.19.344c.125.252-.192.506-.721.569A34.362 34.362.0 0 1 613.968 27.624zM481.777 25.958a1.422 1.422.0 0 1-.975-.3c-.234-.261.01-.561.546-.674a19.934 19.934.0 0 1 4.335-.28c.516.0 1.035.008 1.539.0a1.033 1.033.0 0 1 1.117.486.87.87.0 0 1-1 .533c-.556.015-1.121.01-1.688.005a16.831 16.831.0 0 0-3.445.195A1.979 1.979.0 0 1 481.777 25.958zm370.182 5.9a2.541 2.541.0 0 1-.337-.023l-.432-.058c-5.907-.754-12.013-1.539-17.854-.674a1.819 1.819.0 0 1-1.635-.41c-.214-.337.171-.689.86-.789 6.562-.976 13.038-.144 19.3.659l.432.054c.7.09 1.117.435.932.771A1.519 1.519.0 0 1 851.959 31.859zm-588.294.312a1.017 1.017.0 0 1-.943-.385c-.088-.252.265-.491.786-.534l.516-.042a3.72 3.72.0 0 0 .471-.4c.11-.1.221-.2.342-.3a1.62 1.62.0 0 1 1.308-.173c.459.125.618.408.356.632-.109.091-.214.184-.31.271a3.663 3.663.0 0 1-1.041.737l-.2.088-1.119.091C263.774 32.166 263.719 32.171 263.665 32.171zm254.128-.254a1.421 1.421.0 0 1-1.43-.627c-.076-.383.511-.718 1.3-.752a14.364 14.364.0 0 0 1.676-.209 2.058 2.058.0 0 1 1.816.435c.254.364-.147.754-.9.878a19.867 19.867.0 0 1-2.327.274h-.131zm-296.647 3.4a1.788 1.788.0 0 1-.594-.1 12.291 12.291.0 0 0-3.122-.64c-.542-.052-.88-.31-.763-.567a1.263 1.263.0 0 1 1.19-.369 15.284 15.284.0 0 1 3.89.8c.441.161.534.461.2.674A1.561 1.561.0 0 1 221.146 35.32zm362.678.554a1.675 1.675.0 0 1-1.224-.4c-.278-.327.054-.7.733-.827.97-.186 1.764-.315 2.661-.428a1.762 1.762.0 0 1 1.616.459c.183.339-.242.69-.949.778-.549.07-1.263.168-2.343.374A2.385 2.385.0 0 1 583.824 35.873zM500.782 38.6a2.435 2.435.0 0 1-.643-.082 5.423 5.423.0 0 0-1.234-.244 1.373 1.373.0 0 1-1.439-.574c-.066-.349.469-.662 1.194-.691a8.714 8.714.0 0 1 2.772.4c.64.167.868.556.506.864A1.869 1.869.0 0 1 500.782 38.6zM470.768 52.323a1.392 1.392.0 0 1-1.3-.537c-.115-.347.377-.672 1.1-.727.612-.047 1.255-.144 1.933-.251.3-.047.6-.093.909-.133a1.816 1.816.0 0 1 1.642.431c.2.34-.2.695-.9.793q-.429.059-.848.125c-.743.112-1.512.229-2.316.293C470.906 52.323 470.839 52.323 470.768 52.323zm32.018-7.19a1.112 1.112.0 0 1-.821-.273c-.188-.226-.328-.393-.464-.551-.345-.072-.773-.12-1.22-.169-1.216-.136-2.874-.322-3.352-1.258-.118-.225.166-.454.645-.511a1.141 1.141.0 0 1 1.063.31c.2.389.745.488 2.044.635a11.808 11.808.0 0 1 1.963.331l.247.071L503 43.84c.174.2.357.408.606.712.174.221-.046.464-.5.55A1.641 1.641.0 0 1 502.786 45.133zM199.637 42.716A1.761 1.761.0 0 1 199.4 42.7a24.118 24.118.0 0 0-2.817-.227.715.715.0 0 1-.819-.437.868.868.0 0 1 .913-.4 26.7 26.7.0 0 1 3.186.256c.462.061.73.288.6.51A1 1 0 0 1 199.637 42.716zm50.357 4.758a2.253 2.253.0 0 1-.337-.026c-.261-.041-.523-.073-.821-.113-.422-.051-.906-.114-1.513-.2-.566-.1-.877-.388-.693-.658A1.546 1.546.0 0 1 248 46.139c.555.087 1 .144 1.387.192.342.042.647.081.947.129.568.088.876.385.692.656A1.322 1.322.0 0 1 249.994 47.474zm-1.336-2.7a2.305 2.305.0 0 1-.374-.032c-.594-.1-.909-.415-.7-.7a2.411 2.411.0 0 0 .374-1.006l.071-.322a1.264 1.264.0 0 1 1.269-.481c.622.038 1.074.31 1 .61l-.068.3a2.953 2.953.0 0 1-.491 1.26A1.41 1.41.0 0 1 248.658 44.776zM986.026 37.11a1.712 1.712.0 0 1-1.068-.309c-.322-.284-.1-.642.489-.792a21.4 21.4.0 0 1 6.19-.336 20.293 20.293.0 0 0 4.894-.164 1.927 1.927.0 0 1 1.609.291c.273.294.0.639-.609.774a23.933 23.933.0 0 1-6.1.268 17.614 17.614.0 0 0-4.824.2A2.325 2.325.0 0 1 986.026 37.11zm82.034-7.8a1.519 1.519.0 0 1-.83-.21 2.42 2.42.0 0 1-.9-2.648 1.02 1.02.0 0 1 1.09-.455.824.824.0 0 1 .95.519 1.892 1.892.0 0 0 .53 2.026c.32.224.21.53-.26.685A1.845 1.845.0 0 1 1068.06 29.309zM1835.45 45.6a1.827 1.827.0 0 1-.21-.013 31.95 31.95.0 0 1-7.32-1.52c-.37-.139-.44-.394-.15-.575a1.566 1.566.0 0 1 1.2-.074 29.394 29.394.0 0 0 6.67 1.369c.46.056.74.276.64.495A.979.979.0 0 1 1835.45 45.6zm49.88 4.783a3.209 3.209.0 0 1-.51-.039 21.885 21.885.0 0 1-7.32-2.855c-.78-.43-1.51-.84-2.29-1.206-.59-.281-.6-.74-.02-1.025a2.789 2.789.0 0 1 2.13-.01c.87.409 1.67.854 2.46 1.291a18.737 18.737.0 0 0 6.05 2.442c.79.127 1.2.545.92.923A1.9 1.9.0 0 1 1885.33 50.384zm-1709.7-2.041h-2c-.857.0-1.549-.336-1.549-.746s.692-.748 1.549-.748h2c.854.0 1.549.335 1.549.748S176.481 48.343 175.627 48.343zm48.02 7.472a1.037 1.037.0 0 1-1.074-.484c-.038-.285.413-.532 1-.549a28.062 28.062.0 0 0 3.3-.345 30.625 30.625.0 0 1 3.716-.376 1.07 1.07.0 0 1 1.132.488c.032.282-.416.53-1.011.543a27.323 27.323.0 0 0-3.221.339 32.241 32.241.0 0 1-3.777.383C223.693 55.815 223.67 55.815 223.647 55.815zM327.7 46.72a1.53 1.53.0 0 1-1.1-.352c-.246-.293.04-.627.644-.745a13.973 13.973.0 0 1 4.743-.022c.635.079 1.019.386.86.694a1.566 1.566.0 0 1-1.442.41 9.491 9.491.0 0 0-3.262-.027A2.221 2.221.0 0 1 327.7 46.72zm7-11.813a1.076 1.076.0 0 1-.408-.071 8.327 8.327.0 0 0-1.794-.423c-.339-.058-.523-.231-.413-.4a.929.929.0 0 1 .817-.2 10.282 10.282.0 0 1 2.208.535c.275.108.316.306.089.441A1.061 1.061.0 0 1 334.7 34.907zm239.121 6.879a1.158 1.158.0 0 1-.891-.3c-.169-.236.092-.488.583-.569a13.132 13.132.0 0 1 4.6.0c.494.077.757.332.591.569a1.334 1.334.0 0 1-1.185.285 9.623 9.623.0 0 0-3.4.0A1.758 1.758.0 0 1 573.824 41.786zm37.015 6.773a1.285 1.285.0 0 1-.928-.3c-.206-.248.041-.527.555-.625.612-.118 1.2-.194 1.727-.266a10.075 10.075.0 0 0 1.119-.178 1.721 1.721.0 0 1 1.378.156c.292.224.15.518-.32.66a11.074 11.074.0 0 1-1.654.291c-.5.065-1 .131-1.5.231A1.988 1.988.0 0 1 610.839 48.56zm10-9.168a1.4 1.4.0 0 1-.787-.2c-.3-.21-.191-.5.251-.64.36-.122.824-.222 1.312-.33.255-.056.525-.117.8-.181a1.559 1.559.0 0 1 1.279.2c.247.225.054.5-.414.62-.3.072-.59.134-.865.2-.41.09-.8.176-1.031.256A1.918 1.918.0 0 1 620.842 39.391zM643.978 35.2a11.124 11.124.0 0 1-1.412-.09c-.592-.077-.948-.371-.787-.657a1.487 1.487.0 0 1 1.361-.376 11.784 11.784.0 0 0 4.379-.542c2.18-.545 4.895-1.219 8.011-.092.5.178.589.512.219.752a2.012 2.012.0 0 1-1.558.1c-1.9-.691-3.314-.395-5.646.186A18.441 18.441.0 0 1 643.978 35.2zm37.9-5.3c-.085.0-.17.0-.259-.011-1.158-.116-2.228-.282-3.267-.445a30.358 30.358.0 0 0-5.429-.508 1.2 1.2.0 0 1-1.307-.578 1.06 1.06.0 0 1 1.206-.628 34.686 34.686.0 0 1 6.295.564c1.024.157 1.99.308 3.011.41.681.07 1.117.386.976.712A1.373 1.373.0 0 1 681.877 29.9zm10-4.622a2.781 2.781.0 0 1-.29-.012l-.942-.11a16.525 16.525.0 0 0-5.221-.1 2.089 2.089.0 0 1-1.753-.315c-.3-.32-.011-.7.656-.843a20.906 20.906.0 0 1 6.94.015c.3.037.6.073.906.1.711.074 1.161.417 1 .761A1.484 1.484.0 0 1 691.877 25.282zM721.891 32.1a3.342 3.342.0 0 1-.366-.02c-.507-.062-1.047-.117-1.591-.171a28.718 28.718.0 0 1-3.72-.527c-.738-.184-1.019-.614-.643-.963a2.417 2.417.0 0 1 2-.315 24.952 24.952.0 0 0 2.969.4c.593.057 1.179.119 1.727.186.795.1 1.28.489 1.066.871A1.69 1.69.0 0 1 721.891 32.1zm20.683-.129a2.952 2.952.0 0 1-.327-.015c-.843-.087-1.376-.484-1.193-.889l.147-.349c.164-.374.33-.754.53-1.124a2.071 2.071.0 0 1 1.9-.54c.831.1 1.328.513 1.11.916-.188.352-.339.7-.493 1.053l-.157.359A1.731 1.731.0 0 1 742.574 31.974zm152.409 3.533a1.805 1.805.0 0 1-1.512-.562c-.214-.4.29-.809 1.119-.911.863-.108 1.744-.194 2.566-.271l.374-.036a1.917 1.917.0 0 1 1.835.583c.168.409-.376.8-1.221.884l-.38.035c-.767.071-1.59.151-2.394.251A3.079 3.079.0 0 1 894.983 35.507zm3 8.665a1.585 1.585.0 0 1-1.537-.651c-.112-.412.485-.786 1.337-.842a156.47 156.47.0 0 1 16.349.0c.857.037 1.488.4 1.414.812a1.63 1.63.0 0 1-1.69.679 148 148 0 0 0-15.667-.007A1.435 1.435.0 0 1 897.979 44.173zM932 40.669a1.186 1.186.0 0 1-.322-.043 10.209 10.209.0 0 0-3.607-.441.671.671.0 0 1-.685-.257c-.034-.165.2-.309.538-.331a12.738 12.738.0 0 1 4.4.527c.288.084.381.269.2.406A.884.884.0 0 1 932 40.669zM719.89 57.184a3.125 3.125.0 0 1-.5-.041l-2-.318c-.829-.134-1.283-.567-1-.965a2.257 2.257.0 0 1 2-.481l2 .322c.827.131 1.279.564 1 .964A1.944 1.944.0 0 1 719.89 57.184zm347.17-33.228a2.117 2.117.0 0 1-.23-.017 23.8 23.8.0 0 0-2.81-.227.737.737.0 0 1-.85-.454.877.877.0 0 1 .94-.407 28.229 28.229.0 0 1 3.2.258c.47.064.75.3.62.528A1.044 1.044.0 0 1 1067.06 23.956z" transform="translate(0 -0.031)"/></svg>