<svg preserveAspectRatio="none" xmlns="http://www.w3.org/2000/svg" width="1920" height="85" viewBox="0 0 1920 85"><defs><style>.cls-1{fill:#fff;fill-rule:evenodd}</style></defs><path id="Vorm_17_kopiëren_2" data-name="Vorm 17 kopiëren 2" class="cls-1" d="M614.318 49.11c-1.008-1.445 2.233-.85 4-.963C618.079 49 616.6 49.245 614.318 49.11zm137.069-1.445c-1.292-.659-4.347-.474-7-.479 1.122-.9 3.873-1.025 5-1.925 1.993.0 1.275 1.313 4.007.963C752.741 46.709 751.087 46.721 751.387 47.665zm192.092-1.924c-4.352-.682-.413-3.866 3-2.406C946.955 44.844 943.792 44.607 943.479 45.741zM1783.9 42.369V44.3c-4.27.53-7.82 1.782-9.01-.963l1.5-.239-.5-.727c.26-1 4.4-.131 5.01-.96l1.5.479zm-12.51.244.5.721h-1l.5-.721-.5-.725h1zm-2 0 .5.721c-3.73-.51-3.23 1.012-5 1.445-2.56.017-1.22-.361-1-.966V43.335l1.5-.564-.5-.882c.82-1.359-1.41-1.25-1-2.407 4.08-.2 6.31.495 6 2.407zm12.01-3.374-.5.725c-1.18-.72-4.16-.568-4.01-1.926 1.97-.956 5.72-.308 8.01.0.04.825-.75 1.245-2 1.443zm9 3.13-.5-.481c3-.811 6.75-1.4 7 .966-2.96-.122-4.93 1.9-6 0zm-1179.079.0c2.483-.074 3.092.759 5 .966-1.681 2.316-6.51 2.353-9.007.479l1.5-.238-.5-.722a2.879 2.879.0 0 1 2.007-.966v.481h1zM747.382 44.3c-1.757-.119-2.278-.829-2-1.928C748.777 43.413 753.557 43.423 747.382 44.3zm967.478-2.409h-3c-.28-.778.95-.83 1-1.441h2v1.441zm-715.349.0a8.477 8.477.0 0 0-3-.479c.848-1.037 2.468-1.7 6-1.445C1002.22 40.947 999.805 40.905 999.511 41.888zM876.447 26.481c1.646-1.37 5.43.23 7.006.483-.8 1.017-4.119 1.877-6 .963l.5-.886zm-1.5 1.206 1.5.24c1.128.9 3.88 1.022 5 1.926-3.686 3.642-2.586 8.426-15 8.665l.5-.722-1.5-.241a1.839 1.839.0 0 1-1-1.926c1.777-.428 2.546-1.344 6-.962.225-.855-1.012-2.414 2-1.928-.679-1.12-3.323-1.291-4-2.409 1.44-1.548 1.808-3.62 7-3.367zM767.4 40.926c-1.943.193-1.462-2.191 1-1.445v.966C767.547 40.355 767.45 40.635 767.4 40.926zm966.474-.962c-.12 1.064-4.24.2-6 .483.35-.635 1.76-.759 2-1.449C1732.6 38.649 1731.88 39.959 1733.87 39.964zm68.04.0h-3V39h3v.966zm-7.01-.483c-.14.133-2.15.891-3 .483C1791.21 39.63 1795.85 38.639 1794.9 39.481zm-836.411.483c-1.613.135-1.721-.459-3-.483C955.09 38.545 960.045 38.778 958.489 39.964zM1638.83 39c-1.08.951-8.3.825-7.01-.96C1635.97 37.482 1635.72 39.049 1638.83 39zm-637.32.0c.36-.63 1.76-.755 2-1.441 2.73-.351 2.01.958 4 .963C1006.94 40.108 1003.74 39.21 1001.51 39zm-198.1-2.4c-6.61.111-13.3 2.812-19.01.479 3.451-1.719-2.272-1.74-2-3.372 7.581.451 12.184-.705 9-4.335 5.865-.29 13.01-4.1 17.006-.959-2.225.891-.817 1.967-2 3.371-1.63 1.923-5.369 2.184-2 3.85l-1.5.239zm836.416.479c-.3-1.267 1.38-1.58 4-1.445A4.7 4.7.0 0 1 1639.83 37.075zm108.05-.966c.4.934-4.56.7-3-.479h2C1746.7 36.041 1747.27 36.083 1747.88 36.11zm-67.03.0h-4V35.148h4V36.11zm-20.01.0c-.03-1.46 3.51-1.2 6-1.441C1666.87 36.125 1663.33 35.868 1660.84 36.11zM546.289 34.669c.32.845-5.608.855-4-.485C544.374 33.98 544.933 34.513 546.289 34.669zm1088.531.0c2.2-1.472 6.41.552.0.0h0zm-936.461.0c-5.3.3-6.153-1.535-9-2.409 2.832-3.915 16.211-5.168 23.014-4.332.844 2.17-2.343 2.4-3 3.853-4.413.508-7.737-.957-10.007.0C696.765 32.185 701.291 33.887 698.359 34.669zm-67.031-.485c-4.348.166-7.246-.361-8-1.924.968-.015.773-.589 1-.962C629.346 30.967 630.587 32.456 631.328 34.184zm402.2-.481c-.93-.51-3.7-.149-3-1.443Q1033.8 32.127 1033.53 33.7zm-479.24-.479c.24-.849 1.72-1.1 4-.964C559.3 33.709 556.064 33.11 554.29 33.224zm-15.006-.964c1.644-.619 5.425-1.247 7-.479C544.578 33.224 542.644 32.31 539.284 32.26zm296.147-1.445c2.221-.694 2.253-2.443 7-1.926C847.308 31.7 836.954 33.695 835.431 30.815zm-346.17-.961h8C496.882 31.641 489.793 31.746 489.261 29.854zm53.023.0c-2.693.859-1.935-2.122-3-.486C535.9 27.112 546.282 27.386 542.284 29.854zm1179.586-.965c.17.783-6.55.971-5.01-.479C1719.69 28.008 1719.46 29.085 1721.87 28.889zm-15.01-.479c-.43 1.074-4.93.192-7 .479C1700.29 27.812 1704.79 28.693 1706.86 28.409zM12.022 26.964c1.943-2.44 11.1-5.181 13-.966C23.971 29.133 15.541 28.465 12.022 26.964zm275.132-7.7c-.19.39-1 .479-1 .964.142 1.052 2.522 1.032 5 .964-1.154 2.007-2.505 3.928-3 6.256-3.651-.713-6.86.5-10.01-.962 1.466-.764 2.07-3.821-2-3.371 1.534-1.53.356-2.118.0-3.851 2.155-.7 6.158-2.094 9-.964l.5.722zm.506-1.684-1.5.237c-1.072-1.8 2.479-1.371 2-2.885 2.128.574 5.449.583 6 1.923l-1.5.243.5.72c.169 1.043-3.549.221-5 .483zm10-.482-1.5-.243c-1.777-1.711 3.032-2.124 3-4.333 1.564 1.814 6.022 2.238 6 4.815-3.878-.415-7.22-1.06-6 1.928-2.137.224-1.9-.689-2-1.447zM547.289 26c-5.919-.153-8.788-2.6-5-4.811 4.763.111 11.276-.613 12.006 1.441C554.131 24.8 546.974 23.6 547.289 26zm403.194-1.44c.172 1.037-3.545.213-5 .479C945.315 23.991 949.029 24.817 950.483 24.559zM489.261 20.223c-.313.651-2.508.4-4 .48a3.252 3.252.0 0 0-3-2.408c-.165-1.045 3.549-.218 5-.483C487.814 18.67 487.772 19.812 489.261 20.223zm-98.049-.484c-.471-1.5 2.512-1.719 4-.96C394.97 19.623 393.494 19.875 391.212 19.739zm1204.6-.96c-2.05 1.465-9.15-.307-6.01-1.447C1593.34 17.071 1592.26 19.036 1595.81 18.779zM415.221 17.332v-2.89c2.349.154 2.239 1.491 4 1.926C418.566 17.019 417.081 17.265 415.221 17.332zM263.145 15.4h-2V14.442h2V15.4zm61.028-1.44a4.637 4.637.0 0 1-3 .477C319.2 13.617 325.589 12.149 324.173 13.964zm28.016.0c.437-.594 1.282-.989 3-.967C355.656 14.029 353.759 13.913 352.189 13.964zM1616.81 7.7c-5.36-.14-12.77.69-13-1.926 5.43.369 7.75-.763 13-.481V7.7zM0 86S-.05 62.893.017 56.814c-.019 1.587.359-2.836 3-4.33.166-1.2-1.534-1.509-3-1.927.846-1.118 6.76.542 3.994-.961 4.191-.559 7.214 3.583 14.007 3.368l-.5.722 1.5.241c2.37 1.658 2.37 3.642.0 5.3 1.2 1.826 5.318 2.249 4 5.29h4.006c0-2.785 5.938-4.333 3-8.662 4.831.4 6.733-.608 7-2.409-6.833.02-12.93 2.639-17 0l-.5-.483-.5-.479h1.005c.885-4.445-7.547-4.4-9.012-7.7 5.809.871.508-3.61 6-2.892V36.11c1.268-.674 5.278-.027 4-1.926l1.5-.557-.5-.886c3.316-.808 7.551-1.185 11.009-1.926 2.51-2.822-3.555-4.659 1-6.742l1 .244 1 .242c7.324-1.931 24.926-2.285 31.025 1.44 10.061-1.362 23.836-2.5 30.011 1.445 7.835-1.909 20.955-.585 27.01-1.926 5.261 2.126 11.551 3.752 21.017 3.851 2.756-.574 3.513-1.365 7.006-.479.535 2.509-4.258 2.444-9 2.409-.231 8.072 16.53 10.851 27 9.629.095-2.717-1.39-5.267-1-9.146a38.589 38.589.0 0 0-14-1.926c-.25-1.408 1.886-1.665 3-2.41 9.711 1.839 20.774-.652 33.024-1.445 8.963-.579 15.278.4 23-1.44l-.495.72 1.5.239c3.094.278 3.135 2.03 7 1.926 3.46.191 5.789-2.634 4-3.371 5.955-1.739 13-1.064 22.006-1.927 2.1.757 2.445 2.355 5 2.892 2.26-.677 6.451-.428 6.006-2.409 2.5-.635 3.131 1.9 4 .481l.5.239.5.244c2.85.876 2.773 3.16 7 3.371-.152.891-3.385.294-4.005.963 1.683 1.439 4.581 2.286 7.005 3.37 9.241.539 14.306-2.212 19.013-2.409 2.037-.464 2.162-1.847 2-3.371 4.363.742 4.2.8 10 .481 1.148 1.857 4.357 2.717 6 4.333 2.681-.825.953 1.423 4-.964 1.485.212-.394.617.0 1.447 5.457-.523 6.678-.235 9.006-2.405-3.03-3.442-9.341-1.948-15-2.41 3.467-1.379 2.9-4.7 8.995-4.811 2.6 1.635 8.338 1.762 9.015 4.33 2.438-1.184 4.333.355 8 0-1.121 1.516-.09 1.091.0 2.892 4.22.606 4.8.418 7.006-1.445-1.774-2.973-7.277-3.408-8-5.777-3.7 1.425-5.745-1.157-11.007-.484.89-2.04-4.623-2.446-2-3.853 2.882-1.4 2.361 1.3 5 1.445 3.421-1.082 6.62-2.271 8.008-4.331 5.676 2.409 2.569-1.521 8-1.931.027.472 1.225.378 2 .484a15.9 15.9.0 0 1-1 3.371c.851-.09.948.186 1 .479l.5.483.5.481c-1.313.169-1.574.847-3 .964-1.683 3.449 9.113 2.114 6 4.815 6.015-.483 8.54.707 13.012.962 4.965-1.378 6.779-6.585 6-9.145l.5-.722-1.5.235c4.027-3.459 19.1 1.227 17.009 3.854-.427 1.327 3.727.451 4 1.443-.884 1.662-4.068 2.219-6.006 3.371 2.774 1.4 6.745 2.211 9 3.854-4.957.9 4.472 2.217-1 3.367a22.118 22.118.0 0 0 13.01 2.892c2.375-.134.457-.788 4-1.443 1.095-.205 2.984.269 4 0 4.784-1.281 6.937-2.546 8-4.816-.569-1.333-1.06-2.7-5-2.406.129-2.853 4.52-2.094 8-2.412 2.153-1.531 5.464-2.508 6-4.814l1.5-.239.5-.725c1.618.984 7.38-.022 9 .964 1.754 2.6-5.079 2.322-1 5.3-1.439.751-2.522 1.677-5.005 1.93.708 3.066 5.256 2.651 10.005 2.885l1.644.379 1.359.586c-.342.966.207 1.506 2 1.445-8.147.354-4.621 4.41-9 5.777.432 1.813 4.157 2.036 2 3.85-10.17.425-16.534 3.508-28.014 1.928-.286.928 2.989 2.442 3 1.926-.014.29-2.522.625-2 .963 4.313 2.822 12.228.332 19.007 1.443.755-1.643-4.062-.612-3-2.406-.486-2 5.765-.757 6-2.409 2.891.374 2.5 2.329 4 3.371l-1.5.242.5.722h-1c-2.439 1.589 6.158 3.2 9 2.4 2.422-1.094 1.206-1.7 1-3.367-1.378-1.264-3.673-2.088-8-1.928.7-3.358 7.873-3.594 14.009-4.331-.131-.866 1.225-1.017 1-1.928l1.833.239 1.172-.718c2.632 2.836 9.807 1.764 13 2.407l1.171.722 1.832-.24c4.275 2.38-.657 6.928-4 8.667 10.039.462 11.938-1.652 17.006-4.332a70.317 70.317.0 0 0 7 .96v1.926c3.972 1.619 11.3 1.628 16.009 2.89 11.036-3.258 26.126-1.585 35.014-5.776-6.207-4.664-16.972-4.257-31.011-4.816-2.559.052-1.985 1.613-2 2.888-3.132 1.928-13.089 3.806-14-.479 4.758.523 3.7-1.757 8-1.449-2.9-2.137-9.944-2.278-12.009-4.814a35.409 35.409.0 0 0 8-6.256c-2.126-.744-3.724-1.743-6-2.41-5.555.009-6.732 1.52-11.006.0V23.11c5.872-.065 8.46-1.707 9-4.332 8.055.938 7.079 6.222 16.009 6.739l-.5.722 1.5.242c-1.122.9-3.873 1.022-5 1.928 7.187 1.6 13.155 7.221 21.01 4.332l.5.24-.5-.24c4.5 1.206 12.825.567 14 3.369C554.853 37.2 565.424 34.192 575.3 33.7q2.221-.615 2-2.406c-2.356-2.273-5.206.857-8-.483-.106-2.621 2.888-3.745 3-6.256 1.344-.515 8.643-.606 5-1.93 3.6-1.226 7.828 1.352 12 1.444-.909 2.146 4.676 2.911 4.006 6.259a72.17 72.17.0 0 0 10 2.892c2.121 5.409-8.116 5.922-15 4.333-.855 2.018 4.478 1.056 6 1.924-.206 2.023 1.639 3.065 5 3.373.032 2.1-3.191 2.634-4 4.332.257 1 4.4.13 5 .961-1.466 3.6-12.045.2-16.006 2.889 2.283 2.015 10.867 1.824 12-.479 3.266-.127 2.894 1.5 5 1.927 3.44-1.058 10.237-.315 14.009.0 2.18.083 3.182-.394 3-1.448 3.741.667 5.171 1.375 8 1.448l-.5.722 1.5-.243c12.7 1.259 26.728-2.08 31.018-7.7 3.7.171 6.117-1.73 8-.964l-.5.721 1.5-.239c13.054 1.811 19.9 9.014 36.02 5.3.367-2.223 1.232-2.771.0-4.814-1.632-.317-7.851-.925-11.005-1.926l.5-.481-.5-.485c5.69.3 6.214-3.395 14.008-3.371 1.479 2.155-2.934 1.483-2 3.371a63.138 63.138.0 0 0 19.012.0c-.468-1.7-1.783-3-4.007-3.85 1.368-1.752 3.445-3.16 4.007-5.3 4.018-.954 9.841-1.044 12-2.892 5.545.383 6.616 2.917 12 3.371 3.25-.2 3.179-2 6.009-2.406 4.429-.208 6.334.8 7 2.406-3.65.538-11.087.0-8 2.407a50.72 50.72.0 0 0-10 .487c.89 1.683-.194 1.577 2 2.884 5.119-.435 13.993-1.6 18-.962 2.533 1.272-4.343.738-2 3.369-4.564-.43-5.671.8-9.005.966-1.64-1.78-8.871-.869-13-1.445h-1v.479c-2.82-.406-4.107-1.553-8.012-1.441-.558 2.2 4.3 1.782 8.012 1.922l-.5.727 1.5.239c-.2.61-2.913 2.358-1 2.406-.42 1.081-5.312.017-6 .966.255 3.646 10.858 3.51 15.009 3.851 5.232-1.754 9.866-3.437 14.005-3.371 2.732-.434-3.043-1.079.0-1.925 5.531.2 11.08-2.319 20.009-1.926.255 1.643 2.04 2.55 5 2.89.093 1.8 1.122 1.373.0 2.885a26.252 26.252.0 0 0 9.006 1.447c3.051-.586-1.464-1.838 1-2.41 12.678.134 11.632-5.283 11.009-8.183 3.751.664 5.593-.548 9 .483.713 1.651-.018 3.357 5.007 3.851-.31 1.134-3.477.894-3 2.409.894 1.7 5.614 3.444 8 2.89 2.958-.423-3.02-.386-1-1.931 4.247-1.118 7.669.276 13 0 1.739-.765 2.168-2.161 2.009-3.85-.667-1.926-6.439-1.394-11.009-1.445.4-3.087-4.543-3.594-10.007-3.85-2.874-2.042 2.332-1.42 4-2.41 1.62-.955.39-2.656 7-2.886 4.4.777 7.154 2.332 13.01 2.407.142 1.511-2.571 1.657-5.008 1.926.941 3.722 10.672 3.21 14.006 5.778.992 1.919-2.992 1.45-2 3.371 2.522 1.75 4.821 1.379 9.007.958 2.232-.067-1.3-1.211.0-2.4h7l-.5.721 1.506.242c.024.466 1.219.37 2 .482l-.5.48.5.479c2.292.8 3.731 1.261 2 2.892 5.3-.019 7.06-1.737 11-2.41.725-3.213.38-3.606-2-5.778 7.908-1.49 14.53-3.6 15.009-8.666 8.352-2.56 17.815-4.586 23.01-8.665 3.468-.064 5.808.414 5 2.406 6.544-1.73 10.572-1.684 18.01-2.885 1.727 3-3.213 5.875-6 9.625-4.222.467-5.063.595-8-.481a2.58 2.58.0 0 0 0-3.849c-4.736-.355-6.576.685-9.007 1.443 4.931 1.685 3.177 4.03 5 7.222 1.808 3.155 2.593 4.873-6 6.261-1.105 9.193 20.879 8.455 30.014 4.33.549-3.136.924-7.518 9.008-6.256 3.09-.117 1.684-2.4 6-1.928.132 1.187.153 2.319-1 2.888 1.052 1.26 4.064 1.576 8 1.447 1.486-.779-.657-2.319 2-3.373.175-1.2-2.239-1.169-3-1.924 1.886-3.265 4.371-6.244 15.009-5.3a1.857 1.857.0 0 1-1-1.928l.5-.722-.5-.722c2.155-.408 3.543-1.188 3.006-2.888 6.054.181 5.583-2.775 9.006-3.851 9.891-.447 14.641 5.133 25.011 4.33v.479h1c-2.85 1.04-6.1 1.88-6 4.335-9.52-.244-17.319.334-22.015 2.407 2.178 3.13-6.231 4.479-7 7.7 1.575 1.777 11.9 2.243 12-.479 7.532.75 14.272-4.621 16-6.738 1.17.076 1.78-.107 2.01-.487 11.99-1.7 20.74-.235 20.01 4.817 3.82.393 3.87-1.023 5-1.928 5.64-.681 9.12.564 14.01-.479.91-2.362-4.2-1.835-4.01-3.851 5.36-2.163 23.7-7.025 25.02.0a25.563 25.563.0 0 0 12-.966c.41-1.161-1.83-1.047-.99-2.406 9.23-4.306 25.17-2.768 37.01-5.3a163.619 163.619.0 0 0 23.01-.481c8.92-.909 16.45-3.744 23.01-3.851 13.96-.227 33.39.612 43.03-5.3a56.158 56.158.0 0 1 20 .964c5.18-.4 4.84-3.447 9.01-4.335 11.39.6 20.12-.425 27.01 2.408 7.4-1.093 17.05-1.1 19.01-4.813 6.71.293 15-2.169 19.01 1.926 9.06-.393 17.6 2.519 21.01-3.372 6.39-1.058 11.94.288 13.01 1.927 10.19.568 16.2-.871 19.01-3.85 4.31-.4 7.04.229 12.01-.481 7.07 4.047 23.76 4.414 27.01-1.447 4.83.4 9.97.658 15 .964 1.51 2.806 6.5 3.935 8.01 6.739 4.68.493 5.69-.789 8-1.44-3.12-12.65 28.49-5.795 34.02-1.444-2.88 3.328 1.05 6.627 5.01 8.183 4.63.307 2.53-2.631 2.99-4.331 6.86-4.086 10.2-9.862 20.01-12.522 6.72 1.1 10.16 3.778 19.01 3.853-.79 1.667 1.11 2.033 2 2.893 9.68 1.589 15.25-2.451 14.01-6.264 8.89-2.327 23.28-.331 21.01 5.778 7.76.527 10.6-1.321 13.01-3.371 5.03 1.384 13.76-2.5 15 1.928h3.01l1.16.722 1.84-.239c-.53 2.224.29 2.592-4 3.371 4.88 1.878-2.59 2.259-1 5.292 4.51 1.44 4.62 2 7 4.335 7.38.232 13.89 4.052 21.01 1.448-1.07-1.094-3.04-1.751-6.01-1.928 3.03-1.115 4.47.014 2-1.928 5.96.135 7.95-1.633 11.01-2.89a2.005 2.005.0 0 0-1-2.409l1.5-.241-.5-.72c5.93 1.225 6.51-1.66 13.01-1.443 3.53 1.994 9.83 2.65 14.01 4.335l-1.5.562.49.878c-6.03-.676-11.3 4.3-4 4.335-2.84 1.11-.67 2.131-4 3.371l-1.5-.241-.5.724c-3.34.481-3.28-.669-3-1.926-9-1.152-14.65 1.108-17.01 3.371.34 1.118.65 2.259 4 1.927 1.3 1.2-2.93 2 0 2.4l-.5.724 1.5.24c.19.41-.39.457-1 .483 2.35 2.56 5.5 4.736 11.01 5.782l-.5.718 1.5-.239a41.084 41.084.0 0 0 14 4.813c.43 2.783.67 4.56 6.01 5.776 2.56-.045 1.61-1.788 3-2.4 4.11.039 4.26.51 9.01.963-.17 2-.35 4.018 1.99 4.812 4.09-1.015 8.42 1.084 8.01-1.926 3.98-.149 2.71 2.229 6 2.409 2.23-.374 5.43-.279 6.01-1.443.46-1.51-2.52-1.357-4.01-1.928 7-1.334 3.87-3.582 2.01-5.293 2.28-1.3 7.26-1.32 11-1.928.13-.864-1.23-1.015-1-1.928 5.17-.4 7.97.339 9 1.928 5.05-.873 9.31-.07 10.01 2.409-3.9.458-5.46.209-4 2.406-2.95.088-6.2 1.294-8.01.484v.482l-1-.242-1-.239h-2v.961h2l1.5.242.5-.721c3.94 1.155 13.27-.29 16.01 1.441.57 1.562-.31 2.423-2 2.889 1.92 1.033 5.22 1.056 8.01.482-.44-.755-3.15-.411-2.01-1.923 3.74.512 2.85-1.2 6-.966.02.959 2.73.614 2.01 1.927 6.21-.541 8.52-2.959 14-3.851 3.99-.154 2.71 2.227 6.01 2.4 3.14.229 4.09-.6 5-1.445v-1.44l1.5.239.5-.723c5.23 1.809 8.62.359 14.01.966a8.085 8.085.0 0 0-4 1.924c.35.634 1.76.756 2 1.445 3.14.069 3.43-1.235 4-2.411 6.46 1.9 22.59-4.494 22.01 3.854-5.01 2.275-15.58.17-18.01 4.337 1.67.8 4.81.891 6 1.923 6.28-4.521 18.48-8.761 34.02-7.221 3.28-.671 3.17-2.97 9-2.41.43 1.01-.68 1.276-1 1.928 7.97.425 8.34-1.174 10.01-2.89a12.482 12.482.0 0 1 5 .479c3.56-.857 7.79-1.382 9.01-3.367h5c1.93-2.221 13.92-1.828 10-5.3l-.5-.479-.5-.481c7.68-.8 15.43-1.567 17.01-5.3 7.09.68 5.85-2.641 11.01-2.887-2.34-2.307 2.53-2.568 4-3.373.49-.269.09-1.892 1-2.409.51-.292 2.64-.112 3-.48s-1.23-1.918-1-2.405c.44-.949 4.13-2.566 5-4.337 6.66 1.1 14.09.266 21.01 1.928C1916.49 17.086 1920 18 1920 18V86H0zM178.1 72.225c-5.6-.676-5.806-3.949-12.006-4.332-1.32 1.2 3.958 1.506 1 1.923-5.3 2.265-12.63 3.551-15 7.227C160.8 80.627 178.465 78.169 178.1 72.225zM1727.87 58.74c.83-1.358-1.41-1.247-1-2.405-6.03-.037-8.81-.808-11 1.443C1720.47 58.954 1723.26 59.4 1727.87 58.74zm30.01-3.369c-.9-1.811-5.2-1.989-10-1.925.19 1.816 1.8 2.192 2 2.888C1750.74 55.142 1756.85 56.477 1757.88 55.371zm-944.464-5.3c1-.005 1.192.391 2 .481C818.152 49.782 813.954 48.939 813.416 50.075zM589.3 47.665c-1.771-4.2-9.6-2.53-14-5.3-1.605.84-4.508 1.044-8.008.966 2.55-1.38-7.7-1.921-10-.966-.793 1.667 1.107 2.034 2 2.892 7.617-.158 17.7-1.718 19.012 2.886C583.045 48.505 585.181 47.607 589.3 47.665zM363.2 33.7c-1.915 2.063-5.781.184-7.006 2.407 2.542.7 6.378.786 6.005 2.888a30.9 30.9.0 0 0-9.008.966c.131 1.187.152 2.319-1 2.89 2.932-.125 3.073 1.088 6 .96-1-1.606 1.391-1.579 4-1.445 1.453 3.558 7.394 3.156 12 3.371a1.753 1.753.0 0 0-1-1.443c2.414 1.638 8.184.843 11.008.0-.546-.7 1.171-2.49-1-2.409C380.205 41 370.853 35.486 363.2 33.7zm545.267 7.706c-.3.3-2.49 1.851.0 1.926-.15-.64 4.067-1.45 1-1.926l.5-.888-1.5-.557c.662-1.611 3.113-2.356 4-3.855-1.228-.208-2.053-.614-2-1.441-4.318-.317-5.611.831-8.008 1.441 6 3.855 5.508 4.576 5.508 4.576zM32.032 35.631c-.215 1.987-6.232 1.174-7.009 2.889C28.329 42.118 38.377 37.879 32.032 35.631zM1504.76 33.7h-6c-1.6 1.15-2.46 2.3.0 3.372C1500.81 37.138 1505.81 36.507 1504.76 33.7zM355.186 27.444c1.374.948.961 2.749 2.009 3.854 7.639-.964 14.177-.357 19.006-1.929.706-1.782-1.707-2.061-1-3.851a115.3 115.3.0 0 1-20.014.964l-1-.242-1-.24c-2.966-.336-4.932-.579-6 0 2.091.278 2.856 1.2 6 .966l.5.723zM1485.75 22.629c4.42 2.338 10.84 8.778 17.01 3.37-3-.8-7.49-.888-9.01-2.406 3.1-3.429-3.2-5.6-7-7.225-.22.379-.84.561-2 .483C1484.76 19.756 1487.68 19.7 1485.75 22.629zm-1451.216.72-.5.724c-3.555.75-.609-1.633-3-1.444.636-1.177 4.675-.073 5 .481zm233.11-.48-1.5-.24q1.272-1.074 5-.962 1.168 2.486-4.005 1.926zm81.045-6.42-1.5-.56c1.546-1.325 6-.048 7 .479-.806 1.021-4.121 1.879-6.006.964zm99.048 9.311-.5-.722c.164-.562-.216-.858-1-.965 1.251-.88 5.855.679 7 1.445-.622 1.467-2.223 2.463-6.006 2.41l.5-.886-1.5-.56V25.517zM513.769 26l-.5-.481c1.757-.437 1.831-1.685 3-2.407 5.2-.02 7.893-.493 10.006-2.887 2.667.317 3.662 1.443 5 2.406.892 1.557-3.268.674-4 1.444 1.179.716.867 2.149 4 1.926-3.871 1.648-14.137 3.823-17.013.483zm12.01 5.782-.5.479a10.438 10.438.0 0 0-4-.479c1.886-1.614 4.035-.307 8-.483a9.679 9.679.0 0 1-3 .962zM627.327 51.518h-1c-1.657-.8-2.62-1.95-6-1.923.557-2.253 4.386-4.013 2-6.261 3.739.3 5.73.757 7-.966-2.387-1.1-9.51.079-9-2.405 11.365.1 21.778-1.825 21.006-7.7-.352-2.734-6.932-4.625-5-7.222 6.491.835 11.227-.34 16.009.961-.132 2.155 2.2 3.113 4 4.333-4 2.768-.568 5.079 6 5.3-.42 1.081-5.309.012-6 .966.019 2.075 4.985 1.772 5 3.85A26.524 26.524.0 0 0 651.337 44.3c-2.712-1.355-2.488-.382-6 0-.1-1.877-4.345-1.76-8.008-1.928-.28 1.1.245 1.809 2 1.928l-.5.884 1.5.559c-1.316.844-6.011 2.537-6 0-1.319.171-1.574.85-3 .966 1.385 1.74 8.746.6 12.006 1.441-2.234 1.552-5.577 2.121-10 1.449-1.337 2.113-2.244 1.46-6 2.406V51.518zm397.2-23.109h-1.01c1.48-1.835-4.47-.1-3-1.928 4.78-.429 7.25-1.969 10.01-3.371 8.35-.385 12.28 2.976 7 5.3a22.361 22.361.0 0 0-13 .479V28.409zm610.79-2.65-.5-.722c1.38-1.245 6.14-.108 8.01.0 3.14-.335 1.3-1.287 1-2.409 4.51-.408 5 1.13 8 1.444-.98 2.065-2.37 3.2-1 5.3l-1.5-.239.5.725a13.116 13.116.0 0 1-6 2.887c-.32-2.094-4-2.575-8.01-2.887l.51-.725-1.51.239c-.09-1.8-1.12-1.371.0-2.887-.85.084-.94-.188-1-.483zM1745.38 45.5l-.5.721a36.226 36.226.0 0 0-7-2.89l1.5-.239-.5-.727c2.97-.651 3.77-2.355 6-3.371 5.17.656 1.94 2.512 8 2.89.73 1.472-1.72 1.416-1 2.892-3.73-.82-1.58.283-5 .481zm-60.53-16.614c-.75 1.086-5.61.186-8 .479 1.08-1.23-3.05-2.294.0-2.887 2.67 1.723 3.15.2 7-.964 1.77 1.415 1.36 1.63 2 2.892h-1v.479zM623.324 25.517c-4.577.625-7.728-2.019.0.0h0zM1771.39 42.066a2.683 2.683.0 0 1 .4.032 20.616 20.616.0 0 0 2.46.249c.8.049 1.62.1 2.47.222.6.092.94.389.76.681a1.564 1.564.0 0 1-1.41.364c-.68-.095-1.37-.142-2.11-.186a25.664 25.664.0 0 1-2.96-.309c-.59-.1-.89-.417-.67-.7A1.411 1.411.0 0 1 1771.39 42.066zm-2-.191h2c.85.0 1.53.332 1.53.739s-.68.735-1.53.735h-2c-.84.0-1.53-.332-1.53-.735S1768.55 41.875 1769.39 41.875zm-7.86-.146c.09.0.17.0.26.01.41.037.84.061 1.28.088.87.058 1.76.111 2.68.22.83.095 1.35.5 1.15.895a1.99 1.99.0 0 1-1.87.555c-.77-.09-1.58-.139-2.36-.194-.48-.027-.95-.059-1.4-.094-.84-.068-1.41-.454-1.27-.86A1.656 1.656.0 0 1 1761.53 41.729zm19.87-2.947a1.342 1.342.0 0 1 .84.244 3.025 3.025.0 0 1 1.11 2.906 1.026 1.026.0 0 1-1.04.417c-.52-.024-.91-.249-.86-.5a2.479 2.479.0 0 0-.89-2.392c-.25-.223-.07-.5.39-.62A1.812 1.812.0 0 1 1781.4 38.781zm1.52 2.643a37.5 37.5.0 0 1 3.85.254 33.846 33.846.0 0 0 3.61.233.93.93.0 0 1 .97.452.82.82.0 0 1-.93.462 35.471 35.471.0 0 1-4.04-.249 28.8 28.8.0 0 0-3.92-.231.933.933.0 0 1-1.01-.432c-.03-.256.36-.467.89-.485C1782.53 41.426 1782.73 41.424 1782.92 41.424zm-1177.1 1.189a1.845 1.845.0 0 1 .514.069 13.548 13.548.0 0 0 2.05.342l.692.085c.532.069.85.334.708.586a1.3 1.3.0 0 1-1.222.343l-.672-.083a16.365 16.365.0 0 1-2.591-.449c-.474-.139-.623-.435-.339-.661A1.457 1.457.0 0 1 605.818 42.613zm1-4.032a2.419 2.419.0 0 1 .885.156 8.839 8.839.0 0 0 1.889.389 10.262 10.262.0 0 1 3.208.8l.486.249-.152.335a5.617 5.617.0 0 1-.822 1.135 4.488 4.488.0 0 0-.653.867 1.752 1.752.0 0 1-1.63.5c-.738-.081-1.207-.424-1.043-.779a5 5 0 0 1 .8-1.086c.149-.183.3-.36.433-.524-.388-.1-.863-.164-1.385-.237a12.013 12.013.0 0 1-2.9-.649c-.574-.234-.645-.649-.152-.923A2.18 2.18.0 0 1 606.815 38.582zM1823.92 40.536a.794.794.0 0 1 .8.351c.05.215-.27.4-.72.428-.19.008-.44.037-.73.063a25.947 25.947.0 0 1-2.85.175h0a.752.752.0 0 1-.82-.383.728.728.0 0 1 .81-.391 25.061 25.061.0 0 0 2.52-.163c.36-.037.67-.066.91-.076A.572.572.0 0 1 1823.92 40.536zM877.954 26.362a1.83 1.83.0 0 1 1.305.424c.3.344-.051.74-.77.886-.928.183-1.578.327-2.228.471l-.729.161a2.234 2.234.0 0 1-1.872-.339c-.324-.343-.011-.745.706-.9l.707-.157c.682-.147 1.368-.3 2.342-.491A2.635 2.635.0 0 1 877.954 26.362zm-11.011 10.9a1.371 1.371.0 0 1 1.045.356c.2.278-.109.578-.684.676a15.971 15.971.0 0 0-3.744 1.216 14.658 14.658.0 0 1-7.821 1.45c-.6-.047-1-.326-.888-.611a1.325 1.325.0 0 1 1.286-.431 11.023 11.023.0 0 0 5.97-1.206 18.714 18.714.0 0 1 4.477-1.423A2.59 2.59.0 0 1 866.943 37.267zm69.8 1.84a7.434 7.434.0 0 1 2.37.44 4.185 4.185.0 0 0 1.72.3.935.935.0 0 1 .9.286c.083.2-.186.389-.6.432a6.729 6.729.0 0 1-2.864-.4 4.589 4.589.0 0 0-1.7-.313.854.854.0 0 1-.856-.322c-.051-.2.25-.383.665-.41C936.506 39.109 936.625 39.107 936.74 39.107zm877.79-.623c.8.0 1.61.02 2.42.1.58.051.95.32.84.6a1.313 1.313.0 0 1-1.25.4 27.119 27.119.0 0 0-2.93-.069c-.58.0-1.16.01-1.74-.005a.9.9.0 0 1-1.02-.532 1.019 1.019.0 0 1 1.1-.486c.54.012 1.08.0 1.62.0C1813.89 38.488 1814.21 38.483 1814.53 38.483zm-78.25-3.435h.11a.609.609.0 0 1 .69.347.646.646.0 0 1-.72.334 10.321 10.321.0 0 0-2.95.443l-.24.061a.7.7.0 0 0 .19.646 2.1 2.1.0 0 1 .21.374c.07.186-.19.364-.57.395a.839.839.0 0 1-.82-.273c-.04-.093-.11-.191-.17-.3a.851.851.0 0 1-.02-1.245l.1-.093.63-.163A12.437 12.437.0 0 1 1736.28 35.048zm-933.367.46a1.156 1.156.0 0 1 .574.132 2.153 2.153.0 0 1 1.019 1.267c.042.112.085.218.135.322.1.2-.152.389-.553.437a.983.983.0 0 1-.907-.269c-.056-.11-.1-.235-.151-.354a1.624 1.624.0 0 0-.687-.94c-.269-.151-.232-.38.084-.508A1.281 1.281.0 0 1 802.913 35.509zm-125.06.542h3a.573.573.0 0 1 .631.3.57.57.0 0 1-.631.3h-3a.564.564.0 0 1-.627-.3A.566.566.0 0 1 677.853 36.051zm170.784-9.28a67.439 67.439.0 0 1 8.5.537c.432.054.693.266.581.469a1.048 1.048.0 0 1-.978.286 65.154 65.154.0 0 0-10.758-.474.809.809.0 0 1-.854-.361c-.034-.213.3-.4.753-.417C846.843 26.786 847.75 26.771 848.637 26.771zM297.66 16.575a1.354 1.354.0 0 1 1.014.344c.192.269-.1.566-.651.657a18.148 18.148.0 0 1-5.683.009c-.56-.084-.877-.372-.7-.643a1.491 1.491.0 0 1 1.342-.342 13.718 13.718.0 0 0 4.328.007A2.1 2.1.0 0 1 297.66 16.575zm-10 .418a2.3 2.3.0 0 1 .679.1c.541.178.684.54.31.8l-.5.34c-.483.339-.979.681-1.464 1.071a2.04 2.04.0 0 1-1.651.2c-.56-.164-.744-.516-.411-.793.52-.415 1.043-.777 1.561-1.134l.484-.338A1.776 1.776.0 0 1 287.66 16.993zm1399.69 5.1h.08c.34.022.57.167.53.33l-.07.273a1.763 1.763.0 0 1-.5 1.032 1.022 1.022.0 0 1-.83.122c-.3-.078-.41-.258-.25-.4a1.5 1.5.0 0 0 .36-.82l.07-.287A.652.652.0 0 1 1687.35 22.1zM311.667 17.388a2.486 2.486.0 0 1 .829.132l.219.079a7.219 7.219.0 0 0 2.167.519c.756.054 1.274.4 1.159.759a1.594 1.594.0 0 1-1.584.559 11.384 11.384.0 0 1-3.418-.776l-.2-.073c-.61-.222-.735-.638-.276-.931A2.116 2.116.0 0 1 311.667 17.388zM273.65 14.9h2a.953.953.0 0 1 1.058.509.949.949.0 0 1-1.058.513h-2a.955.955.0 0 1-1.061-.513A.96.96.0 0 1 273.65 14.9zM19.517 52.483a1.461 1.461.0 0 1 .863.229c.286.227.132.524-.332.666a13.369 13.369.0 0 0-1.835.657 1.815 1.815.0 0 1-1.415-.017c-.379-.191-.362-.5.031-.676A16.915 16.915.0 0 1 19 52.552 1.973 1.973.0 0 1 19.517 52.483zm.01-20.657a2.574 2.574.0 0 1 .772.114c.823.262 1.582.564 2.261.83.283.115.559.224.819.324.613.227.723.654.254.943a2.557 2.557.0 0 1-1.972.117c-.274-.105-.569-.221-.877-.346-.655-.256-1.334-.522-2.026-.745-.646-.21-.821-.627-.393-.933A2.052 2.052.0 0 1 19.527 31.826zM34.534 22.78a1.712 1.712.0 0 1 1.019.276 2.116 2.116.0 0 1 .658 1.179c.1.313-.359.6-1.009.645a1.373 1.373.0 0 1-1.352-.486 1.81 1.81.0 0 0-.342-.751c-.332-.266-.152-.62.413-.786A2.237 2.237.0 0 1 34.534 22.78zm182.085 1.245a1.2 1.2.0 0 1 1.083.434c.11.283-.282.561-.88.615a7.715 7.715.0 0 0-2.522.616 1.979 1.979.0 0 1-1.533-.083c-.385-.229-.3-.561.171-.742a11.251 11.251.0 0 1 3.483-.83C216.487 24.03 216.553 24.025 216.619 24.025zm50.507-1.5c.22.0.42.005.623.02.374.029.635.193.576.378a.8.8.0 0 1-.779.274 11.639 11.639.0 0 0-3.561.444 1.181 1.181.0 0 1-.938-.122c-.184-.159-.076-.363.259-.452A15.091 15.091.0 0 1 267.126 22.523zm81.566-6.729a1.517 1.517.0 0 1 1.322.511c.171.349-.284.7-1.02.783l-.816.1c-1.078.122-2.194.247-3.323.317a1.489 1.489.0 0 1-1.52-.567c-.1-.361.43-.691 1.181-.737.984-.056 1.978-.173 3.029-.291l.836-.1A3.041 3.041.0 0 1 348.692 15.794zm19-1.9a1 1 0 0 1 .522.129c.211.134.152.324-.131.432a23.16 23.16.0 0 1-2.622.757 1.028 1.028.0 0 1-.856-.156c-.146-.158.0-.341.325-.412a20.285 20.285.0 0 0 2.378-.689A1.157 1.157.0 0 1 367.694 13.891zm56.031.9a2.389 2.389.0 0 1 .267.015c1.991.2 4.577.837 5.86 2 .33.3.1.666-.524.832a2.107 2.107.0 0 1-1.724-.258 8.151 8.151.0 0 0-4.148-1.373c-.686-.071-1.126-.4-.979-.729A1.408 1.408.0 0 1 423.725 14.793zm22.346 10.22a4.33 4.33.0 0 1 2.172.537c.235.141.2.34-.078.452a1.2 1.2.0 0 1-.936-.041c-.895-.5-1.736-.319-3.162.046-.267.073-.538.145-.813.2a2.792 2.792.0 0 0 1.116 1.394c.249.13.227.334-.042.452a1.229 1.229.0 0 1-.941-.022 3.483 3.483.0 0 1-1.493-1.819l-.18-.4.552-.1c.364-.059.753-.163 1.17-.267A10.56 10.56.0 0 1 446.071 25.013zm-8.338 19.132a1.391 1.391.0 0 1 .522.094 2.364 2.364.0 0 1 1.266 1.157c.122.21-.136.423-.568.481a1.1 1.1.0 0 1-1.01-.271 1.569 1.569.0 0 0-.731-.764c-.349-.135-.4-.386-.109-.554A1.3 1.3.0 0 1 437.733 44.145zm18.01-9.476a1.444 1.444.0 0 1 1.5.677 2.853 2.853.0 0 0 .294.847c.18.39-.328.776-1.134.863a1.891 1.891.0 0 1-1.792-.549 3.6 3.6.0 0 1-.367-1.076c-.048-.4.58-.742 1.409-.762h.09zM472.751 36.6a3.209 3.209.0 0 1 .481.033c.785.129 1.2.539.939.919a7.77 7.77.0 0 1-.815.908 6.349 6.349.0 0 0-.544.574 2.319 2.319.0 0 1-1.957.4c-.768-.149-1.141-.569-.836-.94.191-.225.41-.449.633-.667a6.189 6.189.0 0 0 .674-.742A1.854 1.854.0 0 1 472.751 36.6zm39.784-11.12c.434.0.853.0 1.263.008a.917.917.0 0 1 1.039.527 1 1 0 0 1-1.1.5 26.957 26.957.0 0 0-4.629.212 1.539 1.539.0 0 1-1.354-.321c-.192-.271.108-.561.667-.655A25.768 25.768.0 0 1 512.535 25.477zm13.244 6.055a.534.534.0 0 1 .511.213 2.51 2.51.0 0 0 .934 1.113c.142.12.058.268-.189.339a.9.9.0 0 1-.7-.086 2.9 2.9.0 0 1-1.068-1.3c-.035-.136.163-.261.445-.278h.071zm113.76 12.956a10.359 10.359.0 0 1 1.762.13c.736.125 1.126.511.865.869a2.053 2.053.0 0 1-1.8.417 7.541 7.541.0 0 0-1.449-.042 1.42 1.42.0 0 1-1.5-.639c-.045-.378.55-.7 1.327-.724C639.015 44.492 639.275 44.487 639.539 44.487zm-12.212 6.727a1.154 1.154.0 0 1 .2.019c.331.053.511.222.4.382l-.153.233a4.721 4.721.0 0 1-1.435 1.535 1.126 1.126.0 0 1-.88.07c-.292-.1-.357-.288-.149-.424a4.143 4.143.0 0 0 1.252-1.36l.161-.242A.77.77.0 0 1 627.327 51.214zm34.184-9.967a1.962 1.962.0 0 1 .314.022c.428.056.877.105 1.323.157 2.13.249 4.55.53 6.062 1.5l.394.255-.247.29a7.111 7.111.0 0 1-1.818 1.4c-.23.146-.481.3-.75.481a2.121 2.121.0 0 1-1.64.12c-.518-.186-.629-.536-.247-.789.278-.186.537-.344.775-.495a10.48 10.48.0 0 0 1.2-.83 16.917 16.917.0 0 0-4.282-.838c-.481-.055-.95-.108-1.412-.168-.616-.09-.981-.4-.809-.695A1.372 1.372.0 0 1 661.511 41.246zm26.7 1.03c1.331.0 2.685.1 3.912.193l.836.063c.372.025.625.187.57.364a.757.757.0 0 1-.766.274l-.85-.061c-2.61-.2-5.555-.415-7.493.359a4.07 4.07.0 0 0 2.007 1.625 15.9 15.9.0 0 1 4.1.937l.166.1-.013.125a1.769 1.769.0 0 1-1.493 1.213 1.144 1.144.0 0 1-.921-.127c-.179-.157-.061-.354.264-.442a1.121 1.121.0 0 0 .768-.54 19.61 19.61.0 0 0-3.378-.664l-.183-.02-.13-.059c-1.491-.707-2.356-1.454-2.585-2.221l-.047-.161.244-.117A12.006 12.006.0 0 1 688.208 42.276zM869.946 45a1.567 1.567.0 0 1 .829.2c.335.219.236.532-.226.691a9.358 9.358.0 0 1-3.1.344 6.6 6.6.0 0 0-1.936.151 1.823 1.823.0 0 1-1.423-.137c-.313-.227-.183-.537.284-.689a10.176 10.176.0 0 1 3.094-.315 6.031 6.031.0 0 0 1.872-.151A1.931 1.931.0 0 1 869.946 45zm-2 1.767h.046a26.121 26.121.0 0 1 3.189.257c.46.06.728.288.6.512a1.179 1.179.0 0 1-1.066.288A23.989 23.989.0 0 0 867.9 47.6c-.479-.008-.846-.207-.819-.437A.825.825.0 0 1 867.945 46.77zM975.108 31.131c1.139.0 2.234.07 3.3.14 1.215.085 2.363.158 3.512.126a1.285 1.285.0 0 1 1.367.583c.042.342-.5.636-1.206.656a40.091 40.091.0 0 1-4.03-.133 32.927 32.927.0 0 0-3.912-.108 1.391 1.391.0 0 1-1.425-.547c-.081-.344.426-.647 1.139-.689C974.28 31.141 974.7 31.131 975.108 31.131zm49.412-3.02a.811.811.0 0 1 .56.169c.15.154.01.33-.3.4a17.012 17.012.0 0 1-2.64.293 7.422 7.422.0 0 0-3.15.591 1.145 1.145.0 0 1-.88.032c-.25-.109-.28-.3-.06-.42a9.385 9.385.0 0 1 3.95-.8 13.483 13.483.0 0 0 2.26-.244A1.428 1.428.0 0 1 1024.52 28.111zM1589.3 5.169a1.962 1.962.0 0 1 1.29.393c.33.339.04.746-.67.911a19.3 19.3.0 0 1-5.37.174c-2.67-.166-3.66-.162-4.26.583a2.146 2.146.0 0 1-1.85.385c-.73-.139-1.09-.534-.8-.884 1.47-1.8 4.83-1.6 7.28-1.445a14.963 14.963.0 0 0 3.77-.046A2.661 2.661.0 0 1 1589.3 5.169zm16.95 5.321a21.593 21.593.0 0 1 5.42.879c.46.117.69.4.44.626a1.459 1.459.0 0 1-1.24.2c-2.46-.624-4.34-1.1-6.64-.559a1.54 1.54.0 0 1-1.28-.209c-.22-.227-.03-.5.44-.606A12.083 12.083.0 0 1 1606.25 10.49zm30.07 3.382a2.348 2.348.0 0 1 .37.026 61.491 61.491.0 0 1 10.53 2.7c5.05 1.623 9.82 3.156 14.59 2.563a1.128 1.128.0 0 0-.33-.966c-.13-.016-.27-.033-.4-.054a12.325 12.325.0 0 0-1.72-.162h-.03a1.229 1.229.0 0 1-1.35-.649 1.215 1.215.0 0 1 1.35-.652 17.7 17.7.0 0 1 2.52.217c.23.03.47.066.71.095l.28.035.23.085a1.965 1.965.0 0 1 1.27 2.692l-.16.351-.7.117c-6.3 1.1-12.13-.776-17.76-2.587a58.857 58.857.0 0 0-9.76-2.534c-.72-.1-1.14-.459-.94-.807A1.61 1.61.0 0 1 1636.32 13.873zm-9 8.484a1.279 1.279.0 0 1 1.02.359 8.737 8.737.0 0 0 2.54 2.107c.12.075.22.149.33.22.12.0.25.0.37.0a22.9 22.9.0 0 1 4.11.239c.55.095.84.389.64.652a1.575 1.575.0 0 1-1.37.313 18.829 18.829.0 0 0-3.35-.174c-.33.0-.67.0-.97.0l-.53-.009-.95-.628a9.6 9.6.0 0 1-2.86-2.409c-.17-.276.14-.562.7-.646A2.073 2.073.0 0 1 1627.32 22.357zm34.14 5.007.63.153c.48.108.93.254 1.36.391a6.912 6.912.0 0 0 2.33.472 1.016 1.016.0 0 1 1.11.481c.04.277-.41.516-.99.534a10.079 10.079.0 0 1-3.62-.642c-.19-.059-.36-.116-.54-.173a26.329 26.329.0 0 1-12.83 1.013c-.53-.11-.78-.412-.54-.668a1.63 1.63.0 0 1 1.39-.261 22.129 22.129.0 0 0 11.18-1.076zm-25.14 1.394a1.014 1.014.0 0 1 .7.219c.18.183.01.4-.38.491a46.221 46.221.0 0 1-10.2.546c-1.08-.021-2.13-.039-3.11-.034a.729.729.0 0 1-.78-.363.683.683.0 0 1 .76-.373c1.01-.01 2.08.012 3.19.036a43.408 43.408.0 0 0 9.51-.486A1.621 1.621.0 0 1 1636.32 28.758zm-24.7.737a14.556 14.556.0 0 1 1.49.093 5.738 5.738.0 0 0 .99.051 1.21 1.21.0 0 1 1.15.351c.12.247-.2.5-.73.555a8.445 8.445.0 0 1-1.8-.049 6.106 6.106.0 0 0-2.01.02 1.543 1.543.0 0 1-1.28-.232c-.21-.237.0-.508.49-.613A7.749 7.749.0 0 1 1611.62 29.5zm17.7 6.995a1.055 1.055.0 0 1 .62.164c.21.166.1.377-.24.477a14.389 14.389.0 0 1-4.72.331 11.208 11.208.0 0 0-3.31.157 1.213 1.213.0 0 1-.98-.137c-.2-.168-.07-.378.28-.471a13.583 13.583.0 0 1 4.15-.239 11.761 11.761.0 0 0 3.82-.235A1.536 1.536.0 0 1 1629.32 36.49zm61.54 9.454a1.059 1.059.0 0 1 1.07.472 2.257 2.257.0 0 0 .45.842c.19.278-.12.57-.68.664a1.559 1.559.0 0 1-1.37-.331 2.955 2.955.0 0 1-.55-1.085c-.06-.283.38-.538.98-.561A.944.944.0 0 1 1690.86 45.944zm40.01-4.613a1.847 1.847.0 0 1 .85.185 12.161 12.161.0 0 0 4.76.788c1.07.051 2.17.1 3.23.261.61.084.96.395.77.691a1.589 1.589.0 0 1-1.44.369c-.84-.124-1.79-.164-2.78-.212-2.09-.1-4.46-.214-6.24-1.149-.43-.225-.4-.577.07-.782A2 2 0 0 1 1730.87 41.331zm14.51 3.558a1.758 1.758.0 0 1 1.14.338l1 .962c.32.3.06.674-.57.826a2.078 2.078.0 0 1-1.71-.278l-1-.961c-.32-.308-.06-.673.57-.823A2.473 2.473.0 0 1 1745.38 44.888zm108.05-6.832a1.044 1.044.0 0 1 .95.378c.09.252-.25.495-.77.54a120.562 120.562.0 0 1-14.16.163 128.536 128.536.0 0 0-12.89.08 1.1 1.1.0 0 1-1.09-.388c-.08-.254.28-.488.8-.529a131.742 131.742.0 0 1 13.29-.085 115.87 115.87.0 0 0 13.7-.151A1.251 1.251.0 0 1 1853.43 38.056zM909.966 39.781a1.8 1.8.0 0 1 1.488.549c.225.4-.263.8-1.082.911-.752.1-1.459.143-2.238.183a1.658 1.658.0 0 1-1.7-.658c-.091-.407.516-.776 1.366-.818.67-.038 1.226-.071 1.764-.137A2.761 2.761.0 0 1 909.966 39.781zM737.382 41.055a.883.883.0 0 1 .7.251c.321.509.541 1.2-.6 1.989a1.286 1.286.0 0 1-1.024.092c-.333-.11-.418-.334-.184-.495.814-.564.633-1.006.4-1.381-.124-.191.1-.388.489-.444A1.59 1.59.0 0 1 737.382 41.055zM354.19 25.726a1 1 0 0 1 1.072.5 2.919 2.919.0 0 1-.54 1.6 1.407 1.407.0 0 1-1.314.364c-.569-.072-.909-.361-.755-.635a2.466 2.466.0 0 0 .461-1.292.924.924.0 0 1 1.049-.53h.027zM447.737 26.3a2.009 2.009.0 0 1 1.413.45c.33.375-.032.81-.811.969-.4.08-.809.176-1.208.275a20.7 20.7.0 0 1-2.979.55 1.83 1.83.0 0 1-1.784-.593c-.153-.4.4-.788 1.232-.862a16.518 16.518.0 0 0 2.172-.422c.453-.11.91-.215 1.366-.309A2.968 2.968.0 0 1 447.737 26.3zM1651.33 44.233h2a.578.578.0 0 1 .64.306.582.582.0 0 1-.64.3h-2a.567.567.0 0 1-.63-.3A.563.563.0 0 1 1651.33 44.233zm33.52-16.127a1.092 1.092.0 0 1 .24.023 31.482 31.482.0 0 0 10.57.472.9.9.0 0 1 .79.193c.11.159-.07.329-.4.383a33.229 33.229.0 0 1-11.45-.491c-.32-.063-.46-.239-.33-.4A.828.828.0 0 1 1684.85 28.106zm-1419-11.794.9.044c.574.02.982.266.933.543a1.106 1.106.0 0 1-1.129.444h-.178c-.008.0-.008.013-.017.018a.389.389.0 0 0 .178.442c.289.236.142.544-.355.684a1.764 1.764.0 0 1-1.425-.176.948.948.0 0 1-.383-1.23 1.871 1.871.0 0 1 1.205-.7zM1631.32 7.332a2.745 2.745.0 0 1 .58.061c.27.07.54.126.79.184.5.109.96.213 1.35.339.58.195.74.574.34.855a2.261 2.261.0 0 1-1.77.161c-.22-.071-.6-.15-.99-.242-.28-.063-.57-.127-.87-.2-.63-.153-.88-.522-.56-.825A1.737 1.737.0 0 1 1631.32 7.332z" transform="translate(0 -1)"/></svg>