<svg id="Layer_1" xmlns="http://www.w3.org/2000/svg" xmlns:xlink="http://www.w3.org/1999/xlink" viewBox="0 0 38.9 24.6" enable-background="new 0 0 38.9 24.6" preserveAspectRatio="none"><g><g><g><g><path fill="#a8be3e" d="M36.9.0H2C.9.0.0.9.0 2V4l1 .5L2 5l17.4 9.2L36.9 5l1-.5 1-.5V2C38.9.9 38 0 36.9.0z"/></g></g><g><g><path fill="#a8be3e" d="M2 17.9 10.9 12 2 7.4 1 6.8.0 6.3V19.2L1 18.6z"/></g></g><g><g><path fill="#a8be3e" d="M36.9 20.3 26 13.1l-6 3.2c-.2.1-.3.1-.5.1-.2.0-.3.0-.5-.1l-6-3.2L2 20.3 1 21l-1 .7v.8c0 1.1.9 2 2 2h34.8c1.1.0 2-.9 2-2v-.8l-1-.7L36.9 20.3z"/></g></g><g><g><path fill="#a8be3e" d="M36.9 7.4 28 12 36.9 17.9 37.9 18.6 38.9 19.2V6.3l-1 .5z"/></g></g></g></g></svg>