<svg xmlns="http://www.w3.org/2000/svg" width="16.03" height="16" viewBox="0 0 16.03 16">
  <defs>
    <style>
      .cls-1 {
        fill: #281c16;
        fill-rule: evenodd;
      }
    </style>
  </defs>
  <path id="Vorm_8" data-name="Vorm 8" class="cls-1" d="M3000.57,504.959h0l-6.53-6.526a1.469,1.469,0,0,0-2.08,0l-6.53,6.524v0.006a1.471,1.471,0,0,0,.98,2.51l0.04,0h0.26v4.8a1.731,1.731,0,0,0,1.73,1.724h2.55a0.469,0.469,0,0,0,.47-0.469v-3.765a0.787,0.787,0,0,1,.79-0.787h1.5a0.787,0.787,0,0,1,.79.787v3.765a0.469,0.469,0,0,0,.47.469h2.55a1.731,1.731,0,0,0,1.73-1.724v-4.8h0.24a1.466,1.466,0,0,0,1.04-.432A1.481,1.481,0,0,0,3000.57,504.959Z" transform="translate(-2985 -498)"/>
</svg>
