<svg xmlns="http://www.w3.org/2000/svg" width="25" height="25" viewBox="0 0 25 25">
  <defs>
    <style>
      .cls-1 {
        fill: #a8be3e;
        fill-rule: evenodd;
      }
    </style>
  </defs>
  <path id="Vorm_1" data-name="Vorm 1" class="cls-1" d="M2749.33,157.793a3.9,3.9,0,1,0-3.89-3.9A3.9,3.9,0,0,0,2749.33,157.793Zm13.4,2.406a1.947,1.947,0,0,0,1.95-1.946v-1.31a19.847,19.847,0,0,1-4.03-.566v1.741A2.079,2.079,0,0,0,2762.73,160.2Zm-6.73,7.984a4.662,4.662,0,0,0-4.66,4.655v1.429a0.736,0.736,0,0,0,.74.733h7.84a0.727,0.727,0,0,0,.73-0.733v-1.429A4.654,4.654,0,0,0,2756,168.183Zm-6.12,4.655a6.121,6.121,0,0,1,3.39-5.475,4.962,4.962,0,0,1-1.07-7.349,5.829,5.829,0,0,0-8.7,5.075v9.178a0.733,0.733,0,0,0,.73.733h5.78a2,2,0,0,1-.13-0.733v-1.429Zm6.12-6.119a3.5,3.5,0,1,0-3.5-3.5A3.507,3.507,0,0,0,2756,166.719Zm6.67-5.055a5.793,5.793,0,0,0-1.86.3,5.127,5.127,0,0,1,.16,1.247,4.964,4.964,0,0,1-2.24,4.149,6.123,6.123,0,0,1,3.39,5.475v1.429a2.228,2.228,0,0,1-.13.733h5.78a0.733,0.733,0,0,0,.73-0.733V167.5A5.84,5.84,0,0,0,2762.67,161.664Zm0-11.664a5.834,5.834,0,0,0-5.83,5.832v2.484a4.934,4.934,0,0,1,2.78,1.5,3.542,3.542,0,0,1-.43-1.7v-2.679a0.725,0.725,0,0,1,.28-0.577,0.738,0.738,0,0,1,.63-0.133l0.85,0.214a18.45,18.45,0,0,0,4.46.548,0.736,0.736,0,0,1,.74.733v2.029a3.42,3.42,0,0,1-.98,2.387,7.32,7.32,0,0,1,1.88,1.024h0.72a0.734,0.734,0,0,0,.73-0.733v-5.1A5.84,5.84,0,0,0,2762.67,150Z" transform="translate(-2743.5 -150)"/>
</svg>
