<svg xmlns="http://www.w3.org/2000/svg" width="18" height="17.995" viewBox="0 0 18 17.995">
  <defs>
    <style>
      .cls-1 {
        fill: #281c16;
        fill-rule: evenodd;
      }
    </style>
  </defs>
  <path id="Vorm_11" data-name="Vorm 11" class="cls-1" d="M2561.05,1013.1a0.53,0.53,0,0,0,1.06,0v-0.53h3.2v0.53a0.525,0.525,0,0,0,1.05,0v-2.64h-5.31v2.64Zm5.84-4.75h-0.53v-1.58a0.525,0.525,0,0,0-.52-0.53h-4.26a0.534,0.534,0,0,0-.53.53v1.58h-0.52a0.53,0.53,0,1,0,0,1.06h6.36A0.53,0.53,0,0,0,2566.89,1008.35Zm4.75,4.75a0.525,0.525,0,0,0,1.05,0v-0.53h3.2v0.53a0.53,0.53,0,0,0,1.06,0v-2.64h-5.31v2.64Zm5.83-4.75h-0.52v-1.58a0.534,0.534,0,0,0-.53-0.53h-4.26a0.525,0.525,0,0,0-.52.53v1.58h-0.53a0.53,0.53,0,1,0,0,1.06h6.36A0.53,0.53,0,0,0,2577.47,1008.35Zm-7.42,4.22h-0.52v-10.62h-1.06v10.62h-0.52a0.527,0.527,0,0,0-.53.53,0.519,0.519,0,0,0,.53.52h2.1a0.519,0.519,0,0,0,.53-0.52A0.527,0.527,0,0,0,2570.05,1012.57Zm-7.38-10.62h2.66a5.638,5.638,0,0,1,.81-3.533,6.641,6.641,0,0,1,2.33-1.716c-3.53.179-6.33,2.236-6.33,4.729A0.525,0.525,0,0,0,2562.67,1001.95Zm4.36-2.968a4.716,4.716,0,0,0-.63,2.968h2.07v-4.087A2.517,2.517,0,0,0,2567.03,998.982Zm3.78-.225a2.361,2.361,0,0,0-1.28-.9v4.09h2.07A4.54,4.54,0,0,0,2570.81,998.757Zm0.85-.633a5.613,5.613,0,0,1,1,3.826h2.67a0.525,0.525,0,0,0,.53-0.52c0-2.493-2.8-4.55-6.33-4.729A6.509,6.509,0,0,1,2571.66,998.124Zm-2.13-1.423v-0.549a0.53,0.53,0,0,0-1.06,0V996.7A6.7,6.7,0,0,1,2569.53,996.7Z" transform="translate(-2560 -995.625)"/>
</svg>
