<svg xmlns="http://www.w3.org/2000/svg" width="25" height="24" viewBox="0 0 25 24">
  <defs>
    <style>
      .cls-1 {
        fill: #fff;
        fill-rule: evenodd;
      }
    </style>
  </defs>
  <path id="Vorm_585" data-name="Vorm 585" class="cls-1" d="M803,384.464l-0.108-7.516a0.693,0.693,0,0,1,.711-0.691l7.735,0.11a0.678,0.678,0,0,1,.485,1.162l-2.151,2.091,3.579,3.478-3.323,3.229-3.579-3.477-2.153,2.091A0.707,0.707,0,0,1,803,384.464Zm21.426-1.57,2.152,2.092a0.7,0.7,0,0,0,1.2-.472L827.886,377a0.7,0.7,0,0,0-.712-0.69l-7.734.109a0.679,0.679,0,0,0-.487,1.163l2.148,2.081-3.579,3.477,3.323,3.23Zm-5.475,16.091a0.678,0.678,0,0,0,.485,1.162l7.735,0.11a0.693,0.693,0,0,0,.711-0.691l-0.112-7.516a0.7,0.7,0,0,0-1.2-.472l-2.152,2.091-3.579-3.477-3.324,3.229L821.1,396.9ZM803.6,400.207l7.735-.109a0.678,0.678,0,0,0,.485-1.163l-2.151-2.086,3.579-3.478-3.323-3.229-3.579,3.478-2.153-2.092A0.7,0.7,0,0,0,803,392l-0.113,7.515A0.7,0.7,0,0,0,803.6,400.207Z" transform="translate(-802.875 -376.25)"/>
</svg>
