<svg xmlns="http://www.w3.org/2000/svg" xmlns:xlink="http://www.w3.org/1999/xlink" version="1.1" viewBox="0 0 190 53" xml:space="preserve"><style>path, polygon {fill: #FF6F26;}</style><path d="M64.1 18.8c-2-1-4.1-1.4-6.4-1.4c-2.2 0-4.2 0.4-6.1 1.2s-3.5 1.8-5 3.2c-1.4 1.4-2.5 3-3.3 4.8 c-0.8 1.8-1.2 3.7-1.2 5.6c0 2.6 0.6 4.8 1.8 6.8c1.2 2 2.9 3.5 5 4.6c2.1 1.1 4.3 1.6 6.8 1.6c2.1 0 4-0.4 5.8-1.1 c1.8-0.7 3.4-1.8 4.8-3.1c1.4-1.3 2.4-2.9 3.2-4.8c0.8-1.9 1.2-3.8 1.2-6c0-2.8-0.6-5.2-1.8-7.1C67.7 21.2 66.1 19.8 64.1 18.8z M61.1 33.6c-0.5 1.2-1.2 2.1-2.1 2.9c-0.9 0.7-1.9 1.1-3.1 1.1c-1.4 0-2.6-0.5-3.4-1.5c-0.9-1-1.3-2.2-1.3-3.7 c0-1 0.2-2.1 0.6-3.3c0.4-1.2 1.1-2.2 2-3c0.9-0.8 2-1.2 3.4-1.2c1.4 0 2.5 0.5 3.3 1.4c0.9 0.9 1.3 2.2 1.3 3.8 C61.8 31.3 61.6 32.5 61.1 33.6z"/><path d="M177.8 18c-0.7-0.1-1.3-0.2-2-0.3c-0.7-0.1-1.4-0.1-2-0.2c-0.7-0.1-1.3-0.1-1.8-0.1c-2.7 0-4.1 0.2-6.4 0.6 c-2.3 0.4-4.3 0.9-6 1.3l-4 25.3h9.1l3.2-20.4c0.4-0.1 2.2-0.4 2.8-0.4c1.3 0 2.4 0.1 3.5 0.3c1.1 0.2 2 0.4 2.8 0.5l2.5-6.2 C179 18.2 178.5 18.1 177.8 18z"/><polygon points="124.9,11.1 110,44.6 118.3,44.6 134,11.1"/><polygon points="43.8,17.8 43.3,17.8 19.6,17.8 18.7,24 30,24 15.6,44.6 15.9,44.6 39.9,44.6 40.8,38.2 29.6,38.2"/><polygon points="111.9,21.2 102.8,21.2 108.6,44.6 113.8,32.6"/><path d="M148.9 18.7c-1.7-0.9-3.6-1.3-5.7-1.3c-2.8 0-5.3 0.7-7.5 2.1c-2.2 1.4-4 3.2-5.2 5.6 c-1.3 2.3-1.9 4.9-1.9 7.6c0 1.8 0.4 3.7 1.1 5.6c0.8 1.9 2.2 3.5 4.3 4.8c2.1 1.4 5 2 8.6 2c1.7 0 3.1-0.1 4.3-0.4 c1.1-0.3 2.6-0.8 4.5-1.5l1.3-6.6c-2 0.8-3.7 1.4-5.1 1.8c-1.4 0.4-3 0.6-4.9 0.6c-3.6 0-5.5-1.9-5.5-5.6h17 c0.2-1.4 0.4-2.7 0.4-3.9c0-2.7-0.5-4.9-1.6-6.8C152.1 21 150.7 19.6 148.9 18.7z M146.2 28.4c0 0.1 0 0.2 0 0.4H138 c0.6-1.6 1.3-2.9 2-3.9c0.7-1 1.7-1.5 3-1.5c2.1 0 3.1 1.5 3.1 4.5C146.2 28.2 146.2 28.3 146.2 28.4z"/><path d="M95.2 18.8c-2-1-4.1-1.4-6.4-1.4c-2.2 0-4.2 0.4-6.1 1.2c-1.9 0.8-3.5 1.8-5 3.2c-1.4 1.4-2.5 3-3.3 4.8 c-0.8 1.8-1.2 3.7-1.2 5.6c0 2.6 0.6 4.8 1.8 6.8c1.2 2 2.9 3.5 5 4.6c2.1 1.1 4.3 1.6 6.8 1.6c2.1 0 4-0.4 5.8-1.1 c1.8-0.7 3.4-1.8 4.8-3.1c1.4-1.3 2.4-2.9 3.2-4.8c0.8-1.9 1.2-3.8 1.2-6c0-2.8-0.6-5.2-1.8-7.1C98.8 21.2 97.2 19.8 95.2 18.8z M92.2 33.6c-0.5 1.2-1.2 2.1-2.1 2.9c-0.9 0.7-1.9 1.1-3.1 1.1c-1.4 0-2.6-0.5-3.4-1.5c-0.9-1-1.3-2.2-1.3-3.7 c0-1 0.2-2.1 0.6-3.3c0.4-1.2 1.1-2.2 2-3c0.9-0.8 2-1.2 3.5-1.2c1.4 0 2.5 0.5 3.3 1.4c0.9 0.9 1.3 2.2 1.3 3.8 C92.9 31.3 92.7 32.5 92.2 33.6z"/></svg>